<svg width="265" height="63" viewBox="0 0 265 63" fill="none" xmlns="http://www.w3.org/2000/svg">
<path d="M44.04 4.62V49.44H43.86L12 17.1L12.12 48H6.24V3.3H6.54L38.34 36L38.22 4.62H44.04ZM66.7734 43.8C68.8534 43.8 70.8734 43.08 72.8334 41.64L75.4134 45.78C74.0934 46.66 72.6534 47.36 71.0934 47.88C69.5734 48.36 68.0934 48.6 66.6534 48.6C63.8934 48.6 61.4734 48.04 59.3934 46.92C57.3534 45.76 55.7734 44.18 54.6534 42.18C53.5334 40.18 52.9734 37.92 52.9734 35.4C52.9734 32.96 53.5734 30.74 54.7734 28.74C56.0134 26.7 57.6934 25.1 59.8134 23.94C61.9334 22.74 64.2534 22.14 66.7734 22.14C70.0134 22.14 72.7134 23.1 74.8734 25.02C77.0734 26.9 78.5734 29.54 79.3734 32.94L59.6934 39.84C60.4134 41.08 61.3734 42.06 62.5734 42.78C63.8134 43.46 65.2134 43.8 66.7734 43.8ZM66.3534 26.58C64.0734 26.58 62.1934 27.38 60.7134 28.98C59.2334 30.58 58.4934 32.62 58.4934 35.1C58.4934 35.7 58.5134 36.16 58.5534 36.48L73.0134 31.14C72.4134 29.78 71.5534 28.68 70.4334 27.84C69.3534 27 67.9934 26.58 66.3534 26.58ZM84.1453 35.34C84.1453 32.9 84.7253 30.68 85.8853 28.68C87.0853 26.64 88.7253 25.04 90.8053 23.88C92.9253 22.72 95.3053 22.14 97.9453 22.14C100.585 22.14 102.925 22.72 104.965 23.88C107.045 25.04 108.645 26.62 109.765 28.62C110.925 30.62 111.505 32.86 111.505 35.34C111.505 37.82 110.925 40.08 109.765 42.12C108.645 44.12 107.045 45.7 104.965 46.86C102.885 48.02 100.505 48.6 97.8253 48.6C95.2253 48.6 92.8853 48.06 90.8053 46.98C88.7253 45.86 87.0853 44.3 85.8853 42.3C84.7253 40.3 84.1453 37.98 84.1453 35.34ZM89.7853 35.4C89.7853 36.96 90.1253 38.4 90.8053 39.72C91.5253 41.04 92.4853 42.08 93.6853 42.84C94.9253 43.6 96.2853 43.98 97.7653 43.98C100.085 43.98 102.005 43.16 103.525 41.52C105.045 39.88 105.805 37.84 105.805 35.4C105.805 32.96 105.045 30.92 103.525 29.28C102.005 27.6 100.085 26.76 97.7653 26.76C96.2453 26.76 94.8853 27.16 93.6853 27.96C92.4853 28.72 91.5253 29.76 90.8053 31.08C90.1253 32.4 89.7853 33.84 89.7853 35.4ZM139.701 25.5C142.181 26.46 144.141 27.84 145.581 29.64C147.021 31.4 147.741 33.46 147.741 35.82C147.741 38.58 147.061 40.88 145.701 42.72C144.381 44.52 142.621 45.86 140.421 46.74C138.261 47.58 135.881 48 133.281 48H120.381V4.62H131.601C136.041 4.62 139.481 5.54 141.921 7.38C144.361 9.18 145.581 11.9 145.581 15.54C145.581 17.82 145.061 19.82 144.021 21.54C143.021 23.22 141.581 24.54 139.701 25.5ZM126.201 23.58H132.801C135.041 23.58 136.721 22.94 137.841 21.66C139.001 20.38 139.581 18.74 139.581 16.74C139.581 14.54 138.901 12.9 137.541 11.82C136.181 10.74 134.281 10.2 131.841 10.2H126.201V23.58ZM133.041 42.6C135.561 42.6 137.641 42.04 139.281 40.92C140.921 39.76 141.741 38.08 141.741 35.88C141.741 33.6 140.841 31.92 139.041 30.84C137.281 29.76 135.141 29.22 132.621 29.22H126.201V42.6H133.041ZM161.729 23.16V48H156.149V23.16H161.729ZM155.729 14.22C155.729 13.34 156.069 12.6 156.749 12C157.429 11.4 158.209 11.1 159.089 11.1C159.969 11.1 160.729 11.4 161.369 12C162.049 12.6 162.389 13.34 162.389 14.22C162.389 15.1 162.049 15.84 161.369 16.44C160.729 17.04 159.969 17.34 159.089 17.34C158.209 17.34 157.429 17.04 156.749 16.44C156.069 15.84 155.729 15.1 155.729 14.22ZM179.482 12.24V23.22H186.262V27.66H179.482V48H173.842V27.66H169.282V23.22H173.842V12.24H179.482ZM194.443 4.62H206.323C211.723 4.62 216.183 5.7 219.703 7.86C223.263 9.98 225.843 12.74 227.443 16.14C229.083 19.5 229.903 23.06 229.903 26.82C229.903 31.02 228.923 34.74 226.963 37.98C225.003 41.18 222.383 43.66 219.103 45.42C215.823 47.14 212.263 48 208.423 48H194.443V4.62ZM207.283 42.36C210.483 42.36 213.343 41.74 215.863 40.5C218.383 39.22 220.343 37.38 221.743 34.98C223.183 32.58 223.903 29.72 223.903 26.4C223.903 23 223.163 20.08 221.683 17.64C220.203 15.2 218.223 13.36 215.743 12.12C213.303 10.84 210.663 10.2 207.823 10.2H200.263V42.36H207.283ZM262.118 12.36C260.558 11.52 258.898 10.84 257.138 10.32C255.378 9.8 253.718 9.54 252.158 9.54C249.798 9.54 247.918 10.08 246.518 11.16C245.158 12.2 244.478 13.64 244.478 15.48C244.478 17.28 245.278 18.76 246.878 19.92C248.518 21.04 250.838 22.16 253.838 23.28C256.078 24.08 257.958 24.96 259.478 25.92C261.038 26.84 262.318 28.14 263.318 29.82C264.358 31.46 264.878 33.56 264.878 36.12C264.878 38.44 264.298 40.54 263.138 42.42C261.978 44.3 260.318 45.78 258.158 46.86C256.038 47.94 253.538 48.48 250.658 48.48C247.978 48.48 245.398 48.06 242.918 47.22C240.438 46.34 238.258 45.24 236.378 43.92L238.958 39.3C240.438 40.42 242.218 41.38 244.298 42.18C246.378 42.94 248.318 43.32 250.118 43.32C252.438 43.32 254.458 42.72 256.178 41.52C257.938 40.32 258.818 38.54 258.818 36.18C258.818 34.18 258.078 32.6 256.598 31.44C255.158 30.24 253.118 29.12 250.478 28.08C248.038 27.16 245.998 26.26 244.358 25.38C242.758 24.5 241.378 23.3 240.218 21.78C239.058 20.22 238.478 18.28 238.478 15.96C238.478 12.56 239.658 9.82 242.018 7.74C244.418 5.62 247.518 4.5 251.318 4.38C255.998 4.38 260.338 5.54 264.338 7.86L262.118 12.36Z" fill="#F7FAFF"/>
<g filter="url(#filter0_d)">
<circle cx="98" cy="9" r="4" fill="#F7FAFF"/>
</g>
<defs>
<filter id="filter0_d" x="85" y="0" width="26" height="26" filterUnits="userSpaceOnUse" color-interpolation-filters="sRGB">
<feFlood flood-opacity="0" result="BackgroundImageFix"/>
<feColorMatrix in="SourceAlpha" type="matrix" values="0 0 0 0 0 0 0 0 0 0 0 0 0 0 0 0 0 0 127 0"/>
<feOffset dy="4"/>
<feGaussianBlur stdDeviation="4.5"/>
<feColorMatrix type="matrix" values="0 0 0 0 0.966667 0 0 0 0 0.98 0 0 0 0 1 0 0 0 1 0"/>
<feBlend mode="normal" in2="BackgroundImageFix" result="effect1_dropShadow"/>
<feBlend mode="normal" in="SourceGraphic" in2="effect1_dropShadow" result="shape"/>
</filter>
</defs>
</svg>
