<svg width="37" height="18" viewBox="0 0 37 18" fill="none" xmlns="http://www.w3.org/2000/svg">
<path d="M10.557 14.688H4.945L3.565 18H0.276L7.912 0.404999H8.096L15.732 18H11.868L10.557 14.688ZM9.453 11.882L7.82 7.765L6.118 11.882H9.453ZM23.3286 1.072C25.3986 1.072 27.001 1.58567 28.1356 2.613C29.2703 3.625 29.8376 5.01267 29.8376 6.776C29.8376 7.788 29.6383 8.73867 29.2396 9.628C28.8563 10.502 28.22 11.2227 27.3306 11.79C26.4566 12.3573 25.322 12.641 23.9266 12.641H21.5346V18H18.1996V1.072H23.3286ZM23.9036 9.398C24.5323 9.398 25.0383 9.26 25.4216 8.984C25.805 8.69267 26.081 8.35533 26.2496 7.972C26.4183 7.58867 26.5026 7.22067 26.5026 6.868C26.5026 6.27 26.3263 5.695 25.9736 5.143C25.621 4.57567 24.9386 4.292 23.9266 4.292H21.5346V9.398H23.9036ZM36.1567 1.072V18H32.8217V1.072H36.1567Z" fill="#F7FAFF"/>
</svg>
