<?xml version="1.0" encoding="utf-8"?>
<!-- Generator: Adobe Illustrator 16.0.0, SVG Export Plug-In . SVG Version: 6.00 Build 0)  -->
<!DOCTYPE svg PUBLIC "-//W3C//DTD SVG 1.1//EN" "http://www.w3.org/Graphics/SVG/1.1/DTD/svg11.dtd">
<svg version="1.1" id="Capa_3" xmlns="http://www.w3.org/2000/svg" xmlns:xlink="http://www.w3.org/1999/xlink" x="0px" y="0px"
	 width="841.89px" height="595.28px" viewBox="0 0 841.89 595.28" enable-background="new 0 0 841.89 595.28" xml:space="preserve">
<g>
	<path fill="#9D9D9C" stroke="#575756" stroke-width="4.3752" stroke-miterlimit="10" d="M475.179,35.95
		c2.188,0.73,16.771,0.73,22.604,5.105c5.836,4.375,12.399,8.02,17.502,9.479c5.104,1.458,5.833,5.103,11.666,6.563
		c5.834,1.459,8.024,2.916,11.669,10.938c3.644,8.022,20.417,30.626,29.168,35.002c8.75,4.375,28.684,25.522,39.864,34.273
		c11.179,8.75,11.909,10.938,16.284,35.729c4.375,24.792,2.919,40.834,13.127,61.981s23.332,27.708,23.332,45.94
		c0,18.23,3.646,57.608,0,81.673c-3.644,24.063,10.935,51.773-13.856,72.19c-24.791,20.418-56.876,53.96-62.709,70.732
		c-5.835,16.772-55.421,17.5-69.275,21.147c-13.854,3.646-143.652,23.336-156.777,24.063c-13.126,0.729-71.463-18.96-73.65-30.626
		c-2.188-11.666-6.563-32.814-21.876-37.19c-15.313-4.374-37.917-21.147-59.065-43.023c-21.147-21.876-8.02-7.294-22.604-32.085
		c-14.584-24.793-21.878,5.831-14.584-39.377c7.293-45.21-1.346-61.231-2.86-75.096c-1.516-13.866-1.516-19.701,11.61-32.826
		c13.125-13.126,13.128,26.252,11.669-26.251c-1.459-52.503-17.501-53.962-4.375-67.087c13.125-13.125,13.124-14.582,14.583-27.708
		c1.458-13.125-13.126-4.377,8.75-16.043c21.876-11.667,52.504,0.002,64.172-32.084c11.666-32.085,10.207-45.211,23.333-48.127
		c0,0,24.794-7.296,37.92-7.293c13.126,0.001,26.249,13.125,45.209,5.834s55.421-18.96,67.089-17.501
		C454.761,25.742,475.179,35.95,475.179,35.95z"/>
	<path fill="#878787" stroke="#878787" stroke-width="4.3752" stroke-miterlimit="10" d="M320.715,99.911
		c0,0,10.937-23.333,31.356-8.75c20.419,14.582,50.314,48.127,60.524,55.419c10.21,7.291,48.127,35.729,63.44,41.564
		c15.313,5.834,18.958,17.501,29.168,17.501s16.043,4.373,34.272-8.023c18.229-12.395,19.686-21.147,40.834-13.125
		c21.148,8.022,22.607-1.459,26.982,15.313c4.375,16.772,9.479,5.104,11.667,26.252c2.187,21.147,6.567,76.566,18.962,88.963
		s21.795,6.563,21.063,14.585c-0.729,8.021-1.095,36.458-2.552,42.292c-1.457,5.836,0.97,4.428,0.728,20.418
		c-0.363,24.063,2.552,23.335-9.113,35.733c-11.665,12.396-15.232,21.145-32.006,23.332c-16.771,2.188-13.128,10.938-32.085,8.022
		c-18.957-2.917-26.978-2.917-62.71-9.479c-35.732-6.563-12.396-22.605-45.211-4.375c-32.814,18.229-34.273,24.063-65.629,40.105
		c-31.354,16.042-54.042,32.814-64.98,33.542c-10.938,0.729,2.553,4.012-31.72-8.386c-34.273-12.396-68.829-41.93-68.829-50.679
		c0-8.751,20.419-32.083,18.231-51.044c-2.188-18.96-5.836-2.187-13.856-42.294s-22.604-111.569-24.792-133.446
		c-2.188-21.875-10.208-35.732,13.125-45.939c23.333-10.207,69.275-17.499,70.004-43.021
		C308.318,118.869,320.715,99.911,320.715,99.911z"/>
	<path fill="#706F6F" stroke="#706F6F" stroke-width="4.3752" stroke-miterlimit="10" d="M414.337,232.516
		c0,0-7.839,24.246,0,31.902c7.838,7.656,10.572,10.392,18.229,10.392s16.955-4.923,18.596-6.563s3.827,6.016,0,10.392
		c-3.829,4.374-24.611,10.391-31.721,8.202c-7.109-2.187-17.501-8.467-19.142-26.929c-1.641-18.462-2.188-25.388,2.734-27.395
		S414.337,232.516,414.337,232.516z"/>
	<g>
		<path fill="#C6C6C6" d="M405.586,229.963c0,0-0.473-0.009-1.287,0.239c-0.803,0.247-1.955,0.796-2.963,1.946
			c-1.008,1.147-1.792,2.865-2.221,4.955c-0.442,2.112-0.437,4.501-0.449,7.301c-0.016,2.767,0.007,5.721,0.069,8.844
			c0.124,3.106,0.284,6.379,0.855,9.62c0.302,1.615,0.643,3.245,1.183,4.823l0.186,0.598l0.093,0.3l0.023,0.074
			c0.031,0.088-0.029-0.077-0.017-0.046l0.016,0.039l0.063,0.155c0.169,0.401,0.337,0.853,0.509,1.217l0.506,0.988l0.62,1.041
			c1.78,2.73,4.291,5.163,7.083,7.215c1.387,1.016,2.891,2.001,4.343,2.751c0.404,0.203,0.823,0.428,1.214,0.611l1.122,0.496
			c0.755,0.322,1.57,0.61,2.361,0.881c3.216,1.003,6.551,1.512,9.818,1.51c0.818-0.025,1.63-0.05,2.434-0.074
			c0.814-0.082,1.62-0.164,2.418-0.245c1.63-0.192,3.329-0.25,4.754-0.593c1.473-0.292,2.928-0.499,4.299-0.935
			c0.689-0.196,1.38-0.348,2.041-0.571c0.661-0.229,1.31-0.456,1.945-0.678c0.574-0.225,0.922-0.469,1.452-0.836
			c0.484-0.368,0.951-0.759,1.4-1.161c0.898-0.804,1.706-1.643,2.42-2.464c0.715-0.82,1.329-1.638,1.823-2.407
			c0.233-0.382,0.462-0.775,0.56-1.107l0.024-0.064c0.001,0.006,0.014-0.057,0.007,0.004l0.006-0.041l0.025-0.162l0.05-0.318
			c0.033-0.209,0.065-0.414,0.097-0.612c0.152-0.804,0.154-1.488,0.218-2.105c0.06-0.613,0.065-1.147,0.082-1.578
			c0.026-0.865,0.04-1.326,0.04-1.326s0.096,0.453,0.211,1.312c0.059,0.431,0.146,0.957,0.194,1.595
			c0.053,0.632,0.157,1.387,0.121,2.186c-0.002,0.202-0.003,0.409-0.004,0.622l-0.003,0.322l-0.001,0.165v0.041l-0.013,0.084
			l-0.018,0.097c-0.081,0.542-0.273,0.992-0.473,1.474c-0.41,0.947-0.976,1.873-1.615,2.837c-0.646,0.959-1.383,1.943-2.247,2.934
			c-0.426,0.5-0.912,0.98-1.434,1.466c-0.504,0.448-1.243,1.027-1.937,1.357c-2.53,1.248-5.454,2.341-8.694,3.088
			c-0.402,0.104-0.808,0.209-1.215,0.313c-0.408,0.104-0.796,0.146-1.199,0.222c-0.8,0.137-1.608,0.274-2.427,0.414
			c-0.409,0.07-0.821,0.141-1.234,0.211l-0.623,0.097l-0.313,0.05l-0.156,0.024l-0.244,0.021c-0.888,0.065-1.783,0.131-2.687,0.196
			c-3.621,0.132-7.446-0.192-11.161-1.307c-0.927-0.294-1.836-0.594-2.764-0.966l-1.392-0.592c-0.437-0.202-0.825-0.409-1.241-0.613
			c-1.808-0.924-3.395-1.956-4.98-3.102c-3.104-2.319-5.982-5.081-8.08-8.487l-0.74-1.303c-0.231-0.471-0.46-0.956-0.675-1.437
			c-0.188-0.457-0.314-0.853-0.474-1.28l-0.057-0.157l-0.015-0.039c0.002,0.003-0.065-0.187-0.042-0.126l-0.023-0.085l-0.092-0.343
			l-0.183-0.683c-0.531-1.808-0.837-3.635-1.092-5.417c-0.513-3.581-0.396-7.003-0.309-10.209c0.125-3.198,0.4-6.217,0.688-8.958
			c0.245-2.703,0.57-5.396,1.341-7.611c0.728-2.237,1.92-4.036,3.225-5.134c1.307-1.123,2.659-1.451,3.514-1.568
			C405.127,229.853,405.586,229.963,405.586,229.963z"/>
	</g>
	<g>
		<path fill="#706F6F" d="M322.457,220.972c0,0-16.04-12.4-18.958-7.293c-2.919,5.105,1.457,20.418,3.645,25.523
			c2.187,5.103-16.771-0.729-21.146-7.292c-4.375-6.563-5.832-25.522,0-29.897c5.833-4.375,10.009-13.126,16.307-10.939
			C308.603,193.261,320.27,207.117,322.457,220.972z"/>
		<path fill="#706F6F" d="M322.457,220.972c0,0-2.107-1.446-5.971-3.612c-1.932-1.058-4.325-2.343-7.152-3.308
			c-0.705-0.236-1.441-0.43-2.176-0.536c-0.726-0.107-1.484-0.106-1.999,0.105c-0.266,0.095-0.425,0.249-0.564,0.428
			c-0.029,0.053-0.061,0.103-0.095,0.15l-0.027,0.036c0.099-0.192,0.019-0.031,0.037-0.063l-0.016,0.039l-0.062,0.157L304.184,215
			c-0.108,0.227-0.106,0.392-0.141,0.572l-0.098,0.532c-0.061,0.374-0.069,0.842-0.109,1.262c-0.06,1.764,0.15,3.674,0.479,5.633
			c0.329,1.962,0.78,3.994,1.337,6.057c0.556,2.063,1.206,4.17,1.967,6.269c0.378,1.049,0.794,2.093,1.223,3.094l0.104,0.279
			l0.036,0.104l0.07,0.208c0.014,0.014,0.07,0.251,0.098,0.464c0.029,0.21,0.043,0.426,0.042,0.635
			c-0.043,0.419-0.138,0.875-0.367,1.249c-0.116,0.191-0.25,0.376-0.395,0.545c-0.142,0.155-0.281,0.251-0.432,0.369
			c-0.325,0.251-0.569,0.335-0.839,0.449c-0.29,0.126-0.478,0.143-0.719,0.206c-0.242,0.061-0.43,0.071-0.635,0.095
			c-0.206,0.024-0.407,0.041-0.586,0.039c-1.492,0.026-2.772-0.199-4.049-0.474c-1.27-0.282-2.506-0.639-3.727-1.053
			c-2.439-0.833-4.826-1.874-7.128-3.223c-1.152-0.673-2.283-1.427-3.374-2.318c-0.544-0.451-1.078-0.935-1.589-1.48
			c-0.493-0.537-1.034-1.204-1.4-1.83c-1.546-2.574-2.284-5.162-2.9-7.781c-0.568-2.621-0.884-5.26-0.997-7.909
			c-0.114-2.648-0.009-5.308,0.43-7.974c0.487-2.635,1.158-5.429,3.412-7.847c0.132-0.151,0.298-0.287,0.459-0.424l0.418-0.347
			l0.721-0.564c0.507-0.382,0.828-0.718,1.253-1.075c0.832-0.788,1.647-1.602,2.461-2.463c1.638-1.692,3.229-3.517,5.283-5.048
			c1.029-0.752,2.168-1.477,3.545-1.856c1.336-0.399,2.887-0.455,4.186-0.024l0.496,0.138l0.062,0.018
			c0.069,0.025-0.068-0.031,0.171,0.061l0.092,0.043l0.184,0.086l0.734,0.344c0.496,0.24,1.073,0.63,1.589,0.945
			c0.961,0.682,1.829,1.35,2.611,2.098c1.589,1.458,2.953,2.988,4.169,4.521c2.447,3.054,4.292,6.117,5.713,8.924
			c0.729,1.394,1.301,2.754,1.827,4.005c0.451,1.286,0.922,2.437,1.208,3.529c0.158,0.539,0.308,1.049,0.448,1.528
			c0.118,0.486,0.204,0.949,0.297,1.374c0.187,0.851,0.334,1.573,0.393,2.172C322.373,220.34,322.457,220.972,322.457,220.972z
			 M322.457,220.972c0,0-0.165-0.614-0.473-1.766c-0.134-0.579-0.374-1.272-0.665-2.082c-0.143-0.404-0.297-0.838-0.461-1.301
			c-0.188-0.454-0.388-0.937-0.6-1.446c-0.39-1.029-0.975-2.107-1.542-3.299c-0.654-1.154-1.299-2.428-2.132-3.709
			c-1.618-2.583-3.659-5.364-6.16-8.11c-1.251-1.369-2.639-2.717-4.169-3.933c-0.753-0.618-1.57-1.192-2.364-1.698
			c-0.407-0.206-0.709-0.436-1.192-0.644l-0.75-0.307l-0.188-0.077l-0.094-0.039c0.207,0.082,0.036,0.019,0.072,0.036l-0.037-0.007
			l-0.298-0.058c-0.794-0.225-1.557-0.126-2.34,0.139c-0.784,0.246-1.581,0.791-2.361,1.427c-1.559,1.307-3.068,3.028-4.668,4.821
			c-0.796,0.895-1.651,1.807-2.55,2.709c-0.482,0.441-1.014,0.975-1.471,1.339l-0.703,0.585l-0.098,0.079l-0.025,0.025l-0.052,0.049
			l-0.104,0.096c-0.07,0.063-0.145,0.118-0.208,0.205c-1.113,1.226-1.818,3.464-2.17,5.701c-0.682,4.564-0.357,9.575,0.668,14.252
			c0.501,2.32,1.22,4.681,2.283,6.462c0.961,1.632,2.886,3.061,4.862,4.259c2.01,1.186,4.163,2.201,6.336,3.025
			c1.088,0.406,2.187,0.758,3.271,1.034c1.074,0.274,2.179,0.471,3.072,0.478c0.119,0.008,0.214,0,0.304-0.009
			c0.09-0.007,0.201-0.006,0.246-0.025c0.045-0.014,0.16-0.017,0.136-0.026c0.002-0.001,0.045-0.004-0.056,0.045
			c-0.038,0.025-0.041,0.051-0.087,0.096c-0.06,0.048-0.109,0.113-0.14,0.185c-0.061,0.135-0.13,0.274-0.112,0.416
			c-0.012,0.063-0.008,0.132,0.011,0.196c0.018,0.066,0.073,0.155,0.028,0.033l-0.064-0.21l-0.032-0.105l-0.016-0.052
			c0.125,0.34,0.023,0.063,0.045,0.125c-0.467-1.16-0.85-2.292-1.191-3.419c-0.69-2.251-1.254-4.466-1.726-6.646
			c-0.936-4.356-1.521-8.576-1.146-12.65c0.084-0.523,0.122-1.002,0.247-1.542c0.153-0.527,0.286-1.154,0.484-1.561l0.292-0.614
			l0.072-0.152l0.088-0.179l0.072-0.101l0.298-0.392c0.432-0.498,1.031-0.855,1.599-1.004c1.152-0.315,2.139-0.147,3.016,0.046
			c0.88,0.208,1.673,0.5,2.411,0.822c2.95,1.288,5.183,2.86,7.024,4.134c1.833,1.286,3.184,2.409,4.111,3.162
			C321.971,220.56,322.457,220.972,322.457,220.972z"/>
	</g>
	<g>
		<path fill="#C6C6C6" d="M322.457,220.972c0,0-0.625-1.732-1.856-4.679c-0.621-1.471-1.405-3.241-2.364-5.227
			c-0.978-1.977-2.138-4.174-3.573-6.415c-0.723-1.115-1.531-2.231-2.433-3.292c-0.89-1.066-1.893-2.077-3.006-2.882
			c-0.321-0.237-0.644-0.475-0.969-0.715c-0.331-0.258-0.664-0.518-0.999-0.779c-0.654-0.523-1.301-1.069-1.934-1.624
			c-1.246-1.092-2.495-2.344-3.599-3.032c-0.562-0.337-0.934-0.44-1.278-0.395c-0.35,0.015-0.896,0.252-1.479,0.625
			c-1.188,0.788-2.418,1.945-3.657,3.202c-1.281,1.295-2.664,2.592-4.045,3.804c-1.379,1.223-2.789,2.405-3.991,3.572
			c-1.212,1.178-2.079,2.295-2.5,3.615c-0.455,1.343-0.54,2.87-0.493,4.652c0.037,3.635-0.054,7.155,0.006,10.546
			c0.084,3.369,0.114,6.675,0.634,9.53c0.132,0.701,0.306,1.374,0.525,1.894c0.052,0.135,0.113,0.234,0.165,0.342l0.079,0.126
			c-0.01-0.009,0.05,0.066-0.019-0.012l0.045,0.055l0.09,0.108c0.142,0.176,0.178,0.195,0.262,0.299
			c0.112,0.101,0.207,0.208,0.331,0.307c0.951,0.818,2.167,1.505,3.336,2.103c2.376,1.183,4.701,2.113,6.768,2.926
			c1.018,0.395,2.057,0.792,2.908,1.178c0.877,0.369,1.7,0.682,2.448,0.944c1.499,0.517,2.7,0.869,3.538,0.993
			c0.839,0.146,1.292,0.013,1.292,0.013c0,0-0.425,0.231-1.308,0.234c-0.873,0.011-2.154-0.097-3.745-0.411
			c-0.796-0.153-1.673-0.345-2.624-0.588c-0.966-0.261-1.909-0.512-3.016-0.788c-2.17-0.56-4.636-1.191-7.276-2.232
			c-1.322-0.532-2.695-1.11-4.1-2.087c-0.176-0.117-0.351-0.267-0.527-0.402c-0.179-0.159-0.43-0.383-0.529-0.496l-0.098-0.102
			l-0.049-0.051l-0.103-0.125l-0.251-0.334c-0.14-0.217-0.282-0.442-0.387-0.655c-0.437-0.86-0.692-1.688-0.913-2.515
			c-0.817-3.294-1.107-6.644-1.305-10.116c-0.187-3.461-0.303-7.027-0.407-10.589c-0.073-1.799-0.095-3.969,0.607-6.102
			c0.339-1.07,0.876-2.104,1.506-3.006c0.632-0.905,1.344-1.672,2.047-2.373c1.42-1.384,2.838-2.527,4.188-3.716
			c1.358-1.188,2.649-2.346,3.927-3.582c1.319-1.264,2.696-2.592,4.509-3.673c0.921-0.518,2.02-1.059,3.424-1.107
			c1.413-0.076,2.724,0.53,3.581,1.124c0.902,0.609,1.556,1.246,2.198,1.85c0.604,0.593,1.202,1.18,1.793,1.761
			c0.571,0.574,1.136,1.121,1.708,1.646c0.284,0.255,0.566,0.508,0.847,0.76c0.299,0.254,0.596,0.507,0.891,0.758
			c2.701,2.305,4.324,5.014,5.625,7.521c1.3,2.516,2.223,4.908,2.935,7.053c0.733,2.137,1.237,4.035,1.621,5.601
			C322.222,219.145,322.457,220.972,322.457,220.972z"/>
	</g>
	<g>
		<g>
			<path fill="#706F6F" d="M547.263,283.939c0,0,4.036-10.035,2.374-11.862c-1.661-1.827-6.648,0.91-8.31,2.281
				c-1.662,1.367,0.236-10.493,2.373-13.232c2.139-2.738,8.31-3.65,9.735,0c1.425,3.649,4.273,6.262,3.562,10.203
				C556.284,275.271,551.773,282.57,547.263,283.939z"/>
			<path fill="#706F6F" d="M547.263,283.939c0,0,0.362-1.113,0.921-3.074c0.28-0.979,0.603-2.174,0.89-3.553
				c0.142-0.689,0.273-1.426,0.358-2.197c0.072-0.754,0.146-1.609-0.043-2.278c-0.411-1.21-2.47-0.685-4.15,0.073
				c-0.866,0.393-1.731,0.895-2.552,1.462c-0.206,0.141-0.403,0.292-0.594,0.441l-0.139,0.114l-0.07,0.057l-0.147,0.104
				l-0.042,0.027l-0.084,0.054c-0.111,0.062-0.339,0.133-0.52,0.132c-0.193,0.013-0.337-0.049-0.498-0.127
				c-0.075-0.04-0.151-0.09-0.208-0.138l-0.104-0.115c-0.064-0.077-0.132-0.173-0.172-0.249l-0.074-0.176
				c-0.053-0.13-0.073-0.222-0.093-0.313c-0.05-0.198-0.058-0.346-0.081-0.516c-0.025-0.313-0.033-0.614-0.029-0.906
				c0.072-2.315,0.443-4.567,0.997-6.861c0.286-1.144,0.612-2.288,1.069-3.437c0.235-0.576,0.485-1.15,0.894-1.747l0.079-0.112
				l0.039-0.057l0.084-0.102l0.146-0.162l0.299-0.328c0.273-0.233,0.569-0.525,0.845-0.69c1.115-0.757,2.357-1.205,3.641-1.412
				c1.282-0.185,2.646-0.125,3.938,0.423c0.32,0.131,0.626,0.332,0.923,0.522c0.271,0.242,0.576,0.445,0.784,0.749l0.33,0.434
				l0.243,0.479l0.115,0.24l0.029,0.061c0,0,0.018,0.042,0.005,0.009l0.01,0.024l0.04,0.098l0.157,0.393
				c0.395,0.96,0.927,1.918,1.45,2.881c0.519,0.968,1.067,1.949,1.425,3.035c0.368,1.075,0.551,2.237,0.454,3.347
				c-0.045,0.535-0.164,1.126-0.293,1.57c-0.143,0.479-0.308,1.012-0.503,1.445c-0.366,0.912-0.811,1.736-1.25,2.518
				c-1.806,3.096-3.93,5.252-5.616,6.455c-0.406,0.32-0.829,0.528-1.168,0.737c-0.369,0.165-0.674,0.317-0.931,0.416
				C547.543,283.852,547.263,283.939,547.263,283.939z M547.263,283.939c0,0,0.265-0.121,0.761-0.349
				c0.239-0.13,0.52-0.317,0.853-0.521c0.303-0.253,0.686-0.489,1.052-0.837c1.537-1.3,3.32-3.629,4.854-6.688
				c0.366-0.771,0.733-1.583,1.012-2.446c0.156-0.441,0.26-0.832,0.375-1.291c0.114-0.499,0.165-0.885,0.188-1.351
				c0.085-1.807-0.813-3.575-1.923-5.44c-0.547-0.943-1.134-1.913-1.63-3.022l-0.17-0.388l-0.042-0.097l-0.029-0.063l-0.02-0.034
				l-0.076-0.137l-0.145-0.278l-0.199-0.235c-0.255-0.322-0.615-0.559-1.023-0.739c-1.688-0.697-4.076-0.257-5.688,0.862
				c-0.229,0.134-0.337,0.272-0.522,0.397l-0.294,0.315l-0.147,0.161l-0.019,0.021c0.086-0.103,0.018-0.019,0.033-0.037
				l-0.023,0.033l-0.047,0.066c-0.256,0.361-0.492,0.855-0.697,1.353c-0.413,1.006-0.737,2.09-1.018,3.171
				c-0.536,2.163-1.001,4.38-1.111,6.438c-0.011,0.253-0.01,0.498,0.001,0.726c0.012,0.099,0.016,0.223,0.034,0.286
				c0.006,0.042,0.014,0.082,0.016,0.076l-0.002,0.013c-0.007-0.019-0.03-0.063-0.056-0.085c-0.014-0.014-0.028-0.025-0.044-0.034
				c-0.029-0.03-0.073-0.067-0.119-0.092c-0.1-0.056-0.188-0.059-0.312-0.073c-0.115-0.011-0.274,0.057-0.322,0.102l0.086-0.052
				l0.043-0.026c0.105-0.072-0.119,0.086-0.088,0.063l0.022-0.017l0.087-0.066l0.176-0.132c0.236-0.168,0.468-0.326,0.704-0.472
				c0.941-0.584,1.892-1.073,2.871-1.462c0.981-0.381,1.981-0.694,3.061-0.735c0.558,0.011,1.071,0.015,1.7,0.357
				c0.161,0.082,0.298,0.169,0.36,0.24l0.126,0.112l0.063,0.056l0.031,0.028c-0.047-0.046,0.081,0.076,0.075,0.074l0.019,0.025
				c0.221,0.281,0.327,0.574,0.383,0.835c0.196,1.048,0.03,1.896-0.114,2.71c-0.167,0.805-0.374,1.544-0.585,2.232
				c-0.425,1.373-0.862,2.54-1.235,3.494C547.786,282.893,547.263,283.939,547.263,283.939z"/>
		</g>
		<g>
			<path fill="#C6C6C6" d="M547.263,283.939c0,0,0.726-0.452,1.877-1.364c1.127-0.927,2.741-2.313,4.064-4.345
				c0.318-0.512,0.628-1.053,0.878-1.637c0.249-0.629,0.506-1.278,0.771-1.946c0.528-1.386,1.419-2.786,1.583-4.007
				c0.139-1.191-0.535-2.635-1.267-4.067c-0.782-1.49-1.509-3.078-2.18-4.583c-0.342-0.734-0.71-1.468-1.117-1.883
				c-0.417-0.404-0.722-0.481-1.601-0.429c-1.691,0.03-3.305-0.011-4.777,0.188c-0.718,0.101-1.436,0.266-1.851,0.542
				c-0.1,0.067-0.181,0.135-0.229,0.202c-0.018,0.026-0.198,0.313-0.223,0.399c-0.114,0.235-0.253,0.593-0.357,0.913
				c-0.432,1.324-0.763,2.658-1.045,3.884c-0.538,2.47-1.067,4.533-1.339,5.971c-0.134,0.725-0.236,1.296-0.268,1.689
				c-0.04,0.393-0.011,0.604-0.011,0.604s-0.064-0.205-0.092-0.605c-0.028-0.399-0.043-0.988-0.004-1.732
				c0.04-0.745,0.097-1.647,0.229-2.681c0.127-1.013,0.225-2.18,0.406-3.443c0.183-1.266,0.361-2.637,0.75-4.101
				c0.102-0.376,0.196-0.719,0.381-1.167c0.107-0.262,0.127-0.296,0.295-0.596c0.158-0.25,0.36-0.444,0.564-0.604
				c0.837-0.619,1.693-0.799,2.525-0.96c1.664-0.286,3.34-0.308,4.972-0.396c0.356-0.02,0.961-0.061,1.519,0.085
				c0.575,0.14,1.134,0.479,1.518,0.874c0.771,0.801,1.135,1.631,1.526,2.409c0.746,1.564,1.364,3.08,2.124,4.542
				c0.372,0.77,0.76,1.538,1.037,2.396c0.276,0.843,0.457,1.826,0.304,2.799c-0.164,0.967-0.559,1.744-0.902,2.437
				c-0.343,0.672-0.679,1.329-1.005,1.969c-0.318,0.63-0.573,1.267-0.927,1.931c-0.343,0.646-0.733,1.231-1.154,1.749
				c-1.69,2.07-3.546,3.245-4.846,3.975C548.076,283.674,547.263,283.939,547.263,283.939z"/>
		</g>
	</g>
	<g>
		<g>
			<path fill="#706F6F" d="M268.472,349.21c0,0,1.641-3.808,0.965-4.502c-0.675-0.692-2.698,0.347-3.373,0.868
				c-0.675,0.516,0.096-3.982,0.963-5.022c0.868-1.039,3.374-1.385,3.95,0c0.578,1.386,1.735,2.375,1.446,3.872
				C272.135,345.92,270.305,348.69,268.472,349.21z"/>
			<path fill="#706F6F" d="M268.472,349.21c0,0,0.151-0.43,0.384-1.188c0.115-0.378,0.25-0.84,0.369-1.374
				c0.057-0.267,0.115-0.553,0.143-0.851c0.024-0.285,0.062-0.634-0.039-0.854c-0.071-0.165-0.384-0.264-0.698-0.209
				c-0.323,0.039-0.668,0.154-1.008,0.303c-0.341,0.148-0.683,0.336-1.008,0.549l-0.238,0.165l-0.112,0.085
				c-0.126,0.076-0.032,0.028-0.148,0.081c-0.137,0.049-0.271,0.029-0.376-0.041c-0.172-0.133-0.186-0.244-0.214-0.319
				c-0.021-0.078-0.032-0.146-0.039-0.209c-0.014-0.129-0.016-0.244-0.015-0.36c0.031-0.906,0.201-1.776,0.427-2.667
				c0.118-0.444,0.252-0.888,0.446-1.332c0.101-0.223,0.208-0.445,0.388-0.676c0.125-0.128,0.145-0.168,0.275-0.274
				c0.112-0.095,0.226-0.183,0.334-0.245c0.89-0.509,1.929-0.692,2.935-0.34c0.249,0.091,0.486,0.245,0.682,0.444
				c0.197,0.2,0.325,0.481,0.405,0.657c0.183,0.418,0.374,0.729,0.596,1.111c0.439,0.706,0.876,1.577,0.771,2.468l-0.036,0.32
				c-0.032,0.142-0.06,0.196-0.089,0.298c-0.061,0.181-0.104,0.356-0.198,0.535c-0.158,0.362-0.329,0.691-0.519,0.98
				c-0.357,0.599-0.769,1.089-1.161,1.492c-0.182,0.214-0.397,0.373-0.579,0.533c-0.178,0.166-0.358,0.298-0.536,0.397
				c-0.172,0.106-0.32,0.207-0.459,0.277c-0.147,0.053-0.273,0.097-0.375,0.133C268.579,349.172,268.472,349.21,268.472,349.21z
				 M268.472,349.21c0,0,0.102-0.052,0.292-0.148c0.093-0.047,0.209-0.105,0.345-0.175c0.121-0.093,0.26-0.199,0.417-0.318
				c0.161-0.111,0.322-0.255,0.479-0.434c0.161-0.173,0.351-0.341,0.507-0.566c0.338-0.426,0.686-0.934,0.999-1.519
				c0.168-0.292,0.304-0.601,0.424-0.919c0.074-0.149,0.11-0.341,0.159-0.521c0.063-0.193,0.069-0.324,0.073-0.512
				c0.043-0.697-0.335-1.368-0.784-2.087c-0.214-0.348-0.476-0.775-0.649-1.158c-0.106-0.219-0.168-0.342-0.284-0.46
				c-0.117-0.111-0.26-0.206-0.432-0.265c-0.688-0.244-1.612-0.085-2.269,0.324c-0.09,0.049-0.155,0.101-0.219,0.148
				c-0.055,0.026-0.174,0.17-0.211,0.198c-0.104,0.125-0.205,0.309-0.292,0.496c-0.175,0.381-0.312,0.799-0.431,1.216
				c-0.231,0.833-0.411,1.697-0.452,2.492c-0.003,0.097-0.003,0.192,0.005,0.274c-0.02,0.068,0.087,0.192-0.047,0.048
				c-0.06-0.038-0.144-0.055-0.228-0.02c-0.066,0.041,0.07-0.043-0.011,0.011l0.139-0.099l0.28-0.171
				c0.373-0.214,0.748-0.391,1.13-0.532c0.383-0.14,0.771-0.25,1.18-0.274c0.39-0.023,0.914,0.044,1.139,0.537
				c0.139,0.428,0.052,0.756,0.004,1.076c-0.061,0.316-0.149,0.603-0.233,0.869c-0.172,0.533-0.353,0.982-0.504,1.352
				C268.686,348.809,268.472,349.21,268.472,349.21z"/>
		</g>
		<g>
			<path fill="#C6C6C6" d="M268.472,349.21c0,0,0.285-0.171,0.748-0.505c0.455-0.34,1.09-0.868,1.652-1.623
				c0.292-0.385,0.456-0.819,0.679-1.368c0.211-0.537,0.582-1.075,0.655-1.541c0.066-0.446-0.213-0.999-0.514-1.55
				c-0.315-0.563-0.62-1.186-0.894-1.755c-0.14-0.281-0.293-0.551-0.456-0.7c-0.165-0.141-0.315-0.167-0.655-0.15
				c-0.657,0.011-1.284-0.004-1.864,0.061c-0.286,0.033-0.567,0.084-0.767,0.178c-0.109,0.059-0.148,0.071-0.208,0.176
				c-0.069,0.113-0.104,0.202-0.16,0.336c-0.189,0.503-0.318,1.021-0.433,1.496c-0.216,0.956-0.446,1.754-0.549,2.313
				c-0.049,0.281-0.097,0.503-0.105,0.655c-0.016,0.152-0.005,0.235-0.005,0.235c0,0-0.076-0.328-0.034-0.909
				c0.044-0.582,0.137-1.396,0.277-2.377c0.081-0.491,0.167-1.021,0.331-1.591c0.041-0.131,0.103-0.313,0.177-0.452
				c0.066-0.159,0.262-0.346,0.415-0.422c0.327-0.185,0.651-0.251,0.973-0.302c0.642-0.096,1.292-0.107,1.926-0.14
				c0.297-0.034,0.849,0.005,1.18,0.325c0.322,0.296,0.482,0.621,0.643,0.919c0.31,0.607,0.559,1.177,0.873,1.745
				c0.289,0.57,0.674,1.22,0.547,2.023c-0.184,0.751-0.554,1.195-0.791,1.689c-0.233,0.481-0.517,1.029-0.865,1.402
				c-0.68,0.785-1.432,1.195-1.939,1.471C268.792,349.117,268.472,349.21,268.472,349.21z"/>
		</g>
	</g>
	<g>
		<g>
			<path fill="#706F6F" d="M594,355.574c0,0-9.891,4.381-9.974,6.852c-0.082,2.466,5.4,3.98,7.549,4.155
				c2.146,0.181-7.487,7.358-10.927,7.833c-3.444,0.472-8.502-3.178-6.979-6.787c1.522-3.61,1.303-7.469,4.562-9.797
				C581.488,355.499,589.811,353.412,594,355.574z"/>
			<path fill="#706F6F" d="M594,355.574c0,0-1.036,0.545-2.803,1.562c-0.884,0.507-1.948,1.139-3.116,1.928
				c-0.582,0.396-1.189,0.832-1.788,1.325c-0.577,0.49-1.228,1.052-1.559,1.664c-0.551,1.154,1.293,2.211,3.025,2.84
				c0.895,0.322,1.865,0.565,2.849,0.73c0.245,0.043,0.492,0.072,0.733,0.098l0.18,0.016l0.09,0.008l0.179,0.028l0.049,0.01
				l0.099,0.021c0.11,0.028,0.331,0.138,0.459,0.263c0.147,0.125,0.21,0.268,0.271,0.436c0.027,0.082,0.045,0.167,0.056,0.246
				l-0.006,0.154c-0.008,0.102-0.025,0.214-0.05,0.302l-0.069,0.177c-0.052,0.13-0.103,0.212-0.151,0.29
				c-0.102,0.177-0.199,0.289-0.301,0.427c-0.2,0.243-0.404,0.464-0.611,0.671c-1.666,1.61-3.502,2.966-5.499,4.224
				c-1.002,0.621-2.033,1.214-3.162,1.719c-0.57,0.249-1.149,0.486-1.857,0.631l-0.135,0.025l-0.067,0.012l-0.132,0.016
				l-0.218,0.015l-0.442,0.026c-0.359-0.023-0.774-0.021-1.088-0.094c-1.327-0.234-2.53-0.779-3.595-1.525
				c-1.049-0.761-1.983-1.754-2.528-3.047c-0.14-0.317-0.218-0.675-0.299-1.019c-0.024-0.361-0.103-0.721-0.04-1.084l0.065-0.54
				l0.159-0.513l0.085-0.254l0.021-0.063c0-0.001,0.016-0.043,0.002-0.01l0.01-0.024l0.041-0.099l0.16-0.391
				c0.387-0.964,0.672-2.021,0.969-3.077c0.304-1.055,0.594-2.142,1.095-3.169c0.486-1.026,1.166-1.988,2.009-2.716
				c0.406-0.353,0.902-0.691,1.304-0.922c0.437-0.243,0.927-0.511,1.368-0.686c0.898-0.398,1.792-0.681,2.651-0.935
				c3.453-0.961,6.479-1.025,8.526-0.712c0.516,0.053,0.963,0.199,1.353,0.285c0.379,0.139,0.703,0.242,0.957,0.351
				C593.738,355.441,594,355.574,594,355.574z M594,355.574c0,0-0.274-0.098-0.789-0.28c-0.261-0.074-0.593-0.134-0.974-0.221
				c-0.394-0.03-0.832-0.127-1.338-0.134c-2.008-0.139-4.91,0.286-8.143,1.41c-0.8,0.298-1.63,0.624-2.431,1.049
				c-0.42,0.208-0.766,0.416-1.168,0.665c-0.43,0.278-0.736,0.521-1.076,0.838c-1.321,1.236-1.911,3.129-2.416,5.241
				c-0.265,1.057-0.521,2.162-0.938,3.303l-0.148,0.396l-0.037,0.099l-0.023,0.065l-0.01,0.038l-0.041,0.151l-0.09,0.301
				l-0.021,0.308c-0.042,0.408,0.051,0.829,0.219,1.243c0.724,1.677,2.743,3.025,4.68,3.347c0.257,0.063,0.432,0.04,0.651,0.079
				l0.432-0.021l0.218-0.013l0.027-0.001c-0.135,0.013-0.025,0.001-0.051,0.003l0.04-0.008l0.08-0.015
				c0.437-0.081,0.95-0.271,1.443-0.484c0.998-0.434,1.985-0.984,2.94-1.564c1.892-1.177,3.771-2.442,5.285-3.841
				c0.185-0.174,0.354-0.35,0.505-0.521c0.061-0.079,0.144-0.171,0.175-0.229c0.025-0.035,0.046-0.068,0.041-0.065l0.011-0.008
				c-0.01,0.022-0.022,0.067-0.02,0.103c0.001,0.019,0.003,0.037,0.009,0.055c-0.001,0.048,0.006,0.101,0.021,0.151
				c0.035,0.107,0.095,0.173,0.175,0.269c0.073,0.087,0.243,0.148,0.296,0.147l-0.098-0.023l-0.049-0.011
				c-0.127-0.021,0.146,0.022,0.107,0.017l-0.027-0.003l-0.109-0.014l-0.218-0.028c-0.286-0.044-0.563-0.092-0.834-0.152
				c-1.082-0.237-2.104-0.549-3.078-0.953c-0.968-0.411-1.904-0.884-2.707-1.606c-0.392-0.396-0.758-0.757-0.969-1.442
				c-0.06-0.172-0.095-0.328-0.091-0.422l-0.012-0.169l-0.006-0.083l-0.003-0.042c0.001,0.066-0.005-0.113-0.002-0.107l0.005-0.032
				c0.038-0.354,0.167-0.637,0.308-0.863c0.591-0.888,1.302-1.38,1.973-1.862c0.681-0.461,1.344-0.847,1.975-1.193
				c1.263-0.689,2.39-1.22,3.322-1.644C592.895,355.96,594,355.574,594,355.574z"/>
		</g>
		<g>
			<path fill="#C6C6C6" d="M594,355.574c0,0-0.835-0.182-2.297-0.33c-1.454-0.121-3.577-0.252-5.942,0.282
				c-0.585,0.145-1.185,0.316-1.771,0.561c-0.616,0.277-1.253,0.563-1.908,0.858c-1.345,0.625-2.959,1.008-3.929,1.769
				c-0.93,0.758-1.453,2.263-1.929,3.799c-0.478,1.613-1.063,3.259-1.631,4.805c-0.268,0.765-0.515,1.547-0.513,2.129
				c0.018,0.581,0.183,0.849,0.849,1.424c1.233,1.157,2.361,2.312,3.556,3.195c0.585,0.429,1.215,0.811,1.705,0.901
				c0.118,0.021,0.224,0.029,0.306,0.015c0.031-0.006,0.36-0.086,0.438-0.131c0.246-0.089,0.595-0.248,0.893-0.405
				c1.232-0.648,2.4-1.374,3.456-2.056c2.108-1.396,3.927-2.505,5.123-3.347c0.601-0.426,1.073-0.764,1.369-1.024
				c0.303-0.254,0.43-0.426,0.43-0.426s-0.097,0.191-0.356,0.498c-0.258,0.307-0.658,0.738-1.205,1.245
				c-0.548,0.506-1.218,1.113-2.033,1.762c-0.797,0.637-1.68,1.406-2.691,2.185c-1.013,0.78-2.097,1.639-3.396,2.417
				c-0.335,0.199-0.643,0.379-1.087,0.57c-0.259,0.113-0.297,0.124-0.627,0.222c-0.287,0.069-0.566,0.067-0.825,0.041
				c-1.031-0.14-1.771-0.607-2.479-1.072c-1.394-0.955-2.609-2.107-3.84-3.183c-0.271-0.235-0.731-0.628-1.029-1.12
				c-0.314-0.501-0.479-1.133-0.479-1.685c0.005-1.112,0.323-1.96,0.585-2.791c0.556-1.643,1.169-3.16,1.644-4.737
				c0.27-0.811,0.528-1.632,0.927-2.44c0.39-0.797,0.945-1.627,1.734-2.218c0.791-0.579,1.616-0.86,2.345-1.117
				c0.714-0.243,1.413-0.479,2.093-0.711c0.667-0.229,1.295-0.509,2.011-0.738c0.696-0.225,1.384-0.371,2.046-0.449
				c2.656-0.305,4.806,0.146,6.246,0.528C593.232,355.197,594,355.574,594,355.574z"/>
		</g>
	</g>
	<g>
		<path fill="#C6C6C6" d="M328.292,83.288c-1.362,1.229-2.5,2.677-3.598,4.137c-1.098,1.463-2.092,3.002-3.067,4.548
			c-1.911,3.119-3.668,6.329-5.292,9.606c-0.792,1.648-1.604,3.287-2.339,4.961c-0.749,1.66-1.516,3.334-2.141,5.033
			c-1.291,3.396-2.269,6.91-2.934,10.478c-0.676,3.569-1.036,7.189-1.235,10.829c-0.223,3.643-0.217,7.301-0.758,11.048
			c-0.15,0.937-0.346,1.879-0.648,2.814c-0.154,0.477-0.327,0.914-0.559,1.407c-0.095,0.195-0.215,0.415-0.358,0.651
			c-0.135,0.231-0.265,0.418-0.399,0.627c-1.09,1.586-2.308,2.989-3.562,4.365c-2.52,2.732-5.197,5.292-8.081,7.66
			c-1.454,1.175-2.938,2.313-4.649,3.273c-0.419,0.23-0.922,0.471-1.343,0.644l-1.266,0.537l-2.531,1.073l-10.122,4.296
			c-6.756,2.86-13.475,5.738-20.301,8.535l-2.572,1.033l-1.286,0.517l-0.666,0.264l-0.68,0.222l-5.315,1.525
			c-3.478,1.022-6.9,2.179-10.132,3.668c-3.199,1.496-6.305,3.334-8.439,5.853c-0.52,0.631-0.962,1.302-1.322,2
			c-0.122,0.288-0.396,0.842-0.486,1.158c-0.134,0.352-0.258,0.744-0.372,1.159c-0.464,1.626-0.699,3.375-0.844,5.131
			c-0.272,3.528-0.134,7.139,0.176,10.73c0.318,3.595,0.822,7.188,1.476,10.747c0.328,1.775,0.69,3.559,1.123,5.272
			c0.462,1.769,0.826,3.688,1.161,5.477c0.675,3.622,1.306,7.236,1.926,10.853c1.247,7.231,2.443,14.465,3.604,21.703
			c0.59,3.607,1.167,7.256,1.797,10.81l2.058,10.786l4.072,21.624c0.667,3.613,1.392,7.172,2.103,10.743l2.219,10.783l4.321,21.591
			l4.185,21.594l-0.045-0.166c1.564,4.554,3.167,9.11,4.859,13.61c0.424,1.125,0.856,2.245,1.303,3.354
			c0.446,1.097,0.908,2.234,1.414,3.199c1.253,2.317,1.84,4.729,2.387,7.136c0.51,2.418,0.848,4.87,0.911,7.366
			c0.029,1.248-0.024,2.509-0.207,3.777c-0.102,0.635-0.234,1.271-0.429,1.905c-0.108,0.315-0.21,0.633-0.355,0.943l-0.381,0.842
			c-2.026,4.378-3.898,8.805-5.856,13.231l-5.863,13.259c-1,2.193-1.975,4.43-3.116,6.587c-1.125,2.058-1.833,4.351-1.745,6.687
			c0.034,1.162,0.242,2.326,0.625,3.438c0.362,1.117,0.869,2.193,1.483,3.208c1.23,2.038,2.763,3.908,4.348,5.712
			c3.196,3.602,6.714,6.929,10.383,10.067c-3.774-3.015-7.405-6.224-10.743-9.739c-1.655-1.773-3.241-3.621-4.564-5.688
			c-0.661-1.034-1.22-2.143-1.632-3.313c-0.432-1.162-0.688-2.398-0.755-3.646c-0.16-2.511,0.55-5.016,1.684-7.21
			c1.064-2.143,1.966-4.361,2.914-6.587l5.525-13.394l2.782-6.693c0.946-2.229,1.881-4.477,2.868-6.676l0.354-0.814
			c0.108-0.237,0.186-0.498,0.271-0.754c0.151-0.524,0.258-1.074,0.339-1.633c0.145-1.125,0.179-2.285,0.133-3.451
			c-0.093-2.334-0.451-4.683-0.974-6.982c-0.548-2.28-1.183-4.609-2.276-6.531c-0.631-1.167-1.088-2.269-1.571-3.4
			c-0.474-1.125-0.928-2.251-1.373-3.38c-1.777-4.516-3.451-9.05-5.095-13.607l-0.026-0.071l-0.02-0.096l-4.476-21.531l-4.419-21.52
			l-2.268-10.747c-0.74-3.614-1.496-7.237-2.178-10.83l-4.177-21.581l-2.118-10.808c-0.668-3.661-1.254-7.252-1.866-10.876
			l-3.586-21.692c-0.601-3.612-1.212-7.224-1.862-10.812c-0.332-1.815-0.637-3.502-1.09-5.284c-0.455-1.843-0.812-3.656-1.141-5.487
			c-0.652-3.655-1.15-7.333-1.46-11.042c-0.3-3.709-0.431-7.452-0.121-11.236c0.167-1.891,0.425-3.795,0.974-5.695
			c0.132-0.469,0.283-0.95,0.48-1.454c0.196-0.557,0.343-0.821,0.589-1.371c0.481-0.932,1.062-1.791,1.712-2.571
			c2.665-3.083,6.083-4.997,9.489-6.587c3.438-1.562,6.989-2.736,10.546-3.764l5.263-1.479l0.627-0.202l0.612-0.242l1.267-0.502
			l2.535-1.004c6.773-2.684,13.585-5.456,20.372-8.213l10.189-4.141l2.547-1.034l1.274-0.517c0.429-0.171,0.754-0.323,1.144-0.525
			c1.503-0.81,2.965-1.88,4.375-2.986c2.819-2.238,5.495-4.715,7.986-7.332c1.237-1.31,2.446-2.669,3.456-4.09
			c0.115-0.175,0.249-0.363,0.347-0.526c0.099-0.153,0.204-0.333,0.313-0.548c0.161-0.334,0.337-0.746,0.469-1.141
			c0.274-0.804,0.468-1.658,0.622-2.528c0.571-3.508,0.613-7.207,0.944-10.871c0.294-3.672,0.755-7.354,1.536-10.973
			c0.771-3.621,1.856-7.17,3.258-10.594c0.687-1.727,1.49-3.367,2.292-5.027c0.783-1.662,1.643-3.288,2.481-4.922
			c1.72-3.247,3.554-6.438,5.595-9.494c1.033-1.519,2.084-3.027,3.238-4.457C325.693,85.881,326.886,84.469,328.292,83.288z"/>
	</g>
	<g>
		<path fill="#C6C6C6" d="M325.574,86.158c0,0,0.34-0.329,1.052-0.911c0.713-0.578,1.798-1.413,3.346-2.319
			c0.771-0.456,1.669-0.912,2.707-1.321c1.031-0.42,2.23-0.748,3.58-0.865c1.391-0.117,2.777,0.146,4.2,0.168
			c1.465,0.073,3.072,0.131,4.767,0.416c1.694,0.277,3.455,0.773,5.224,1.472c1.773,0.699,3.516,1.65,5.276,2.716
			c3.504,2.162,6.883,5.029,10.295,8.226c6.71,6.326,14.27,13.485,22.448,21.347c4.107,3.91,8.386,7.983,12.813,12.199
			c4.436,4.193,8.983,8.604,13.723,12.955c0.592,0.545,1.186,1.093,1.78,1.642c0.294,0.266,0.604,0.569,0.887,0.806l0.848,0.713
			c0.562,0.479,1.125,0.96,1.69,1.442c0.674,0.438,1.35,0.878,2.027,1.32c2.803,1.817,5.584,3.535,8.469,5.341
			c5.79,3.588,11.704,7.254,17.719,10.982c6.028,3.687,12.183,7.454,18.422,11.053l2.342,1.345c0.775,0.44,1.591,0.936,2.29,1.265
			l2.169,1.112l0.542,0.282l0.806,0.378l1.25,0.591c0.811,0.352,1.719,0.872,2.61,1.376c0.868,0.499,1.835,1.013,2.62,1.508
			c1.615,1.001,3.266,1.983,4.839,3.026c3.201,2.041,6.315,4.185,9.445,6.365l2.344,1.684c0.384,0.27,0.793,0.581,1.204,0.896
			l0.612,0.469l0.307,0.234l0.153,0.118c0.148,0.112-0.75-0.535-0.298-0.22l0.608,0.356c0.069,0.046,0.061,0.021,0.068,0.015
			l0.018-0.023l0.023-0.028c0.006-0.005,0.011-0.006,0.014-0.003c0.01,0.003-0.016,0.001,0.023,0.012l0.133,0.033l0.527,0.134
			c0.328,0.099,0.755,0.17,1.153,0.25c0.395,0.084,0.811,0.156,1.246,0.217c3.427,0.537,7.146,0.804,10.821,1.016
			c1.845,0.102,3.703,0.175,5.541,0.226l1.328,0.025l0.151,0.001c0.199-0.006-1.214,0.1-0.533,0.035
			c0.035-0.011,0.166-0.031,0.123-0.033c-0.101,0.005-0.202,0.019-0.302,0.041c-0.617,0.205-0.167,0.043-0.104-0.005
			c0.625-0.321,1.431-0.796,2.188-1.249c6.275-3.8,12.625-8.022,18.916-12.125c1.582-1.033,3.163-2.064,4.741-3.095l2.395-1.545
			c0.819-0.52,1.593-1.017,2.545-1.579l0.181-0.106l0.251-0.138l0.256-0.137l0.255-0.123c0.23-0.105,0.379-0.185,0.692-0.316
			l0.834-0.351l0.763-0.291c1.015-0.368,2.026-0.688,3.047-0.956c2.038-0.541,4.104-0.906,6.186-1.114
			c4.166-0.395,8.394-0.093,12.442,0.884c0.505,0.125,1.001,0.282,1.5,0.423l1.335,0.395l2.639,0.797l2.632,0.795
			c0.877,0.266,1.763,0.547,2.575,0.72l2.486,0.603c0.828,0.201,1.657,0.425,2.472,0.542c0.808,0.136,1.66,0.303,2.426,0.419
			l0.993,0.095l0.254,0.028l0.351,0.003c0.29,0.004,0.586,0.014,0.897,0.037c2.479,0.153,4.933,1.023,6.915,2.335
			c2.009,1.303,3.592,2.976,4.825,4.717c0.604,0.875,1.187,1.763,1.646,2.669l0.36,0.677l0.214,0.416l0.139,0.3l0.551,1.199
			c0.717,1.506,1.503,3.427,2.124,5.142c0.317,0.876,0.616,1.741,0.88,2.586l0.392,1.21c0.124,0.383,0.254,0.796,0.361,1.04
			l0.158,0.432c0.052,0.146,0.094,0.159,0.131,0.25c0.04,0.061,0.062,0.177,0.101,0.206c0.039,0.025,0.067,0.056,0.089,0.096
			l0.014,0.032c0.048,0.05-0.088-0.063,0.109,0.123l0.23,0.224c0.129,0.12,0.352,0.351,0.566,0.582
			c0.226,0.237,0.4,0.44,0.555,0.626c0.165,0.195,0.332,0.39,0.479,0.583c1.223,1.545,2.225,3.113,3.137,4.797
			c0.444,0.854,0.872,1.712,1.235,2.665c0.365,0.948,0.702,1.934,0.886,3.157c0.056,0.282,0.083,0.62,0.099,0.962l0.031,0.709
			l0.044,1.244c0.021,0.842,0.077,1.625,0.129,2.414c0.099,1.571,0.197,3.143,0.326,4.776c0.467,6.45,1.025,12.745,1.589,18.794
			c0.132,1.519,0.277,3.013,0.444,4.473c0.082,0.711,0.154,1.512,0.242,2.143l0.13,0.86l0.057,0.432l0.013,0.108
			c0.021,0.086-0.027-0.04,0.05,0.221l0.066,0.269c0.229,0.996,0.323,1.636,0.459,2.396c0.121,0.729,0.241,1.453,0.361,2.174
			c0.229,1.435,0.455,2.854,0.679,4.26c1.788,11.214,3.285,21.502,4.856,30.549c0.398,2.256,0.802,4.44,1.258,6.495
			c0.12,0.503,0.233,1.021,0.367,1.484c0.134,0.513,0.264,0.881,0.37,1.088c0.555,0.882,1.099,1.747,1.632,2.595
			c2.117,3.341,4.099,6.437,6.25,8.748c0.551,0.594,1.063,1.026,1.672,1.372c0.686,0.382,1.316,0.672,1.994,0.993
			c1.337,0.616,2.59,1.194,3.756,1.732c2.341,1.076,4.324,2.023,5.897,2.861c1.577,0.831,2.733,1.578,3.456,2.153
			c0.341,0.315,0.614,0.533,0.736,0.741c0.14,0.187,0.21,0.281,0.21,0.281s-0.079-0.088-0.236-0.261
			c-0.135-0.189-0.431-0.381-0.789-0.655c-0.763-0.5-1.971-1.11-3.594-1.806c-1.624-0.695-3.664-1.467-6.081-2.339
			c-1.211-0.44-2.514-0.914-3.902-1.419c-0.676-0.262-1.449-0.557-2.157-0.888c-0.785-0.363-1.56-0.936-2.172-1.517
			c-2.543-2.371-4.741-5.35-7.137-8.574c-0.589-0.801-1.189-1.618-1.802-2.452c-0.062-0.066-0.199-0.312-0.297-0.49
			c-0.121-0.216-0.159-0.337-0.221-0.482c-0.123-0.293-0.224-0.569-0.309-0.831c-0.191-0.543-0.336-1.062-0.498-1.598
			c-0.606-2.119-1.144-4.298-1.684-6.554c-2.144-9.015-4.263-19.216-6.521-30.331c-0.288-1.385-0.579-2.784-0.873-4.197
			c-0.15-0.7-0.302-1.404-0.453-2.112c-0.148-0.675-0.331-1.478-0.449-1.915l-0.079-0.266c0.055,0.172-0.007-0.046-0.005-0.051
			l-0.038-0.164l-0.148-0.659l-0.284-1.33c-0.157-0.838-0.246-1.526-0.373-2.302c-0.247-1.518-0.466-3.035-0.671-4.555
			c-0.849-6.102-1.57-12.39-2.278-18.888c-0.182-1.602-0.348-3.292-0.51-5.005c-0.082-0.853-0.17-1.716-0.218-2.53l-0.086-1.243
			l-0.024-0.419l-0.02-0.117c-0.007-0.073-0.008-0.152-0.044-0.277c-0.072-0.427-0.284-1.036-0.548-1.64
			c-0.253-0.609-0.6-1.248-0.954-1.879c-0.737-1.26-1.617-2.533-2.554-3.631c-0.116-0.143-0.232-0.267-0.349-0.395
			c-0.122-0.138-0.231-0.255-0.305-0.324c-0.079-0.081-0.149-0.162-0.339-0.329l-0.238-0.216c0.123,0.108-0.083-0.085-0.108-0.114
			l-0.202-0.206c-0.267-0.277-0.527-0.564-0.776-0.857c-0.244-0.292-0.389-0.584-0.579-0.885c-0.165-0.288-0.379-0.628-0.486-0.882
			l-0.326-0.767c-0.236-0.548-0.368-0.958-0.521-1.395l-0.435-1.251c-0.269-0.805-0.554-1.575-0.846-2.331
			c-0.605-1.543-1.155-2.862-1.978-4.517l-0.575-1.188l-0.145-0.297c0.055,0.11-0.024-0.039-0.03-0.045l-0.068-0.121l-0.272-0.485
			c-0.348-0.665-0.765-1.246-1.172-1.823c-1.687-2.286-3.778-3.596-5.986-3.68c-0.139-0.008-0.293-0.01-0.453-0.009l-0.325,0.004
			l-0.42-0.022l-1.707-0.114c-1.023-0.127-1.953-0.29-2.937-0.436c-0.983-0.128-1.915-0.355-2.86-0.563l-2.838-0.633
			c-0.976-0.199-1.837-0.455-2.717-0.702l-2.647-0.741l-2.655-0.743l-1.321-0.361c-0.39-0.1-0.774-0.219-1.167-0.306
			c-3.134-0.727-6.397-0.943-9.647-0.615c-1.621,0.174-3.238,0.472-4.809,0.9c-0.786,0.211-1.557,0.463-2.299,0.737l-0.549,0.213
			l-0.46,0.195c-0.121,0.044-0.389,0.18-0.584,0.271c-0.01,0.005-0.202,0.096-0.062,0.03l-0.053,0.032l-0.179,0.104
			c-0.66,0.395-1.464,0.913-2.226,1.405l-2.33,1.526c-1.563,1.035-3.127,2.072-4.692,3.109c-3.148,2.084-6.303,4.173-9.46,6.263
			c-3.187,2.082-6.347,4.161-9.707,6.189c-0.87,0.508-1.692,0.999-2.753,1.537c-0.363,0.155-0.33,0.219-1.392,0.587
			c-0.209,0.067-0.42,0.125-0.63,0.174l-0.223,0.048c0.566-0.036-0.963,0.094-0.883,0.076l-0.203-0.003l-1.507-0.038
			c-1.941-0.066-3.86-0.156-5.788-0.275c-3.865-0.254-7.687-0.538-11.703-1.189c-0.497-0.074-1.008-0.167-1.534-0.279
			c-0.523-0.109-1.025-0.197-1.603-0.361l-0.837-0.225l-0.209-0.057l-0.309-0.106l-0.648-0.247
			c-0.405-0.164-0.907-0.386-1.204-0.544l-0.606-0.36c0.35,0.258-0.648-0.452-0.59-0.415l-0.126-0.097l-0.253-0.194l-0.505-0.39
			c-0.331-0.259-0.667-0.52-1.05-0.792l-2.216-1.615c-3.007-2.125-6.038-4.243-9.104-6.225c-1.523-1.025-3.063-1.952-4.591-2.915
			c-0.779-0.499-1.454-0.848-2.182-1.283c-0.715-0.414-1.396-0.838-2.269-1.246l-1.238-0.616l-0.31-0.154l-0.154-0.077
			c-0.222-0.1,0.129,0.051,0.028,0.002l-0.683-0.357l-2.718-1.44c-0.947-0.485-1.686-0.963-2.493-1.441l-2.384-1.434
			c-6.329-3.825-12.397-7.713-18.393-11.549c-5.975-3.854-11.849-7.635-17.526-11.457c-2.839-1.912-5.737-3.846-8.47-5.751
			c-0.703-0.494-1.404-0.985-2.103-1.476c-0.683-0.609-1.362-1.217-2.039-1.822l-1.009-0.911c-0.335-0.304-0.601-0.585-0.904-0.878
			c-0.588-0.58-1.175-1.159-1.759-1.735c-9.319-9.209-17.749-18.124-25.599-26.343c-7.848-8.206-14.949-15.804-21.266-22.527
			c-3.116-3.305-6.213-6.201-9.342-8.486c-1.576-1.116-3.137-2.122-4.722-2.88c-1.582-0.76-3.158-1.331-4.711-1.702
			c-1.551-0.378-3.078-0.546-4.547-0.726c-1.517-0.154-2.857-0.527-4.042-0.518c-1.216-0.001-2.367,0.2-3.383,0.517
			c-1.022,0.303-1.933,0.668-2.724,1.048c-1.588,0.753-2.737,1.487-3.493,1.998C325.942,85.859,325.574,86.158,325.574,86.158z"/>
	</g>
	<g>
		<path fill="#575756" d="M627.266,447.945c0,0-0.513,0.194-1.475,0.559c-0.965,0.344-2.371,0.893-4.17,1.524
			c-1.795,0.634-3.975,1.403-6.476,2.286c-2.492,0.876-5.309,1.845-8.325,2.946c-1.497,0.562-3.072,1.123-4.593,1.779
			c-0.376,0.162-0.754,0.326-1.136,0.491c-0.347,0.169-0.695,0.339-1.048,0.51c-0.179,0.086-0.245,0.163-0.375,0.238l-0.173,0.109
			l-0.088,0.053l-0.45,0.251l-0.305,0.163c-0.065,0.032-0.067,0.045-0.186,0.092l-0.333,0.128c-0.226,0.082-0.455,0.158-0.687,0.228
			l-0.349,0.1l-0.229,0.052l-0.875,0.186l-0.813,0.128c-0.554,0.087-1.056,0.126-1.583,0.182c-1.036,0.096-2.056,0.157-3.078,0.202
			c-2.042,0.099-4.092,0.079-6.169,0.057c-4.147-0.068-8.393-0.296-12.689-0.646c-4.3-0.33-8.645-0.811-12.992-1.348
			c-2.172-0.287-4.342-0.603-6.517-0.941c-1.089-0.172-2.176-0.347-3.281-0.565l-1.688-0.342l-0.916-0.214l-0.911-0.253
			c-1.123-0.329-1.789-0.466-2.842-0.714c-1.014-0.235-2.022-0.47-3.024-0.703c-2.034-0.465-4.044-0.925-6.02-1.377
			c-7.938-1.861-15.334-3.767-21.652-6.037c-1.604-0.628-3.068-1.14-4.658-2.044l-0.584-0.339l-0.179-0.107l-0.109-0.083
			l-0.218-0.164c-0.292-0.223-0.564-0.42-0.874-0.674c-0.615-0.481-1.149-0.945-1.659-1.402c-2.02-1.834-3.615-3.502-4.961-4.829
			c-1.345-1.323-2.417-2.338-3.263-2.842c-0.417-0.26-0.768-0.402-1.018-0.457c-0.261-0.026-0.396-0.04-0.396-0.04
			c-0.018,0.027,0.552-0.274,1.607,0.033c1.037,0.274,2.457,0.933,4.128,1.902c1.685,0.952,3.647,2.209,5.889,3.496
			c0.565,0.311,1.142,0.638,1.703,0.921c0.268,0.146,0.611,0.304,0.933,0.46l0.245,0.119l0.124,0.06
			c-0.04-0.03,0.049,0.009,0.067,0.011l0.416,0.128c1.093,0.361,2.647,0.679,4.159,0.964c3.104,0.571,6.562,1.074,10.217,1.608
			c3.671,0.539,7.541,1.107,11.546,1.695c2.012,0.289,4.049,0.625,6.131,0.968c1.047,0.178,2.101,0.357,3.159,0.537
			c1.014,0.191,2.433,0.478,3.364,0.721l0.638,0.153l0.651,0.126l1.475,0.243c1.029,0.153,2.062,0.309,3.097,0.463
			c2.093,0.303,4.217,0.578,6.343,0.845c4.248,0.573,8.516,1.072,12.706,1.588c2.095,0.243,4.173,0.483,6.226,0.721
			c2.047,0.214,4.067,0.426,6.056,0.634c1.98,0.196,3.923,0.339,5.791,0.47c1.837,0.124,3.735,0.155,5.077,0.055l0.114-0.006
			c-0.004,0.002-0.008,0.005-0.012,0.011c-0.008,0.011-0.013,0.028-0.014,0.052l0.002,0.04c-0.006,0.021,0.091-0.029,0.132-0.041
			l0.323-0.123l0.041-0.016c-0.135,0.077,0.357-0.193-0.291,0.169l0.108-0.054l0.218-0.105l0.435-0.206
			c0.279-0.124,0.602-0.288,0.844-0.367c0.488-0.163,0.973-0.325,1.454-0.486c0.468-0.145,0.917-0.247,1.37-0.37
			c1.801-0.458,3.488-0.809,5.123-1.113c6.511-1.182,11.935-1.736,15.755-2.07c1.906-0.169,3.415-0.239,4.439-0.306
			C626.718,447.97,627.266,447.945,627.266,447.945z"/>
	</g>
	<g>
		<path fill="#C6C6C6" d="M491.025,434.863c0,0-0.651,0.55-1.872,1.581c-1.235,1.011-3.018,2.537-5.344,4.395
			c-2.319,1.868-5.12,4.159-8.394,6.699c-3.258,2.562-6.934,5.453-10.988,8.542c-4.07,3.073-8.479,6.403-13.141,9.924
			c-4.808,3.507-9.817,7.063-15.124,10.647c-2.629,1.82-5.351,3.604-8.107,5.407c-2.736,1.827-5.579,3.604-8.44,5.39
			c-1.414,0.905-2.903,1.768-4.378,2.646l-2.22,1.316c-0.376,0.218-0.734,0.437-1.127,0.649l-1.219,0.63l-2.445,1.255l-1.101,0.563
			l-1.141,0.562l-4.569,2.25c-12.215,5.863-24.43,11.728-35.881,17.225c-2.864,1.351-5.681,2.679-8.438,3.979
			c-0.692,0.321-1.379,0.641-2.063,0.959l-1.023,0.475l-0.667,0.309l-0.519,0.217c-0.612,0.281-1.551,0.595-2.42,0.877
			c-0.856,0.271-1.595,0.417-2.388,0.624c-6.174,1.296-11.942,1.424-17.345,0.784c-2.689-0.368-5.296-0.898-7.72-2.034
			c-0.603-0.295-1.191-0.653-1.762-0.976c-0.563-0.389-1.098-0.853-1.614-1.274c-0.79-0.739-1.557-1.457-2.3-2.152
			c-3.015-2.877-5.711-5.166-7.92-7.158c-4.489-3.922-7.054-6.163-7.054-6.163s0.744,0.419,2.139,1.205
			c1.37,0.824,3.419,1.969,5.954,3.561c2.508,1.621,5.704,3.512,9.018,5.977c0.859,0.614,1.747,1.247,2.66,1.899
			c0.384,0.205,0.727,0.44,1.121,0.646c0.449,0.164,0.87,0.356,1.334,0.513c1.895,0.604,4.17,0.863,6.545,0.902
			c2.383,0.04,4.905-0.104,7.487-0.456c2.579-0.345,5.241-0.869,7.802-1.649c0.603-0.215,1.293-0.425,1.833-0.638
			c0.521-0.221,0.999-0.372,1.729-0.763l0.503-0.251l0.063-0.032c0.159-0.078-0.146,0.072-0.091,0.044l0.124-0.068l0.249-0.137
			l0.998-0.55c0.667-0.368,1.338-0.737,2.014-1.109c2.709-1.472,5.477-2.976,8.291-4.505c2.826-1.511,5.7-3.047,8.608-4.602
			c2.91-1.555,5.864-3.127,8.857-4.596c5.968-3.02,12.069-6.004,18.165-9.002l4.585-2.215l1.146-0.553l1.169-0.583l2.078-1.055
			l1.04-0.523l1.072-0.605l2.158-1.215c1.436-0.813,2.871-1.597,4.293-2.463c5.698-3.365,11.315-6.741,16.731-10.042
			c5.396-3.303,10.612-6.496,15.559-9.523c4.905-3.119,9.646-6.028,13.997-8.675c4.358-2.655,8.396-5.03,11.974-7.137
			c3.563-2.128,6.723-3.906,9.312-5.389c2.581-1.494,4.655-2.602,6.05-3.386C490.274,435.271,491.025,434.863,491.025,434.863z"/>
	</g>
	<path fill="#878787" stroke="#878787" stroke-width="4.3752" stroke-miterlimit="10" d="M224.017,139.306
		c0,0,9.114,8.752,22.604,11.303s19.687,4.375,23.698,0c4.013-4.375,8.388-9.118,14.951-14.95s10.207-9.481,12.76-14.22
		c2.553-4.738,2.917-21.147,0-22.97c-2.916-1.822-13.491-0.73-15.678,0c-2.188,0.73-5.469,6.928-10.938,13.491
		c-5.469,6.563-15.313,17.501-24.064,21.876C238.599,138.212,224.017,139.306,224.017,139.306z"/>
	<path fill="#878787" stroke="#878787" stroke-width="4.3752" stroke-miterlimit="10" d="M408.093,64.745
		c0,0,42.292,28.439,50.315,30.626c8.021,2.188,26.252,10.938,32.085,12.397c5.832,1.459,23.332,5.105,29.168,8.021
		c5.834,2.916,16.043,8.022,18.959,17.501c2.917,9.479,13.901,34.273,8.795,37.92c-11.305,8.075-38.695,17.691-47.762,15.676
		c-6.563-1.459-79.166-39.743-86.457-48.493c-7.292-8.75-32.814-36.46-35.73-50.315c-2.916-13.854,4.375-30.624,6.563-33.542
		C386.216,51.62,403.717,61.827,408.093,64.745z"/>
	<path fill="#706F6F" stroke="#706F6F" stroke-width="4.3752" stroke-miterlimit="10" d="M523.494,81.714
		c0,0-2.188,9.845-8.751,9.845c-6.563,0-8.386,1.458-3.282,3.281s6.199,4.375,12.033,4.375c5.831,0,12.394,2.187,13.486-2.188
		C538.074,92.652,524.583,78.478,523.494,81.714z"/>
	<g>
		<path fill="#706F6F" d="M390.273,39.225c0,0,0.417,0.707,1.197,2.031c0.781,1.32,1.996,3.217,3.585,5.567
			c1.612,2.324,3.653,5.128,6.309,7.861c1.315,1.361,2.844,2.698,4.519,3.596c1.924,1.098,3.981,2.197,6.135,3.63
			c4.263,2.751,8.563,5.867,13.106,9.161c1.13,0.813,2.276,1.635,3.436,2.469c1.156,0.836,2.327,1.613,3.508,2.437
			c0.592,0.423,1.176,0.745,1.767,1.126l0.883,0.558l0.441,0.281l0.056,0.036c0.052,0.032-0.259-0.153-0.098-0.06l0.126,0.064
			l0.252,0.127c0.671,0.341,1.346,0.683,2.022,1.027l1.019,0.517l0.987,0.421c1.323,0.564,2.657,1.133,4.001,1.706
			c1.419,0.576,2.849,1.157,4.287,1.741c2.914,1.129,5.862,2.273,8.835,3.426c5.998,2.261,12.093,4.558,18.187,6.854
			c6.095,2.257,12.189,4.515,18.189,6.736c2.999,1.084,5.974,2.16,8.914,3.222c1.455,0.493,2.902,0.984,4.34,1.471
			c0.707,0.231,1.324,0.381,1.985,0.589l0.975,0.294l1.197,0.277c3.146,0.777,6.113,1.649,9.019,2.711
			c1.45,0.526,2.881,1.09,4.297,1.722c1.419,0.64,2.816,1.313,4.236,2.243c0.713,0.473,1.432,0.982,2.195,1.746
			c0.191,0.198,0.378,0.389,0.578,0.651c0.099,0.126,0.191,0.239,0.288,0.38l0.289,0.467c0.091,0.144,0.183,0.334,0.269,0.541
			l0.121,0.301l0.056,0.152c0.041,0.112-0.134-0.354-0.05-0.132l0.088,0.241c0.026,0.074,0.011,0.021-0.01-0.03
			c-0.019-0.044-0.04-0.086-0.064-0.126c-0.025-0.04-0.053-0.078-0.084-0.113l-0.026-0.034c-0.014-0.017-0.039-0.03-0.053-0.037
			c-0.005-0.014-0.047-0.014-0.022,0.001c-0.003,0.028,0.107,0.094,0.225,0.165c0.271,0.14,0.714,0.281,1.196,0.38
			c2.012,0.391,4.465,0.235,6.677-0.087c2.234-0.35,4.399-0.838,6.198-1.701c0.513-0.223,1.02-0.442,1.519-0.659
			c0.451-0.24,0.896-0.477,1.335-0.71c0.884-0.485,1.736-0.881,2.594-1.407c1.706-0.989,3.297-1.929,4.772-2.817
			c1.479-0.876,2.834-1.695,4.046-2.455c4.88-3.018,7.668-4.742,7.668-4.742s-0.592,0.57-1.701,1.639
			c-1.131,1.043-2.755,2.621-4.931,4.501c-2.156,1.905-4.795,4.198-7.999,6.662c-0.766,0.63-1.702,1.252-2.599,1.91
			c-0.458,0.327-0.923,0.659-1.395,0.995c-0.466,0.284-0.938,0.572-1.416,0.864l-0.723,0.44l-0.365,0.22l-0.046,0.027
			c0.097-0.043-0.183,0.09-0.174,0.085l-0.105,0.05l-0.213,0.1c-0.566,0.27-1.146,0.516-1.735,0.749
			c-1.18,0.464-2.405,0.869-3.682,1.211c-1.275,0.349-2.605,0.611-4.005,0.798c-1.404,0.175-2.864,0.284-4.505,0.138
			c-0.824-0.082-1.696-0.217-2.674-0.575c-0.496-0.197-1.005-0.415-1.549-0.795c-0.264-0.166-0.542-0.413-0.802-0.65
			c-0.132-0.129-0.261-0.278-0.386-0.423c-0.064-0.077-0.119-0.138-0.188-0.232l-0.217-0.33l-0.199-0.344l-0.13-0.256l-0.109-0.232
			c0.066,0.183-0.124-0.323-0.101-0.25l0.005,0.034c0.004,0.022,0.011,0.044,0.019,0.065c0.021,0.047,0.042,0.082,0.031,0.085
			c0,0.013,0.004,0.023,0.012,0.032c-0.003,0.001-0.027-0.013-0.037-0.021l-0.131-0.104c-0.239-0.192-0.68-0.473-1.165-0.729
			c-2.021-1.054-4.677-1.97-7.359-2.732c-2.704-0.755-5.556-1.471-8.397-1.991l-1.058-0.184l-1.262-0.289
			c-0.829-0.195-1.725-0.391-2.505-0.614c-1.529-0.451-3.069-0.905-4.619-1.362c-3.041-0.951-6.116-1.931-9.168-2.986
			c-6.146-2.06-12.275-4.277-18.475-6.564c-6.113-2.338-12.224-4.668-18.213-7.156c-3.001-1.205-5.956-2.498-8.874-3.779
			c-1.458-0.66-2.907-1.316-4.346-1.968c-1.454-0.668-2.959-1.456-4.41-2.173l-1.091-0.549l-0.987-0.572
			c-0.657-0.38-1.312-0.759-1.963-1.136l-0.243-0.141l-0.122-0.07c0.12,0.071-0.232-0.136-0.219-0.131l-0.062-0.043l-0.489-0.349
			l-0.973-0.697c-0.632-0.47-1.313-0.925-1.889-1.402c-2.394-1.887-4.645-3.742-6.788-5.586c-4.27-3.666-8.264-7.188-11.941-10.182
			c-0.932-0.737-1.763-1.493-2.747-2.173c-0.95-0.702-1.876-1.345-2.775-2.06c-2.075-1.541-3.534-3.29-4.773-4.968
			c-2.504-3.345-4.032-6.548-5.275-9.164c-1.232-2.624-1.998-4.763-2.532-6.209C390.5,40.016,390.273,39.225,390.273,39.225z"/>
	</g>
	<path fill="#575756" stroke="#575756" stroke-width="4.3752" stroke-miterlimit="10" d="M480.614,237.367
		c0,0,6.584,4.316,2.734,8.163c-3.849,3.848-9.844,3.788-9.844,0C473.505,241.742,480.614,237.367,480.614,237.367z"/>
	<path fill="#575756" stroke="#575756" stroke-width="2.2911" stroke-miterlimit="10" d="M303.134,453.67
		c0,0,3.448,2.257,1.431,4.272c-2.017,2.017-5.155,1.984-5.155,0C299.41,455.959,303.134,453.67,303.134,453.67z"/>
	<path fill="#575756" stroke="#575756" stroke-width="2.2911" stroke-miterlimit="10" d="M259.986,256.578
		c0,0,3.448,2.258,1.431,4.272c-2.017,2.017-5.155,1.984-5.155,0C256.262,258.867,259.986,256.578,259.986,256.578z"/>
	<path fill="#878787" stroke="#878787" stroke-width="4.3752" stroke-miterlimit="10" d="M478.324,517.063
		c-1.641-0.392,12.578-4.767,28.985-23.361c16.408-18.595,14.768-20.783,24.611-25.705s11.929-7.656,28.66-4.922
		c16.733,2.734,32.046,3.939,27.671,14.548c-4.375,10.61,0.547,19.907-12.032,27.563s-7.11,6.563-20.782,8.204
		c-13.673,1.641-19.142,5.777-45.94,6.989C482.699,521.593,478.324,517.063,478.324,517.063z"/>
	<path fill="#706F6F" stroke="#706F6F" stroke-width="4.3752" stroke-miterlimit="10" d="M552.808,503.601
		c0,0-13.854-4.376-17.136,0c-3.281,4.375-2.188,6.562,0,8.75c2.188,2.188,9.116,0,14.585,0s12.395-2.068,15.676-4.862
		s5.47-5.832,5.47-5.832L552.808,503.601z"/>
	<g>
		<path fill="#9D9D9C" stroke="#9D9D9C" stroke-width="5.8801" stroke-miterlimit="10" d="M355.201,345.124
			c0,0-6.844,16.674,3.451,22.846c10.295,6.171,12.404,10.354,19.873,12.956c7.468,2.603,10.831,8.167,16.564,7.2
			c5.733-0.969-5.168,16.537-17.198,12.662c-12.029-3.873-43.102-9.988-44.548-26.319s6.679-35.639,13.319-37.895
			C353.303,334.319,355.201,345.124,355.201,345.124z"/>
		<path fill="#706F6F" stroke="#706F6F" stroke-width="5.8801" stroke-miterlimit="10" d="M348.849,334.616
			c0,0-3.603-4.361-7.591-0.522c-3.989,3.837-8.554,12.84-9.149,13.508c-0.595,0.665-2.252,10.992-4.111,14.713
			c-1.858,3.719-0.938,6.288,0.145,11.215c1.082,4.927-1.237,7.361,2.825,10.422c4.061,3.063,4.803,1.876,10.814,6.756
			c6.012,4.883,3.273,8.821,14.225,10.685c10.953,1.864,2.811,3.138,17.484,4.886c14.673,1.748,20.731-2.34,23.331-4.311
			c2.601-1.971-3.693-0.646-12.538-3.118c-8.847-2.473-34.012-10.66-37.855-15.973c-3.843-5.311-12.15-10.776-9.491-21.755
			C339.593,350.14,348.849,334.616,348.849,334.616z"/>
		<g>
			<path fill="#C6C6C6" d="M342.471,329.751c0.004,0.007-0.139,0.044-0.371,0.193c-0.229,0.147-0.539,0.413-0.904,0.799
				c-0.734,0.77-1.673,2.021-2.798,3.658c-1.123,1.64-2.4,3.691-3.811,6.073c-1.397,2.388-2.919,5.122-4.418,8.153
				c-0.723,1.528-1.496,3.104-1.912,4.777c-0.479,1.78-1.007,3.612-1.578,5.499c-0.53,1.882-1.089,3.771-1.396,5.729l-0.137,0.732
				l-0.069,0.367l-0.017,0.092c0.023-0.224,0.005-0.034,0.01-0.071l-0.002,0.048l-0.008,0.195l-0.036,0.781
				c-0.005,0.251-0.05,0.553,0.006,0.73c0.09,0.423,0.073,0.786,0.21,1.261c0.137,0.469,0.215,0.921,0.405,1.411
				c0.174,0.494,0.348,0.989,0.523,1.487l0.28,0.773l0.26,0.839c0.195,0.538,0.291,1.178,0.405,1.795
				c0.118,0.618,0.05,1.315,0.062,1.974c-0.107,1.094-0.182,2.117-0.177,3.157c0.008,1.008,0.1,2.038,0.398,2.703
				c0.146,0.333,0.308,0.519,0.47,0.622l1.43,0.89l1.417,0.845l1.435,0.772l3.05,1.43c0.497,0.215,1.077,0.562,1.623,0.862
				c0.542,0.316,1.034,0.65,1.546,0.985c0.981,0.718,1.943,1.46,2.815,2.334c0.453,0.411,0.858,0.897,1.276,1.361
				c0.391,0.499,0.802,1.044,1.094,1.491c1.245,1.837,2.559,3.588,4.058,5.003c0.374,0.351,0.747,0.697,1.142,0.961
				c0.384,0.325,0.78,0.505,1.165,0.716l0.144,0.082c0.024,0.013-0.092-0.034-0.019-0.006l0.049,0.018l0.098,0.036l0.391,0.143
				l0.78,0.286c0.523,0.198,1.039,0.382,1.53,0.504l1.488,0.423c0.528,0.134,1.054,0.267,1.578,0.399
				c1.031,0.255,2.148,0.569,3.151,0.836c1.048,0.298,2.003,0.533,3.043,0.79c1.032,0.26,2.078,0.521,3.158,0.962
				c0.274,0.129,0.538,0.21,0.817,0.387l0.41,0.239l0.102,0.061l0.051,0.031c-0.344-0.191-0.07-0.043-0.135-0.081l0.177,0.07
				c0.265,0.125,0.416,0.125,0.573,0.151l0.239,0.051c0.083,0.02,0.228,0.037,0.338,0.055c0.939,0.154,1.915,0.261,2.874,0.352
				c3.853,0.346,7.548,0.501,10.941,0.568c1.699,0.029,3.326,0.012,4.866-0.037c1.536-0.047,3.006-0.145,4.286-0.393
				c0.597-0.118,1.253-0.374,1.871-0.576c0.615-0.204,1.208-0.401,1.778-0.59c1.129-0.382,2.146-0.766,2.96-1.269
				c0.828-0.485,1.396-1.137,1.735-1.795c0.314-0.664,0.483-1.334,0.665-1.829c0.341-1.015,0.522-1.556,0.522-1.556
				s-0.126,0.557-0.362,1.601c-0.136,0.524-0.22,1.159-0.49,1.932c-0.285,0.754-0.873,1.556-1.729,2.151
				c-0.841,0.621-1.871,1.107-2.982,1.592c-0.556,0.233-1.135,0.477-1.734,0.729c-0.603,0.241-1.182,0.527-1.938,0.743
				c-2.84,0.715-5.979,0.906-9.427,1.055c-3.445,0.127-7.168,0.174-11.135-0.047c-0.995-0.056-1.999-0.123-3.051-0.253
				c-0.435-0.038-1.402-0.224-1.807-0.388l-0.18-0.063l-0.322-0.164l-0.258-0.135c-0.154-0.101-0.391-0.162-0.584-0.247
				c-1.688-0.586-3.883-0.938-5.962-1.49c-1.069-0.258-2.033-0.506-3.116-0.748c-0.531-0.121-1.065-0.243-1.6-0.365
				c-0.561-0.146-1.123-0.292-1.687-0.438c-0.581-0.138-1.108-0.313-1.625-0.495l-0.787-0.267l-0.395-0.134l-0.099-0.033
				l-0.049-0.017c0.041,0.016-0.109-0.039-0.116-0.045l-0.225-0.111c-0.603-0.302-1.212-0.613-1.693-1.006
				c-0.536-0.361-0.988-0.772-1.437-1.187c-1.781-1.661-3.202-3.555-4.52-5.461c-0.335-0.5-0.623-0.854-0.93-1.252
				c-0.351-0.375-0.673-0.768-1.07-1.119c-0.741-0.737-1.6-1.381-2.458-2.009c-0.44-0.291-0.891-0.603-1.331-0.863
				c-0.453-0.249-0.841-0.509-1.388-0.753c-1.041-0.499-2.08-0.996-3.118-1.493l-1.556-0.853l-1.493-0.906l-1.438-0.909
				c-0.796-0.502-1.317-1.272-1.607-1.967c-0.574-1.419-0.599-2.678-0.607-3.882c0.02-1.186,0.141-2.37,0.273-3.463
				c0.205-1.689-0.598-3.6-1.269-5.741c-0.184-0.513-0.293-1.113-0.434-1.668c-0.145-0.549-0.166-1.254-0.231-1.869
				c-0.045-0.342,0.005-0.564,0.016-0.835l0.058-0.779l0.016-0.194l0.022-0.217l0.022-0.099l0.089-0.393l0.177-0.783
				c0.417-2.099,1.083-4.056,1.687-5.923c0.645-1.84,1.223-3.656,1.8-5.41c0.588-1.885,1.495-3.484,2.313-5.002
				c1.684-3.025,3.409-5.664,4.986-7.971c1.573-2.309,3.043-4.253,4.309-5.81c1.259-1.563,2.357-2.707,3.17-3.415
				c0.408-0.353,0.749-0.591,1-0.718C342.329,329.781,342.474,329.759,342.471,329.751z"/>
		</g>
	</g>
	<path fill="#878787" stroke="#878787" stroke-width="4.3752" stroke-miterlimit="10" d="M180.738,281.008
		c6.223-4.58,1.139-11.574,5.695-11.574s5.125,6.863,9.682,11.405s3.417,13.085,6.265,16.502s0,12.529-7.973,5.695
		c-7.973-6.835-7.404-7.974-13.668-5.695s-14.808-3.404-7.404-9.869C180.738,281.008,180.738,281.008,180.738,281.008z"/>
	<path fill="#878787" stroke="#878787" stroke-width="4.3752" stroke-miterlimit="10" d="M174.667,344.425
		c0,0,14.238-11.681,19.364-11.912s14.238,4.803,18.225,7.127c3.986,2.323,11.39,7.229,14.807,15.027s12.529,20.328,11.39,34.565
		c-1.139,14.238-1.139,17.655-5.125,26.768c-3.986,9.112-13.668,17.655-17.085,12.529s-21.642-25.886-23.35-27.181
		s-14.807-18.893-15.946-20.061s10.016-11.681,10.016-11.681S167.029,350.208,174.667,344.425z"/>
	<path fill="#9D9D9C" stroke="#9D9D9C" stroke-width="0.9449" stroke-miterlimit="10" d="M317.345,412.448
		c0,0,4.302,14.201,15.829,13.993c11.523-0.208,76.505-3.25,91.356,0.351c14.85,3.602,19.785-10.84,30.439-14.778
		c10.654-3.941,7.846-18.767,18.535-17.465c10.689,1.303,39.943-4.765,33.948-6.074c-5.996-1.311-9.283,24.621-28.423,19.955
		c-19.137-4.666-1.041,35.431-33.656,33.755c-32.618-1.678-30.743-7.321-54.862-7.321c-29.858,0-22.981,6.584-45.518,8.512
		c-22.538,1.926-33.496-23.868-51.783-28.869c-18.288-5-14.407-16.461-24.147-18.634c-9.739-2.173,3.916-11.94,14.886-5.761
		C294.92,396.292,317.345,412.448,317.345,412.448z"/>
</g>
</svg>
