<?xml version="1.0" encoding="utf-8"?>
<!-- Generator: Adobe Illustrator 16.0.0, SVG Export Plug-In . SVG Version: 6.00 Build 0)  -->
<!DOCTYPE svg PUBLIC "-//W3C//DTD SVG 1.1//EN" "http://www.w3.org/Graphics/SVG/1.1/DTD/svg11.dtd">
<svg version="1.1" id="Capa_3" xmlns="http://www.w3.org/2000/svg" xmlns:xlink="http://www.w3.org/1999/xlink" x="0px" y="0px"
	 width="841.89px" height="595.28px" viewBox="0 0 841.89 595.28" enable-background="new 0 0 841.89 595.28" xml:space="preserve">
<g>
	<path fill="#E9445A" stroke="#E30613" stroke-width="1.9618" stroke-miterlimit="10" d="M96.481,499.316
		c-0.355-0.969-4.438-6.079-4.537-9.348c-0.101-3.268-0.66-6.589-1.577-8.785c-0.918-2.195,0.156-3.472-0.965-5.922
		c-1.123-2.454-1.226-3.628,0.567-7.149c1.79-3.521,5.014-15.724,4.1-20.016c-0.917-4.289,0.914-17.191,0.85-23.558
		c-0.063-6.364,0.5-7.232,7.961-15.703c7.46-8.472,13.489-12.45,18.041-21.945c4.552-9.493,3.177-15.927,9.566-21.03
		c6.387-5.103,19.161-17.401,28.612-22.859c9.453-5.456,15.079-18.317,29.169-15.348c14.092,2.973,34.822,4.826,42.331,2.175
		c7.51-2.646,21.641,14.52,26.796,18.354c5.153,3.833,48.376,43.798,52.305,48.191c3.929,4.395,13.359,30.344,9.882,34.374
		c-3.474,4.031-9.658,11.481-6.908,18.072c2.754,6.59,3.203,19.201,1.459,32.732c-1.747,13.533-0.311,4.853-4.917,16.899
		c-4.604,12.049,8.169,6.033-9.713,16.13c-17.879,10.096-21.076,17.606-25.508,22.019c-4.434,4.41-6.478,6.044-14.75,5.118
		c-8.272-0.927,5.524-11.946-12.462,3.259c-17.985,15.205-14.007,21.232-22.279,20.307s-8.784-0.516-13.789,2.647
		c-5.007,3.16,2.138,5.822-8.069,1.423c-10.209-4.399-14.694-18.396-29.198-13.504c-14.507,4.892-18.698,9.077-23.393,5.294
		c0,0-9.494-6.644-13.167-11.242c-3.671-4.6-2.748-12.871-10.608-17.472c-7.859-4.603-22.151-14.11-24.906-18.608
		C98.619,509.328,96.481,499.316,96.481,499.316z"/>
	<path fill="#E51D2E" d="M162.118,535.532c0,0-11.236,2.697-11.841-8.536c-0.605-11.235,2.78-31.096,2.477-36.714
		c-0.302-5.616-0.951-26.861-3.191-33.858c-2.242-6.998,0.825-11.54-2.032-15.116c-2.857-3.577-2.959-6.844-12.403-9.762
		c-9.443-2.919-12.916-0.979-16.025-10.634c-3.107-9.653-6.837-7.511-2.186-13.736c4.653-6.227-0.865-4.75,5.932-11.435
		c6.796-6.686,24.986-23.729,25.862-31.54c0.875-7.813-3.801-9.473-0.786-11.462c3.015-1.988,13.081-9.82,15.533-10.941
		c2.452-1.122,1.278-1.578,6.948-5.969c8.531-6.607,7.464-7.425,15.07-6.808c7.607,0.618,11.671-0.582,17.132,4.684
		c5.459,5.265,7.505,1.538,11.788,8.994c4.285,7.458,6.53,10.269,14.231,24.625c7.698,14.354-4.452,10.668,11.118,17.063
		c15.569,6.396,18.022,5.273,32.418,11.768c14.394,6.496,26.62,9.752,29.935,13.38c3.318,3.628,0.69-2.017,5.938,13.461
		c5.25,15.476,4.574,35.849,1.511,38.296c-3.066,2.449-16.958,1.825-22.986,7.897c-6.032,6.072,0.867,2.657-10.94,16.689
		c-11.808,14.036-32.762,39.143-39.813,46.033c-7.054,6.888-9.664,13.575-19.769,8.257c-10.105-5.319-25.518-19.373-34.663-12.484
		C172.228,534.569,162.118,535.532,162.118,535.532z"/>
	<g>
		<path fill="#E32D44" d="M154.172,537.531c3.287,0.252,6.527-0.483,9.7-1.203c1.578-0.44,3.17-0.806,4.694-1.34
			c1.516-0.52,2.986-1.179,4.383-1.959c1.401-0.776,2.731-1.674,4.033-2.64c1.313-0.96,2.562-2,4.088-2.929
			c0.388-0.228,0.8-0.444,1.258-0.625c0.251-0.094,0.42-0.158,0.777-0.24c0.197-0.039,0.393-0.08,0.679-0.104
			c1.002-0.091,1.8-0.06,2.673-0.022c1.706,0.094,3.378,0.289,5.073,0.622c0.852,0.17,1.692,0.364,2.604,0.726
			c0.224,0.101,0.511,0.232,0.687,0.325l0.545,0.287l1.09,0.576l4.36,2.302c2.912,1.541,5.801,3.052,8.736,4.652
			c0.75,0.429,1.436,0.771,2.237,1.272l2.054,1.433c1.315,0.905,2.646,1.741,4.002,2.407c1.343,0.657,2.761,1.148,3.938,1.161
			c0.289,0.001,0.556-0.029,0.799-0.08c0.021-0.012,0.415-0.104,0.449-0.135c0.099-0.033,0.236-0.087,0.392-0.156
			c0.593-0.254,1.215-0.632,1.823-1.049c2.447-1.71,4.737-4.015,6.815-6.394c0.515-0.596,1.03-1.215,1.477-1.806
			c0.566-0.72,1.024-1.29,1.608-1.958l3.307-3.773c2.186-2.465,4.383-4.915,6.597-7.341c1.087-1.202,2.242-2.463,3.25-3.613
			l3.221-3.735l12.832-14.944c4.245-5.013,8.534-10.021,12.877-14.981l-0.123,0.169c1.169-1.802,2.334-3.627,3.445-5.452
			c0.272-0.456,0.559-0.916,0.81-1.367l0.388-0.68l0.306-0.607c0.546-1.224,1.283-2.142,2.008-3.024
			c0.749-0.876,1.553-1.697,2.467-2.447c0.468-0.368,0.945-0.729,1.507-1.034c0.265-0.161,0.582-0.291,0.886-0.423l0.512-0.156
			l0.129-0.036l0.087-0.021l0.198-0.045c2.104-0.479,4.169-1.024,6.285-1.542l6.32-1.544c1.049-0.244,2.129-0.514,3.226-0.702
			c0.99-0.158,1.925-0.491,2.683-1.109c0.763-0.606,1.335-1.473,1.717-2.43c0.208-0.468,0.318-0.986,0.486-1.511
			c0.156-0.519,0.235-1.033,0.364-1.553c0.431-2.102,0.668-4.263,0.805-6.424c0.057,2.168,0.015,4.341-0.231,6.52
			c-0.144,1.122-0.315,2.145-0.646,3.251c-0.339,1.075-0.913,2.137-1.792,2.952c-0.87,0.825-2.012,1.339-3.145,1.58
			c-1.026,0.242-2.032,0.562-3.076,0.872l-6.204,1.926c-2.059,0.639-4.16,1.282-6.254,1.871l-0.196,0.055l-0.109,0.031l-0.065,0.025
			l-0.261,0.093c-0.186,0.1-0.371,0.176-0.563,0.309c-0.381,0.229-0.759,0.543-1.126,0.861c-0.731,0.661-1.414,1.425-2.034,2.227
			c-0.613,0.813-1.183,1.655-1.484,2.431l-0.391,0.86l-0.391,0.745c-0.259,0.505-0.53,0.974-0.796,1.457
			c-1.076,1.914-2.178,3.781-3.303,5.653l-0.041,0.067l-0.083,0.102l-12.436,15.272l-3.104,3.798l-3.169,3.813l-6.386,7.55
			l-3.193,3.756c-1.147,1.33-2.209,2.499-3.317,3.743l-6.594,7.322l-3.22,3.619c-0.507,0.561-1.082,1.271-1.536,1.839
			c-0.55,0.716-1.093,1.355-1.657,1.999c-2.269,2.537-4.632,4.959-7.608,6.985c-0.758,0.495-1.553,0.967-2.479,1.345
			c-0.222,0.092-0.468,0.187-0.762,0.276c-0.351,0.112-0.362,0.102-0.738,0.195c-0.563,0.111-1.119,0.15-1.652,0.136
			c-2.128-0.102-3.852-0.847-5.438-1.64c-1.579-0.817-3.017-1.772-4.389-2.758l-1.96-1.431c-0.583-0.383-1.357-0.803-2.027-1.202
			l-8.513-4.912l-4.28-2.453l-1.069-0.613l-0.535-0.307l-0.419-0.22c-0.608-0.268-1.365-0.49-2.116-0.681
			c-1.514-0.379-3.104-0.648-4.675-0.813c-0.765-0.079-1.614-0.132-2.252-0.109c-0.125-0.007-0.335,0.021-0.543,0.053
			c-0.043,0.007-0.27,0.062-0.403,0.109c-0.313,0.105-0.64,0.254-0.97,0.426c-1.327,0.712-2.666,1.718-4.067,2.608
			c-1.398,0.907-2.856,1.767-4.381,2.49c-1.523,0.729-3.105,1.324-4.732,1.771c-1.619,0.438-3.265,0.678-4.884,0.997
			C160.789,537.684,157.433,538.087,154.172,537.531z"/>
	</g>
	<g>
		<path fill="#E32D44" d="M155.938,537.679c0,0-0.21-0.027-0.613-0.113c-0.402-0.089-0.999-0.235-1.749-0.523
			c-0.739-0.297-1.679-0.71-2.525-1.59c-0.426-0.46-0.734-0.993-1.122-1.527c-0.191-0.27-0.388-0.547-0.591-0.832
			c-0.191-0.307-0.388-0.622-0.59-0.946c-0.759-1.351-1.217-3.022-1.469-4.853c-0.069-0.912-0.133-1.869-0.143-2.857
			c0.045-0.982,0.092-2,0.141-3.052c0.355-4.119,0.756-8.767,1.193-13.837c0.219-2.532,0.448-5.171,0.685-7.901
			c0.117-1.363,0.236-2.75,0.357-4.158c0.126-1.409,0.262-2.851,0.32-4.224c0.04-0.697,0.081-1.398,0.122-2.104l0.064-1.061
			l-0.105-1.079c-0.148-1.49-0.325-2.945-0.5-4.462c-0.363-3.031-0.734-6.129-1.112-9.279c-0.396-3.144-0.798-6.354-1.284-9.546
			c-0.128-0.777-0.232-1.64-0.382-2.354l-0.218-1.071l-0.053-0.268l-0.093-0.39l-0.143-0.603c-0.193-0.782-0.326-1.796-0.453-2.64
			c-0.101-0.846-0.219-1.699-0.293-2.542c-0.181-1.692-0.301-3.384-0.413-5.09l-0.066-1.292l-0.023-0.673l-0.007-0.346l-0.003-0.173
			l-0.002-0.086c-0.002-0.084,0.023,0.414,0.007,0.166l-0.046-0.313c-0.019-0.063-0.037-0.017-0.043-0.032
			c0.019,0.056-0.065-0.148-0.133-0.291c-0.137-0.299-0.312-0.636-0.507-0.971c-0.771-1.351-1.718-2.729-2.672-4.076
			c-0.48-0.674-0.975-1.346-1.471-2.004l-0.363-0.473l-0.042-0.054c-0.074-0.082,0.521,0.521,0.236,0.246l-0.134-0.087
			c-0.12-0.092-0.104-0.03-0.121-0.024c-0.012,0.013-0.018,0.02-0.022,0.019l-0.217-0.085l-0.55-0.212
			c-3.087-1.135-6.342-2.178-9.541-3.234l-2.411-0.795c-0.825-0.277-1.563-0.514-2.502-0.868c-0.154-0.066-0.226-0.081-0.446-0.193
			l-0.28-0.146c-0.173-0.084-0.39-0.21-0.618-0.352c-0.463-0.268-0.856-0.546-1.229-0.825c-0.758-0.565-1.476-1.174-2.116-1.861
			c-1.303-1.343-2.407-2.898-3.161-4.605l-0.286-0.639l-0.142-0.318l-0.106-0.254l-0.459-1.147
			c-0.311-0.748-0.599-1.563-0.927-2.248c-0.663-1.395-1.243-2.779-2.145-3.93c-1.333-1.896-1.385-4.303-0.828-6.102
			c0.13-0.461,0.32-0.879,0.483-1.316l0.128-0.323c0.029-0.068,0.025-0.073,0.082-0.194l0.066-0.133l0.266-0.528
			c0.327-0.673,0.78-1.485,1.207-2.183c0.42-0.706,0.929-1.41,1.237-1.926c0.077-0.122,0.147-0.243,0.157-0.292
			c0.05-0.075,0.042-0.117,0.053-0.15c0.059-0.348,0.085-0.727,0.211-1.254c0.216-0.935,0.464-1.675,0.814-2.48
			c0.339-0.788,0.732-1.565,1.462-2.379l0.306-0.302l0.21-0.198l0.417-0.371l0.83-0.738c0.554-0.491,1.101-0.979,1.615-1.471
			c1.047-0.98,2.081-1.947,3.098-2.899c1.017-0.976,2.017-1.937,3.001-2.882l0.738-0.702l0.65-0.664l0.645-0.653l0.323-0.324
			l0.162-0.161l0.041-0.041c0.031-0.039-0.012,0.031,0.079-0.099l0.078-0.096c0.943-1.135,1.796-2.023,2.662-2.985
			c3.427-3.765,6.614-7.167,9.342-10.25c0.681-0.771,1.327-1.523,1.924-2.258l0.413-0.542c0.167-0.218,0.169-0.25,0.283-0.438
			c0.153-0.44,0.304-0.873,0.452-1.296c0.581-1.678,1.099-3.238,1.308-4.637c0.038-0.18,0.045-0.343,0.038-0.497
			c-0.011-0.173,0.029-0.292-0.018-0.476c-0.059-0.347-0.134-0.649-0.21-0.977c-0.157-0.641-0.305-1.241-0.442-1.801
			c-0.276-1.121-0.498-2.082-0.644-2.867c-0.147-0.786-0.215-1.398-0.216-1.813c0.004-0.417,0.091-0.617,0.091-0.617
			s-0.069,0.207-0.037,0.615c0.038,0.407,0.156,1.003,0.37,1.767c0.211,0.763,0.514,1.693,0.886,2.783
			c0.185,0.548,0.384,1.136,0.597,1.764c0.098,0.31,0.211,0.663,0.293,1.004c0.055,0.155,0.05,0.399,0.07,0.586
			c0.022,0.207,0.024,0.408-0.001,0.597c-0.119,1.555-0.538,3.164-0.999,4.902c-0.116,0.432-0.234,0.871-0.355,1.32
			c-0.086,0.228-0.277,0.631-0.401,0.788c-0.139,0.207-0.278,0.416-0.419,0.626c-0.576,0.801-1.186,1.604-1.826,2.423
			c-2.557,3.275-5.538,6.871-8.8,10.772c-0.794,0.966-1.683,2.006-2.391,2.939c-0.81,0.932-1.906,2.242-2.816,3.151
			c-0.958,0.991-1.932,1.999-2.921,3.023c-1.017,1.018-2.049,2.05-3.096,3.098c-0.522,0.531-1.054,1.039-1.589,1.546l-0.804,0.768
			l-0.404,0.386l-0.151,0.139l-0.04,0.054l-0.084,0.1c-0.556,0.649-1.136,2.202-1.355,3.361c-0.061,0.218-0.086,0.606-0.136,1.02
			c-0.04,0.349-0.109,0.687-0.23,0.962c-0.111,0.319-0.231,0.535-0.35,0.747c-0.473,0.819-0.876,1.378-1.239,2.023
			c-0.372,0.645-0.68,1.206-1.029,1.957l-0.255,0.534l-0.063,0.133c0.017-0.03-0.019,0.059-0.026,0.082l-0.082,0.231
			c-0.102,0.308-0.245,0.616-0.323,0.92c-0.342,1.228-0.175,2.339,0.375,3.112c0.153,0.197,0.492,0.656,0.772,1.078l0.667,1.149
			c0.442,0.764,0.781,1.55,1.176,2.33c0.389,0.787,0.659,1.518,0.996,2.283l0.482,1.138l0.061,0.143l0.077,0.172l0.118,0.244
			l0.233,0.487c0.585,1.319,1.449,2.513,2.473,3.554c0.497,0.533,1.068,1.006,1.653,1.437c0.3,0.222,0.593,0.425,0.859,0.575
			c0.126,0.083,0.27,0.172,0.476,0.271l0.28,0.144c-0.035-0.014,0.096,0.034,0.135,0.05c0.636,0.233,1.5,0.515,2.275,0.767
			l2.401,0.774c3.223,1.043,6.44,2.038,9.726,3.23l0.635,0.249l0.159,0.063l0.213,0.09c0.189,0.086,0.376,0.179,0.558,0.279
			c0.175,0.095,0.393,0.228,0.443,0.265l0.133,0.087c-0.237-0.251,0.397,0.388,0.352,0.352l0.056,0.072l0.408,0.538
			c0.52,0.698,1.025,1.396,1.523,2.104c0.992,1.425,1.962,2.844,2.857,4.433c0.226,0.396,0.442,0.811,0.653,1.278
			c0.103,0.244,0.204,0.42,0.339,0.882c0.055,0.186,0.119,0.429,0.145,0.57l0.044,0.313c-0.007-0.195,0.023,0.355,0.02,0.324
			l0.001,0.071l0.002,0.144l0.005,0.286l0.016,0.59l0.054,1.228c0.097,1.648,0.203,3.303,0.366,4.932
			c0.067,0.82,0.173,1.619,0.263,2.424c0.119,0.799,0.181,1.437,0.359,2.267l0.13,0.606l0.107,0.555l0.256,1.355
			c0.165,0.901,0.236,1.674,0.357,2.513c0.432,3.287,0.768,6.501,1.102,9.675c0.322,3.172,0.642,6.287,0.892,9.346
			c0.125,1.529,0.259,3.086,0.356,4.576l0.071,1.15l-0.098,1.156c-0.067,0.767-0.133,1.529-0.199,2.286
			c-0.117,1.536-0.302,2.953-0.475,4.359c-0.176,1.408-0.348,2.795-0.518,4.159c-0.365,2.721-0.717,5.35-1.055,7.873
			c-0.674,5.046-1.345,9.663-1.937,13.756c-0.107,1.009-0.21,1.986-0.31,2.929c-0.042,0.939-0.045,1.848-0.046,2.719
			c0.117,1.727,0.423,3.29,1.033,4.59c0.168,0.318,0.333,0.629,0.492,0.93c0.183,0.301,0.359,0.593,0.531,0.876
			c0.343,0.564,0.617,1.139,0.944,1.552c0.688,0.857,1.563,1.353,2.258,1.7c0.708,0.346,1.287,0.543,1.678,0.665
			C155.731,537.634,155.938,537.679,155.938,537.679z"/>
	</g>
	<g>
		<path fill="#E32D44" d="M231.802,382.128c0,0,0.375,0.076,1.076,0.22c0.7,0.148,1.735,0.339,3.037,0.636
			c2.609,0.572,6.329,1.416,10.761,2.534c2.224,0.554,4.61,1.153,7.154,1.828c2.572,0.707,5.229,1.44,7.962,2.318
			c2.734,0.862,5.569,1.734,8.415,2.771c0.712,0.245,1.43,0.528,2.149,0.802c0.727,0.29,1.423,0.515,2.186,0.873l1.125,0.501
			l1.024,0.468l2.07,0.964c5.471,2.643,10.941,5.284,16.071,7.762c1.275,0.624,2.541,1.212,3.759,1.835
			c0.306,0.153,0.609,0.306,0.912,0.458l0.452,0.227l0.293,0.147l0.221,0.122c0.27,0.137,0.641,0.379,0.981,0.604
			c0.333,0.226,0.592,0.44,0.887,0.66c2.193,1.785,3.845,3.78,5.128,5.853c0.626,1.042,1.176,2.101,1.457,3.268
			c0.066,0.294,0.104,0.601,0.152,0.891c0.022,0.306,0.008,0.623,0.005,0.922c-0.028,0.48-0.055,0.946-0.081,1.398
			c-0.097,1.855-0.221,3.473-0.315,4.805c-0.123,2.66-0.192,4.181-0.192,4.181s-0.056-0.379-0.162-1.089
			c-0.094-0.71-0.287-1.758-0.426-3.096c-0.119-1.333-0.274-2.951-0.406-4.808c-0.035-0.476-0.071-0.967-0.108-1.473
			c-0.036-0.192-0.048-0.378-0.087-0.574c-0.068-0.202-0.119-0.404-0.194-0.61c-0.319-0.833-0.858-1.706-1.507-2.551
			c-1.308-1.683-3.049-3.379-5.018-4.771c-0.244-0.151-0.509-0.338-0.736-0.465c-0.225-0.121-0.413-0.245-0.754-0.391l-0.229-0.104
			l-0.029-0.014c-0.071-0.033,0.065,0.03,0.04,0.02l-0.059-0.024l-0.118-0.048l-0.472-0.194c-0.316-0.13-0.634-0.261-0.954-0.392
			c-1.283-0.517-2.572-1.093-3.895-1.652c-1.321-0.565-2.664-1.142-4.023-1.724c-1.363-0.577-2.74-1.172-4.088-1.818
			c-2.718-1.266-5.479-2.552-8.24-3.838l-2.056-0.994l-1.043-0.496l-0.95-0.438c-0.604-0.302-1.347-0.561-2.018-0.839
			c-0.688-0.273-1.366-0.554-2.068-0.807c-2.782-1.032-5.52-2.104-8.2-3.056c-2.667-0.967-5.246-1.9-7.69-2.786
			c-2.471-0.827-4.813-1.689-6.957-2.474c-4.302-1.562-7.862-2.95-10.348-3.941c-1.246-0.484-2.213-0.908-2.877-1.178
			C232.156,382.275,231.802,382.128,231.802,382.128z"/>
	</g>
	<path fill="#E51D2E" d="M202.981,558.385c0,0,0.517-5.643-2.366-11.08c-2.881-5.442-3.977-8.124-6.632-8.304
		c-2.656-0.183-5.542-0.386-9.42-1.055c-3.88-0.666-6.179-0.923-8.553-0.491c-2.375,0.433-8.227,4.897-8.048,6.428
		c0.177,1.532,3.519,4.932,4.386,5.493c0.869,0.563,3.958-0.022,7.788,0.059c3.831,0.079,10.417,0.467,14.399,2.31
		C198.517,553.582,202.981,558.385,202.981,558.385z"/>
	<path fill="#E51D2E" d="M125.344,514.763c0,0-1.872-22.775-3.351-26.2c-1.478-3.423-3.515-12.258-4.636-14.709
		c-1.12-2.451-4.74-9.604-5.354-12.464c-0.61-2.859-1.678-7.866,0.826-11.539c2.505-3.676,8.118-14.463,10.826-13.694
		c5.992,1.701,17.025,8.605,18.856,12.347c1.326,2.706,8.231,38.856,7.208,43.857c-1.024,5.004-3.591,21.702-7.628,26.602
		c-4.039,4.899-11.954,7.038-13.587,7.087C126.868,526.101,125.547,517.11,125.344,514.763z"/>
	<path fill="#E51D2E" d="M264.154,363.574c0.325,0.685-5.186-3.073-16.294-3.618c-11.107-0.542-11.414,0.644-15.893-1.43
		c-4.479-2.07-6.023-2.036-9.748-8.663c-3.724-6.627-7.586-12.329-2.647-13.767c4.945-1.435,6.823-5.761,13.025-3.496
		c6.202,2.261,4.289,0.654,8.691,4.984c4.399,4.332,7.379,5.089,15.305,14.139C264.517,360.771,264.154,363.574,264.154,363.574z"/>
	<path fill="#E51D2E" d="M264.738,533.894c-3.346-0.899-4.375,2.838-5.65,1.242c-1.275-1.595,0.971-3.717,1.286-6.582
		c0.319-2.869,3.627-4.859,4.03-6.813c0.398-1.955,4.388-3.508,4.226,1.198c-0.162,4.707-0.721,4.827,1.829,6.384
		c2.553,1.557,2.953,6.141-1.385,5.354C264.738,533.894,264.738,533.894,264.738,533.894z"/>
	<path fill="#E51D2E" d="M288.654,518.271c0,0-8.079-1.719-9.593-3.45c-1.515-1.732-2.302-6.332-2.603-8.381
		c-0.301-2.047-0.656-6.013,1.122-9.392c1.776-3.381,3.614-10.079,8.921-13.665c5.304-3.584,6.503-4.54,10.812-5.696
		c4.308-1.151,10.01-0.15,9.17,2.482c-0.839,2.63-3.011,14.825-2.986,15.786c0.023,0.961-2.476,10.476-2.568,11.2
		c-0.089,0.725-6.893-0.239-6.893-0.239S292.817,519.329,288.654,518.271z"/>
	<path fill="#E32D44" stroke="#E32D44" stroke-width="3.9237" stroke-miterlimit="10" d="M272.556,449.248
		c0,0,3.773-5.48,0.472-9.461c-3.298-3.979-22.547-25.895-25.444-32.105c-2.894-6.21-9.333-3.897-13.695-6.528
		c-4.364-2.629-8.769,2.504-11.305-1.606c-2.536-4.107-12.85-12.659-11.629-10.193c1.219,2.468,11.223-3.637,14.946,4.374
		c3.719,8.011,12.702-9.55,21.243,2.346c8.542,11.896,6.038,12.818,12.789,21.27c8.358,10.461,8.739,6.207,15.72,13.564
		c6.984,7.358,1.014,18.414,4.378,26.221c3.366,7.805-1.736,9.653,0.23,13.674c1.964,4.021-5.278,1.971-6.184-3.604
		C273.173,461.628,272.556,449.248,272.556,449.248z"/>
</g>
<linearGradient id="SVGID_1_" gradientUnits="userSpaceOnUse" x1="21.0713" y1="549.8623" x2="160.5387" y2="473.6214" gradientTransform="matrix(0.9979 0.0645 -0.0645 0.9979 20.0024 -25.9231)">
	<stop  offset="0.089" style="stop-color:#FFFFFF"/>
	<stop  offset="1" style="stop-color:#E30613;stop-opacity:0.7"/>
</linearGradient>
<path fill="url(#SVGID_1_)" d="M78.557,510.576c-0.25-6.216-10.101-16.13-0.844-39.811c9.257-23.682-5.491-30.16,19.842-63.526
	c25.333-33.365,11.435-38.997,29.792-54.088c18.357-15.092,33.561-29.026,56.706-58.435c23.145-29.407,59.447-24.883,75.551-34.992
	c16.106-10.11,46.705-35.303,62.397-39.05c15.695-3.749,57.198-18.38,77.12-27.75c19.922-9.372,55.11-15.935,61.589-26.549
	c6.48-10.612,34.186-20.899,44.205-26.526c10.023-5.627,5.09-4.017,1.461,7.337c-3.633,11.354,6.359,6.208,13.105-1.082
	c6.746-7.292,48.971-18.084,51.438-18.889c2.467-0.805,59.365-29.48,59.365-29.48l18.057-10.422c0,0-27.832,27.172-31.949,34.874
	c-4.121,7.701,39.32-3.254,41.578-4.556c2.256-1.303,59.615-48.296,62.547-48.83c2.932-0.535,39.695-9.024,46.998-10
	c7.307-0.977,37.184-14.98,37.184-14.98s-19.592,11.771-32.252,28.336c-12.656,16.565,0.102,20.84,4.729,16.517
	c4.623-4.325,8.254-15.678,25.846-18.887c17.59-3.208-32.207,50.067-32.207,50.067s-20.49,3.226-35.746,15.174
	c-15.258,11.95-19.959,17.439-23.402,25.908c-3.445,8.469-14.654,24.985-10.051,21.008c4.604-3.977,48.768-37.337,4.604-3.977
	c-44.164,33.358-51.781,39.153-62.563,49.075c-10.781,9.922-38.332,32.768-38.332,32.768s-29.971,15.49-36.484,26.634
	c-6.516,11.146-17.178,41.629-31.998,46.813c-14.822,5.185-45.35,29.286-54.379,34.497c-9.027,5.21-43.248,26.658-34.592,27.217
	c8.654,0.56-20.293,15.104-27.272,18.517c-6.98,3.414-24.231,31.271-24.417,34.154c-0.187,2.885-21.814,23.698-25.784,25.375
	c-3.971,1.675-23.051,12.993-23.051,12.993s-50.592,58.839-53.601,60.573s-57.259,26.903-57.259,26.903l-40.214,3.295l-30.468,0.308
	c0,0-29.533,1.611-74.033-25.892C89.313,549.678,79.213,526.846,78.557,510.576z"/>
<g>
	<g>
		<path fill="#E9445A" stroke="#E30613" stroke-width="0.0915" stroke-miterlimit="10" d="M304.297,477.453
			c-0.017-0.045-0.207-0.283-0.212-0.436c-0.004-0.152-0.031-0.307-0.073-0.41c-0.043-0.102,0.007-0.161-0.045-0.275
			c-0.053-0.115-0.058-0.17,0.026-0.334c0.083-0.164,0.234-0.734,0.191-0.934c-0.042-0.2,0.043-0.803,0.04-1.1
			c-0.002-0.297,0.023-0.337,0.372-0.732c0.348-0.395,0.629-0.581,0.842-1.023c0.212-0.443,0.148-0.744,0.446-0.981
			c0.298-0.238,0.894-0.812,1.335-1.066s0.704-0.854,1.361-0.716c0.658,0.139,1.625,0.225,1.975,0.102
			c0.351-0.124,1.01,0.678,1.25,0.855c0.241,0.18,2.257,2.044,2.44,2.248c0.184,0.205,0.624,1.416,0.461,1.604
			c-0.162,0.188-0.451,0.536-0.322,0.843c0.129,0.308,0.149,0.896,0.068,1.527c-0.082,0.631-0.015,0.227-0.229,0.789
			s0.381,0.281-0.453,0.752c-0.834,0.471-0.983,0.822-1.19,1.027c-0.207,0.205-0.302,0.281-0.688,0.238
			c-0.386-0.043,0.258-0.557-0.582,0.152c-0.839,0.709-0.653,0.99-1.04,0.947c-0.386-0.043-0.41-0.023-0.643,0.124
			s0.1,0.271-0.376,0.066c-0.477-0.206-0.686-0.858-1.362-0.63s-0.873,0.424-1.091,0.246c0,0-0.443-0.31-0.614-0.523
			c-0.171-0.215-0.128-0.602-0.495-0.815c-0.367-0.215-1.034-0.658-1.162-0.868S304.297,477.453,304.297,477.453z"/>
		<path fill="#E51D2E" d="M307.359,479.144c0,0-0.524,0.126-0.552-0.397c-0.028-0.525,0.13-1.451,0.116-1.714
			c-0.014-0.262-0.044-1.253-0.149-1.579c-0.104-0.327,0.039-0.539-0.095-0.705c-0.133-0.168-0.138-0.32-0.579-0.456
			c-0.441-0.136-0.603-0.046-0.748-0.496s-0.319-0.351-0.102-0.641c0.217-0.29-0.04-0.222,0.277-0.534
			c0.317-0.312,1.166-1.106,1.207-1.471c0.041-0.365-0.177-0.442-0.037-0.535s0.61-0.458,0.725-0.511
			c0.115-0.052,0.06-0.073,0.324-0.278c0.398-0.309,0.349-0.346,0.703-0.317c0.355,0.028,0.544-0.027,0.799,0.219
			c0.255,0.245,0.35,0.071,0.55,0.419c0.2,0.349,0.304,0.479,0.664,1.148c0.359,0.67-0.208,0.498,0.519,0.797
			c0.726,0.299,0.841,0.246,1.512,0.549c0.672,0.303,1.242,0.455,1.397,0.625c0.155,0.169,0.032-0.095,0.277,0.627
			c0.245,0.723,0.213,1.673,0.07,1.787s-0.791,0.086-1.072,0.369s0.041,0.123-0.51,0.778c-0.551,0.655-1.529,1.825-1.857,2.147
			c-0.329,0.321-0.451,0.633-0.922,0.385c-0.472-0.248-1.191-0.903-1.618-0.582C307.832,479.099,307.359,479.144,307.359,479.144z"
			/>
		<g>
			<path fill="#E32D44" d="M306.989,479.236c0.303,0,0.613-0.074,0.877-0.208c0.133-0.071,0.239-0.175,0.38-0.259
				c0.168-0.084,0.326-0.032,0.485-0.012c0.175,0.039,0.292,0.133,0.431,0.199l0.405,0.219c0.267,0.145,0.526,0.414,0.746,0.221
				c0.234-0.164,0.403-0.422,0.61-0.648l0.612-0.688l1.203-1.394l-0.004,0.006l0.156-0.254c0.049-0.075,0.092-0.18,0.165-0.267
				c0.07-0.078,0.142-0.163,0.268-0.196l0.293-0.074l0.294-0.068c0.095-0.027,0.205-0.031,0.273-0.088
				c0.139-0.131,0.138-0.364,0.158-0.557c0.002,0.102-0.003,0.203-0.014,0.305c-0.017,0.096-0.031,0.21-0.115,0.285
				c-0.086,0.078-0.195,0.082-0.289,0.119l-0.29,0.09l-0.292,0.084c-0.074,0.02-0.146,0.095-0.205,0.167
				c-0.057,0.069-0.091,0.155-0.146,0.252c-0.049,0.095-0.103,0.179-0.154,0.267l-0.002,0.002l-0.002,0.004l-1.167,1.422
				c-0.194,0.234-0.395,0.467-0.603,0.692c-0.212,0.218-0.39,0.484-0.667,0.669c-0.135,0.115-0.373,0.104-0.503,0.014
				c-0.149-0.073-0.26-0.186-0.392-0.251l-0.399-0.228c-0.134-0.07-0.267-0.171-0.395-0.197c-0.134-0.027-0.306-0.067-0.415-0.01
				c-0.122,0.072-0.251,0.172-0.394,0.236C307.607,479.211,307.293,479.26,306.989,479.236z"/>
		</g>
		<g>
			<path fill="#E32D44" d="M307.071,479.244c0.015-0.005-0.201,0.006-0.331-0.262c-0.077-0.125-0.079-0.307-0.072-0.496
				c0.015-0.192,0.032-0.408,0.051-0.645c0.022-0.236,0.045-0.491,0.071-0.762c0.036-0.246-0.053-0.547-0.075-0.835
				c-0.037-0.294-0.076-0.599-0.115-0.908c-0.031-0.146-0.006-0.329-0.083-0.447c-0.07-0.073-0.155-0.291-0.267-0.3l-0.438-0.158
				c-0.139-0.047-0.295-0.08-0.425-0.229c-0.132-0.131-0.17-0.287-0.241-0.415l-0.096-0.198c-0.051-0.076-0.068-0.196-0.035-0.271
				c0.055-0.184,0.151-0.257,0.183-0.393c0.009-0.063,0.048-0.146,0.104-0.223c0.037-0.047,0.096-0.096,0.142-0.143
				c0.194-0.195,0.387-0.354,0.538-0.539c0.156-0.176,0.298-0.336,0.425-0.479c0.146-0.129,0.196-0.302,0.211-0.43
				c0.008-0.133-0.052-0.238-0.048-0.313c-0.009-0.073-0.014-0.112-0.014-0.112s0.007,0.039,0.022,0.112
				c0,0.073,0.067,0.171,0.07,0.312c-0.007,0.148-0.044,0.313-0.182,0.459c-0.116,0.158-0.251,0.335-0.406,0.512
				c-0.145,0.187-0.346,0.363-0.53,0.557c-0.047,0.051-0.097,0.092-0.144,0.153c-0.021,0.042-0.055,0.079-0.064,0.16
				c-0.029,0.146-0.156,0.294-0.173,0.399c-0.022,0.063-0.009,0.107,0.018,0.156c0.046,0.074,0.071,0.137,0.108,0.207
				c0.077,0.135,0.125,0.292,0.225,0.377c0.078,0.1,0.241,0.143,0.399,0.191l0.455,0.156c0.189,0.096,0.213,0.239,0.327,0.404
				c0.083,0.162,0.048,0.314,0.077,0.471c0.031,0.31,0.063,0.613,0.092,0.908c0.016,0.3,0.095,0.567,0.056,0.861
				c-0.032,0.27-0.062,0.525-0.089,0.762c-0.031,0.234-0.059,0.451-0.084,0.643c-0.02,0.191-0.03,0.357,0.034,0.48
				C306.875,479.236,307.083,479.238,307.071,479.244z"/>
		</g>
		<g>
			<path fill="#E32D44" d="M310.611,471.986c0,0,0.28,0.056,0.692,0.161c0.206,0.052,0.452,0.136,0.701,0.216
				c0.254,0.088,0.523,0.153,0.796,0.271c0.254,0.126,0.508,0.253,0.747,0.371c0.238,0.102,0.473,0.255,0.587,0.459
				c0.07,0.081,0.087,0.225,0.077,0.297c-0.004,0.087-0.009,0.162-0.012,0.225c-0.006,0.125-0.01,0.195-0.01,0.195
				s-0.007-0.07-0.021-0.195c-0.006-0.063-0.014-0.137-0.023-0.224c-0.011-0.095-0.029-0.163-0.094-0.245
				c-0.058-0.084-0.13-0.154-0.225-0.224c-0.101-0.073-0.215-0.104-0.34-0.163c-0.244-0.105-0.505-0.219-0.766-0.332
				c-0.243-0.121-0.524-0.209-0.768-0.308c-0.253-0.097-0.473-0.185-0.678-0.249C310.874,472.098,310.611,471.986,310.611,471.986z"
				/>
		</g>
		<path fill="#E51D2E" d="M309.266,480.21c0,0,0.024-0.263-0.11-0.517c-0.134-0.254-0.186-0.379-0.31-0.389
			c-0.124-0.008-0.258-0.018-0.439-0.049s-0.288-0.043-0.399-0.022s-0.384,0.229-0.375,0.3c0.008,0.072,0.164,0.23,0.205,0.256
			c0.041,0.027,0.185,0,0.363,0.004c0.179,0.003,0.486,0.021,0.672,0.107S309.266,480.21,309.266,480.21z"/>
		<path fill="#E51D2E" d="M305.644,478.175c0,0-0.087-1.063-0.157-1.223c-0.069-0.159-0.164-0.571-0.216-0.687
			c-0.052-0.114-0.221-0.447-0.25-0.581c-0.028-0.134-0.078-0.367,0.039-0.538c0.117-0.172,0.379-0.676,0.505-0.64
			c0.28,0.079,0.794,0.401,0.88,0.576c0.062,0.126,0.384,1.813,0.336,2.046c-0.048,0.234-0.167,1.014-0.356,1.242
			s-0.558,0.328-0.634,0.33C305.715,478.703,305.653,478.284,305.644,478.175z"/>
		<path fill="#E51D2E" d="M312.12,471.121c0.015,0.031-0.242-0.145-0.76-0.169c-0.518-0.025-0.532,0.03-0.741-0.067
			c-0.209-0.096-0.281-0.094-0.455-0.404c-0.174-0.309-0.354-0.574-0.124-0.642c0.231-0.067,0.318-0.269,0.608-0.163
			s0.2,0.03,0.405,0.232c0.206,0.202,0.345,0.237,0.714,0.66C312.137,470.99,312.12,471.121,312.12,471.121z"/>
		<path fill="#E51D2E" d="M312.147,479.067c-0.156-0.042-0.204,0.132-0.264,0.058s0.045-0.174,0.06-0.307
			c0.015-0.135,0.169-0.227,0.188-0.318s0.205-0.164,0.197,0.057c-0.008,0.219-0.034,0.225,0.085,0.297
			c0.119,0.073,0.138,0.287-0.064,0.25C312.147,479.067,312.147,479.067,312.147,479.067z"/>
		<path fill="#E51D2E" d="M313.263,478.338c0,0-0.377-0.08-0.448-0.16c-0.07-0.081-0.107-0.296-0.121-0.391
			c-0.014-0.096-0.031-0.281,0.052-0.439c0.083-0.157,0.168-0.47,0.416-0.637c0.248-0.168,0.304-0.213,0.504-0.266
			c0.201-0.055,0.467-0.008,0.428,0.115s-0.141,0.691-0.14,0.736c0.001,0.045-0.115,0.488-0.12,0.523
			c-0.004,0.033-0.321-0.012-0.321-0.012S313.458,478.388,313.263,478.338z"/>
		<path fill="#E32D44" stroke="#E32D44" stroke-width="0.1831" stroke-miterlimit="10" d="M312.512,475.118
			c0,0,0.176-0.256,0.022-0.441c-0.154-0.187-1.052-1.208-1.187-1.498s-0.436-0.183-0.639-0.305s-0.409,0.116-0.527-0.075
			s-0.6-0.59-0.542-0.475c0.057,0.114,0.523-0.17,0.697,0.203c0.174,0.374,0.593-0.445,0.991,0.109
			c0.398,0.556,0.282,0.599,0.597,0.992c0.39,0.488,0.408,0.29,0.733,0.633c0.326,0.344,0.047,0.859,0.204,1.225
			c0.157,0.363-0.081,0.449,0.011,0.637c0.092,0.188-0.246,0.092-0.289-0.168C312.541,475.695,312.512,475.118,312.512,475.118z"/>
	</g>
	
		<linearGradient id="SVGID_2_" gradientUnits="userSpaceOnUse" x1="312.0083" y1="485.4248" x2="318.5153" y2="481.8677" gradientTransform="matrix(0.9979 0.0645 -0.0645 0.9979 20.0024 -25.9231)">
		<stop  offset="0.089" style="stop-color:#FFFFFF"/>
		<stop  offset="1" style="stop-color:#E30613;stop-opacity:0.7"/>
	</linearGradient>
	<path fill="url(#SVGID_2_)" d="M303.461,477.979c-0.012-0.289-0.471-0.752-0.039-1.856c0.432-1.104-0.256-1.407,0.925-2.964
		c1.182-1.557,0.534-1.819,1.39-2.523c0.856-0.705,1.566-1.354,2.646-2.727c1.08-1.372,2.773-1.161,3.524-1.633
		c0.752-0.472,2.179-1.646,2.912-1.822c0.732-0.174,2.668-0.857,3.598-1.294c0.929-0.438,2.571-0.743,2.874-1.239
		c0.302-0.495,1.595-0.975,2.062-1.237c0.468-0.263,0.238-0.188,0.068,0.343c-0.169,0.529,0.297,0.289,0.611-0.051
		c0.315-0.34,2.285-0.844,2.4-0.881c0.115-0.038,2.77-1.376,2.77-1.376l0.843-0.486c0,0-1.298,1.269-1.491,1.628
		c-0.192,0.358,1.834-0.152,1.94-0.213s2.781-2.254,2.918-2.279c0.137-0.024,1.852-0.42,2.193-0.466s1.735-0.699,1.735-0.699
		s-0.914,0.55-1.505,1.322c-0.59,0.772,0.005,0.973,0.221,0.771c0.216-0.201,0.385-0.731,1.206-0.881
		c0.82-0.15-1.503,2.336-1.503,2.336s-0.956,0.15-1.667,0.707c-0.712,0.559-0.931,0.814-1.092,1.209
		c-0.161,0.396-0.684,1.166-0.469,0.98s2.275-1.742,0.215-0.186s-2.416,1.827-2.919,2.29c-0.503,0.462-1.788,1.528-1.788,1.528
		s-1.398,0.723-1.703,1.243c-0.304,0.52-0.801,1.942-1.493,2.185c-0.691,0.241-2.116,1.365-2.537,1.609
		c-0.421,0.242-2.018,1.243-1.614,1.27c0.404,0.025-0.947,0.704-1.272,0.863c-0.326,0.16-1.131,1.459-1.139,1.594
		c-0.009,0.135-1.018,1.105-1.203,1.184s-1.075,0.607-1.075,0.607s-2.361,2.744-2.501,2.825c-0.141,0.081-2.671,1.255-2.671,1.255
		l-1.876,0.154l-1.421,0.014c0,0-1.378,0.076-3.454-1.207C303.963,479.804,303.492,478.738,303.461,477.979z"/>
</g>
<g>
	<g>
		<path fill="#E9445A" stroke="#E30613" stroke-width="0.1381" stroke-miterlimit="10" d="M177.098,473.639
			c-0.028-0.061-0.353-0.378-0.361-0.582c-0.008-0.203-0.053-0.409-0.125-0.547c-0.073-0.136,0.012-0.215-0.077-0.367
			c-0.09-0.154-0.098-0.227,0.045-0.446c0.143-0.219,0.399-0.979,0.326-1.245c-0.072-0.268,0.073-1.071,0.067-1.467
			c-0.004-0.396,0.04-0.45,0.634-0.978c0.594-0.526,1.074-0.775,1.437-1.365c0.362-0.592,0.253-0.993,0.761-1.31
			c0.508-0.318,1.525-1.083,2.277-1.423c0.752-0.341,1.201-1.141,2.322-0.955c1.122,0.185,2.771,0.3,3.37,0.135
			s1.723,0.904,2.132,1.142c0.411,0.24,3.851,2.728,4.164,3c0.313,0.273,1.063,1.889,0.786,2.141
			c-0.276,0.251-0.769,0.715-0.55,1.124c0.22,0.411,0.255,1.196,0.117,2.038c-0.139,0.842-0.025,0.303-0.392,1.053
			c-0.367,0.751,0.65,0.375-0.773,1.004c-1.424,0.628-1.678,1.097-2.031,1.37c-0.353,0.273-0.515,0.375-1.174,0.318
			c-0.658-0.058,0.44-0.743-0.992,0.203c-1.431,0.945-1.115,1.321-1.773,1.264c-0.658-0.058-0.699-0.031-1.097,0.165
			c-0.398,0.197,0.17,0.362-0.642,0.089c-0.813-0.274-1.169-1.146-2.324-0.84c-1.154,0.305-1.489,0.565-1.862,0.328
			c0,0-0.755-0.413-1.048-0.698c-0.292-0.287-0.219-0.803-0.845-1.088c-0.625-0.287-1.764-0.879-1.982-1.159
			C177.268,474.263,177.098,473.639,177.098,473.639z"/>
		<path fill="#E51D2E" d="M182.321,475.894c0,0-0.894,0.168-0.942-0.53c-0.048-0.701,0.222-1.937,0.197-2.287
			c-0.024-0.349-0.076-1.671-0.254-2.106c-0.178-0.437,0.066-0.72-0.162-0.94c-0.228-0.225-0.236-0.428-0.987-0.608
			c-0.752-0.182-1.029-0.062-1.276-0.662c-0.248-0.601-0.544-0.468-0.174-0.854c0.371-0.388-0.068-0.296,0.473-0.713
			c0.541-0.416,1.989-1.477,2.058-1.963c0.07-0.487-0.302-0.59-0.063-0.714s1.042-0.611,1.236-0.682
			c0.196-0.068,0.102-0.098,0.553-0.371c0.679-0.412,0.595-0.461,1.199-0.424c0.606,0.038,0.929-0.036,1.364,0.292
			c0.435,0.327,0.597,0.096,0.939,0.56c0.34,0.465,0.519,0.64,1.132,1.532c0.613,0.894-0.354,0.664,0.886,1.063
			c1.238,0.399,1.434,0.329,2.58,0.732c1.146,0.404,2.119,0.607,2.383,0.834c0.264,0.226,0.055-0.126,0.472,0.837
			c0.418,0.964,0.364,2.231,0.12,2.384c-0.244,0.153-1.35,0.115-1.829,0.493c-0.48,0.378,0.069,0.164-0.871,1.038
			c-0.94,0.875-2.608,2.436-3.169,2.865c-0.562,0.429-0.77,0.845-1.573,0.514c-0.805-0.331-2.032-1.205-2.76-0.776
			C183.127,475.834,182.321,475.894,182.321,475.894z"/>
		<g>
			<path fill="#E32D44" d="M181.689,476.018c0.242,0.01,0.483-0.02,0.72-0.067c0.235-0.045,0.477-0.089,0.695-0.183
				c0.222-0.085,0.421-0.212,0.636-0.334c0.227-0.15,0.508-0.112,0.751-0.093c0.249,0.009,0.512,0.116,0.72,0.207l0.672,0.276
				c0.219,0.079,0.458,0.202,0.66,0.313c0.201,0.1,0.444,0.187,0.607,0.155c0.226-0.061,0.388-0.186,0.583-0.333
				c0.183-0.142,0.344-0.316,0.53-0.478c0.355-0.329,0.729-0.638,1.09-0.96l2.149-1.958l-0.009,0.01
				c0.097-0.119,0.197-0.238,0.281-0.354c0.082-0.102,0.184-0.273,0.313-0.373c0.062-0.055,0.13-0.102,0.202-0.145
				c0.068-0.04,0.177-0.073,0.247-0.082l0.455-0.085l0.456-0.079c0.149-0.031,0.312-0.043,0.446-0.085
				c0.292-0.107,0.303-0.496,0.336-0.781c0,0.153-0.006,0.312-0.041,0.463c-0.016,0.148-0.114,0.319-0.27,0.38
				c-0.158,0.061-0.306,0.078-0.456,0.122l-0.451,0.111l-0.452,0.106c-0.084,0.016-0.122,0.034-0.188,0.07
				c-0.059,0.039-0.117,0.082-0.169,0.132c-0.113,0.099-0.164,0.201-0.267,0.348c-0.091,0.138-0.186,0.259-0.279,0.383l-0.003,0.004
				l-0.006,0.006c-0.691,0.68-1.401,1.338-2.111,1.997l-1.087,0.965c-0.183,0.153-0.354,0.334-0.557,0.487
				c-0.187,0.145-0.43,0.31-0.676,0.369c-0.323,0.051-0.553-0.077-0.781-0.181c-0.221-0.126-0.414-0.222-0.646-0.32l-0.661-0.302
				c-0.232-0.108-0.418-0.199-0.66-0.219c-0.229-0.024-0.466-0.075-0.663,0.051c-0.21,0.11-0.434,0.225-0.67,0.299
				c-0.235,0.082-0.477,0.108-0.72,0.139C182.176,476.03,181.93,476.044,181.689,476.018z"/>
		</g>
		<g>
			<path fill="#E32D44" d="M181.83,476.027c0,0-0.056-0.007-0.16-0.032c-0.1-0.024-0.258-0.102-0.371-0.268
				c-0.154-0.155-0.161-0.426-0.151-0.704c0.028-0.272,0.061-0.579,0.095-0.914c0.039-0.336,0.08-0.701,0.124-1.086
				c-0.01-0.333-0.123-0.771-0.174-1.18c-0.056-0.431-0.153-0.829-0.206-1.302c0.019-0.298-0.128-0.327-0.261-0.508
				c-0.071-0.059-0.153-0.212-0.219-0.183l-0.327-0.091l-0.639-0.173c-0.199-0.037-0.45-0.132-0.63-0.315
				c-0.101-0.074-0.158-0.196-0.231-0.297l-0.161-0.265l-0.084-0.14c-0.028-0.06-0.045-0.047-0.097-0.145
				c-0.083-0.159-0.029-0.308,0.027-0.421c0.064-0.113,0.115-0.182,0.194-0.277c0.038-0.047,0.046-0.054,0.052-0.078
				c0.008-0.047,0.024-0.104,0.053-0.169c0.114-0.254,0.322-0.313,0.462-0.443c0.313-0.24,0.614-0.431,0.864-0.664
				c0.253-0.221,0.484-0.423,0.69-0.603c0.096-0.095,0.211-0.165,0.273-0.265c0.049-0.108,0.089-0.209,0.115-0.302
				c0.019-0.179-0.088-0.33-0.097-0.433c-0.034-0.102-0.01-0.163-0.017-0.161c0.007-0.001-0.012,0.06,0.029,0.158
				c0.016,0.106,0.134,0.228,0.131,0.444c-0.02,0.101-0.054,0.207-0.094,0.318c-0.054,0.104-0.164,0.186-0.254,0.291
				c-0.192,0.208-0.417,0.434-0.664,0.659c-0.236,0.241-0.549,0.463-0.842,0.707c-0.14,0.129-0.347,0.236-0.385,0.376
				c-0.014,0.029-0.027,0.069-0.034,0.126c-0.014,0.079-0.071,0.154-0.101,0.188c-0.054,0.063-0.126,0.167-0.164,0.239
				c-0.035,0.075-0.054,0.149-0.025,0.188c-0.013,0.005,0.068,0.08,0.085,0.122l0.086,0.138l0.185,0.295
				c0.062,0.073,0.095,0.164,0.179,0.222c0.137,0.138,0.319,0.209,0.561,0.26l0.669,0.178l0.325,0.095
				c0.175,0.054,0.19,0.163,0.285,0.242c0.071,0.074,0.168,0.204,0.239,0.312c0.022,0.067,0.054,0.061,0.068,0.19l0.011,0.153
				c0.035,0.411,0.138,0.87,0.184,1.281c0.052,0.431,0.137,0.802,0.14,1.238c-0.06,0.385-0.117,0.748-0.169,1.084
				c-0.056,0.337-0.106,0.646-0.152,0.921c-0.026,0.262-0.043,0.51,0.09,0.663C181.552,476.043,181.85,476.01,181.83,476.027z"/>
		</g>
		<g>
			<path fill="#E32D44" d="M187.869,466.344c0,0,0.452,0.067,1.125,0.19c0.333,0.063,0.74,0.148,1.147,0.257
				c0.416,0.111,0.848,0.214,1.301,0.346c0.426,0.162,0.852,0.323,1.25,0.475c0.198,0.079,0.39,0.155,0.572,0.228
				c0.186,0.073,0.36,0.21,0.481,0.327c0.124,0.126,0.24,0.258,0.254,0.434c-0.005,0.14-0.009,0.261-0.012,0.36
				c-0.008,0.199-0.013,0.313-0.013,0.313s-0.012-0.113-0.033-0.313c-0.011-0.1-0.025-0.22-0.041-0.357
				c-0.023-0.104-0.137-0.218-0.258-0.321c-0.136-0.105-0.263-0.198-0.448-0.255c-0.186-0.061-0.382-0.125-0.585-0.192
				c-0.403-0.141-0.833-0.29-1.264-0.439c-0.867-0.259-1.734-0.517-2.385-0.711C188.303,466.489,187.869,466.344,187.869,466.344z"
				/>
		</g>
		<path fill="#E51D2E" d="M185.574,477.316c0,0,0.042-0.351-0.188-0.689c-0.229-0.339-0.316-0.505-0.528-0.519
			c-0.211-0.01-0.44-0.023-0.75-0.065c-0.309-0.041-0.492-0.057-0.681-0.029s-0.655,0.305-0.641,0.399
			c0.014,0.097,0.28,0.308,0.349,0.342c0.069,0.036,0.315,0,0.62,0.005c0.305,0.004,0.829,0.029,1.146,0.144
			C185.22,477.019,185.574,477.316,185.574,477.316z"/>
		<path fill="#E51D2E" d="M179.395,474.602c0,0-0.149-1.42-0.267-1.632c-0.118-0.212-0.279-0.763-0.368-0.916
			c-0.089-0.152-0.377-0.597-0.427-0.775c-0.048-0.179-0.133-0.489,0.066-0.718c0.199-0.229,0.646-0.901,0.861-0.854
			c0.477,0.105,1.355,0.535,1.501,0.769c0.106,0.168,0.656,2.42,0.574,2.73c-0.082,0.313-0.286,1.352-0.607,1.657
			c-0.322,0.305-0.951,0.438-1.082,0.44C179.516,475.306,179.411,474.747,179.395,474.602z"/>
		<path fill="#E51D2E" d="M190.443,465.189c0.026,0.042-0.412-0.192-1.297-0.226c-0.884-0.033-0.908,0.041-1.265-0.09
			c-0.356-0.127-0.48-0.125-0.776-0.539c-0.296-0.412-0.604-0.767-0.211-0.856c0.394-0.09,0.543-0.358,1.037-0.217
			c0.494,0.141,0.342,0.04,0.691,0.31c0.351,0.27,0.588,0.316,1.219,0.881C190.473,465.015,190.443,465.189,190.443,465.189z"/>
		<path fill="#E51D2E" d="M190.49,475.792c-0.267-0.056-0.349,0.176-0.45,0.077c-0.102-0.1,0.078-0.232,0.103-0.409
			c0.026-0.18,0.289-0.303,0.321-0.425c0.032-0.123,0.349-0.219,0.336,0.075c-0.013,0.292-0.058,0.3,0.145,0.396
			c0.203,0.098,0.236,0.383-0.11,0.333C190.49,475.792,190.49,475.792,190.49,475.792z"/>
		<path fill="#E51D2E" d="M192.394,474.818c0,0-0.643-0.106-0.764-0.213c-0.12-0.108-0.182-0.396-0.207-0.521
			c-0.024-0.128-0.052-0.375,0.089-0.587c0.142-0.209,0.287-0.626,0.709-0.85s0.519-0.283,0.861-0.354
			c0.343-0.073,0.797-0.011,0.73,0.153c-0.067,0.164-0.24,0.923-0.238,0.982c0.002,0.06-0.197,0.651-0.204,0.698
			c-0.007,0.045-0.548-0.016-0.548-0.016S192.725,474.885,192.394,474.818z"/>
		<path fill="#E32D44" stroke="#E32D44" stroke-width="0.2762" stroke-miterlimit="10" d="M191.112,470.522
			c0,0,0.301-0.341,0.038-0.589c-0.263-0.249-1.794-1.611-2.025-1.998c-0.23-0.388-0.743-0.244-1.09-0.407
			c-0.347-0.163-0.698,0.155-0.899-0.101c-0.202-0.255-1.023-0.786-0.926-0.633c0.097,0.152,0.893-0.227,1.19,0.271
			c0.296,0.499,1.011-0.595,1.691,0.146c0.68,0.741,0.48,0.799,1.018,1.324c0.666,0.651,0.695,0.387,1.251,0.844
			c0.556,0.459,0.081,1.146,0.348,1.634c0.268,0.485-0.137,0.6,0.019,0.85c0.156,0.25-0.42,0.123-0.493-0.224
			C191.162,471.293,191.112,470.522,191.112,470.522z"/>
	</g>
	
		<linearGradient id="SVGID_3_" gradientUnits="userSpaceOnUse" x1="183.1069" y1="491.8398" x2="193.6187" y2="486.0935" gradientTransform="matrix(0.9979 0.0645 -0.0645 0.9979 20.0024 -25.9231)">
		<stop  offset="0.089" style="stop-color:#FFFFFF"/>
		<stop  offset="1" style="stop-color:#E30613;stop-opacity:0.7"/>
	</linearGradient>
	<path fill="url(#SVGID_3_)" d="M175.671,474.339c-0.02-0.386-0.804-1.003-0.067-2.477c0.736-1.474-0.437-1.878,1.579-3.954
		c2.017-2.077,0.911-2.428,2.372-3.367c1.461-0.941,2.671-1.808,4.514-3.638c1.842-1.831,4.731-1.55,6.013-2.179
		c1.283-0.63,3.718-2.197,4.967-2.432c1.25-0.231,4.552-1.144,6.138-1.727c1.585-0.584,4.387-0.991,4.902-1.653
		c0.516-0.66,2.721-1.301,3.518-1.651c0.798-0.35,0.406-0.25,0.117,0.458c-0.289,0.706,0.506,0.386,1.043-0.068
		c0.537-0.453,3.897-1.125,4.094-1.175c0.196-0.051,4.725-1.836,4.725-1.836l1.438-0.648c0,0-2.215,1.692-2.543,2.172
		c-0.328,0.478,3.13-0.203,3.31-0.284c0.18-0.081,4.745-3.008,4.978-3.041c0.234-0.033,3.16-0.561,3.741-0.622
		c0.582-0.061,2.959-0.933,2.959-0.933s-1.559,0.733-2.567,1.765c-1.007,1.03,0.008,1.297,0.377,1.027
		c0.368-0.269,0.657-0.976,2.057-1.175c1.399-0.201-2.564,3.116-2.564,3.116s-1.63,0.201-2.845,0.943
		c-1.214,0.746-1.588,1.087-1.862,1.613c-0.275,0.527-1.167,1.556-0.801,1.309c0.367-0.248,3.882-2.325,0.367-0.248
		c-3.516,2.077-4.122,2.438-4.98,3.056c-0.858,0.616-3.05,2.039-3.05,2.039s-2.386,0.964-2.905,1.659
		c-0.518,0.692-1.367,2.591-2.546,2.914c-1.18,0.322-3.609,1.822-4.329,2.147c-0.719,0.323-3.442,1.659-2.753,1.694
		c0.689,0.033-1.615,0.939-2.171,1.151c-0.556,0.214-1.929,1.946-1.943,2.127c-0.015,0.18-1.737,1.475-2.053,1.579
		c-0.315,0.104-1.834,0.811-1.834,0.811s-4.028,3.661-4.267,3.77c-0.24,0.107-4.558,1.674-4.558,1.674l-3.201,0.206l-2.425,0.019
		c0,0-2.351,0.102-5.893-1.611C176.527,476.774,175.723,475.353,175.671,474.339z"/>
</g>
<g>
	<g>
		<path fill="#E9445A" stroke="#E30613" stroke-width="0.0915" stroke-miterlimit="10" d="M280.811,534.859
			c-0.017-0.045-0.207-0.283-0.212-0.436c-0.004-0.152-0.031-0.307-0.073-0.41c-0.043-0.102,0.007-0.161-0.045-0.275
			c-0.053-0.115-0.058-0.17,0.026-0.334c0.083-0.164,0.234-0.734,0.191-0.934c-0.042-0.2,0.043-0.803,0.04-1.1
			c-0.002-0.297,0.023-0.337,0.372-0.732c0.348-0.395,0.629-0.581,0.842-1.023c0.212-0.443,0.148-0.744,0.446-0.981
			c0.298-0.238,0.894-0.812,1.335-1.066s0.704-0.854,1.361-0.716c0.658,0.139,1.625,0.225,1.975,0.102
			c0.351-0.124,1.01,0.678,1.25,0.855c0.241,0.18,2.257,2.044,2.44,2.248c0.184,0.205,0.624,1.416,0.461,1.604
			c-0.162,0.188-0.451,0.536-0.322,0.843c0.129,0.308,0.149,0.896,0.068,1.527c-0.082,0.631-0.015,0.227-0.229,0.789
			s0.381,0.281-0.453,0.752c-0.834,0.471-0.983,0.822-1.19,1.027c-0.207,0.205-0.302,0.281-0.688,0.238
			c-0.386-0.043,0.258-0.557-0.582,0.152c-0.839,0.709-0.653,0.99-1.04,0.947c-0.386-0.043-0.41-0.023-0.643,0.124
			s0.1,0.271-0.376,0.066c-0.477-0.206-0.686-0.858-1.362-0.63s-0.873,0.424-1.091,0.246c0,0-0.443-0.31-0.614-0.523
			c-0.171-0.215-0.128-0.602-0.495-0.815c-0.367-0.215-1.034-0.658-1.162-0.868S280.811,534.859,280.811,534.859z"/>
		<path fill="#E51D2E" d="M283.873,536.55c0,0-0.524,0.126-0.552-0.397c-0.028-0.525,0.13-1.451,0.116-1.714
			c-0.014-0.262-0.044-1.253-0.149-1.579c-0.104-0.327,0.039-0.539-0.095-0.705c-0.133-0.168-0.138-0.32-0.579-0.456
			c-0.441-0.136-0.603-0.046-0.748-0.496s-0.319-0.351-0.102-0.641c0.217-0.29-0.04-0.222,0.277-0.534
			c0.317-0.312,1.166-1.106,1.207-1.471c0.041-0.365-0.177-0.442-0.037-0.535s0.61-0.458,0.725-0.511
			c0.115-0.052,0.06-0.073,0.324-0.278c0.398-0.309,0.349-0.346,0.703-0.317c0.355,0.028,0.544-0.027,0.799,0.219
			c0.255,0.245,0.35,0.071,0.55,0.419c0.2,0.349,0.304,0.479,0.664,1.148c0.359,0.67-0.208,0.498,0.519,0.797
			c0.726,0.299,0.841,0.246,1.512,0.549c0.672,0.303,1.242,0.455,1.397,0.625c0.155,0.169,0.032-0.095,0.277,0.627
			c0.245,0.723,0.213,1.673,0.07,1.787s-0.791,0.086-1.072,0.369s0.041,0.123-0.51,0.778c-0.551,0.655-1.529,1.825-1.857,2.147
			c-0.329,0.321-0.451,0.633-0.922,0.385c-0.472-0.248-1.191-0.903-1.618-0.582C284.345,536.505,283.873,536.55,283.873,536.55z"/>
		<g>
			<path fill="#E32D44" d="M283.502,536.643c0.303,0,0.613-0.074,0.877-0.208c0.133-0.071,0.239-0.175,0.38-0.259
				c0.168-0.084,0.326-0.032,0.485-0.012c0.175,0.039,0.292,0.133,0.431,0.199l0.405,0.219c0.267,0.145,0.526,0.414,0.746,0.221
				c0.234-0.164,0.403-0.422,0.61-0.648l0.612-0.688l1.203-1.394l-0.004,0.006l0.156-0.254c0.049-0.075,0.092-0.18,0.165-0.267
				c0.07-0.078,0.142-0.163,0.268-0.196l0.293-0.074l0.294-0.068c0.095-0.027,0.205-0.031,0.273-0.088
				c0.139-0.131,0.138-0.364,0.158-0.557c0.002,0.102-0.003,0.203-0.014,0.305c-0.017,0.096-0.031,0.21-0.115,0.285
				c-0.086,0.078-0.195,0.082-0.289,0.119l-0.29,0.09l-0.292,0.084c-0.074,0.02-0.146,0.095-0.205,0.167
				c-0.057,0.069-0.091,0.155-0.146,0.252c-0.049,0.095-0.103,0.179-0.154,0.267l-0.002,0.002l-0.002,0.004l-1.167,1.422
				c-0.194,0.234-0.395,0.467-0.603,0.692c-0.212,0.218-0.39,0.484-0.667,0.669c-0.135,0.115-0.373,0.104-0.503,0.014
				c-0.149-0.073-0.26-0.186-0.392-0.251l-0.399-0.228c-0.134-0.07-0.267-0.171-0.395-0.197c-0.134-0.027-0.306-0.067-0.415-0.01
				c-0.122,0.072-0.251,0.172-0.394,0.236C284.121,536.617,283.807,536.666,283.502,536.643z"/>
		</g>
		<g>
			<path fill="#E32D44" d="M283.584,536.65c0.015-0.005-0.201,0.006-0.331-0.262c-0.077-0.125-0.079-0.307-0.072-0.496
				c0.015-0.192,0.032-0.408,0.051-0.645c0.022-0.236,0.045-0.491,0.071-0.762c0.036-0.246-0.053-0.547-0.075-0.835
				c-0.037-0.294-0.076-0.599-0.115-0.908c-0.031-0.146-0.006-0.329-0.083-0.447c-0.07-0.073-0.155-0.291-0.267-0.3l-0.438-0.158
				c-0.139-0.047-0.295-0.08-0.425-0.229c-0.132-0.131-0.17-0.287-0.241-0.415l-0.096-0.198c-0.051-0.076-0.068-0.196-0.035-0.271
				c0.055-0.184,0.151-0.257,0.183-0.393c0.009-0.063,0.048-0.146,0.104-0.223c0.037-0.047,0.096-0.096,0.142-0.143
				c0.194-0.195,0.387-0.354,0.538-0.539c0.156-0.176,0.298-0.336,0.425-0.479c0.146-0.129,0.196-0.302,0.211-0.43
				c0.008-0.133-0.052-0.238-0.048-0.313c-0.009-0.073-0.014-0.112-0.014-0.112s0.007,0.039,0.022,0.112
				c0,0.073,0.067,0.171,0.07,0.312c-0.007,0.148-0.044,0.313-0.182,0.459c-0.116,0.158-0.251,0.335-0.406,0.512
				c-0.145,0.187-0.346,0.363-0.53,0.557c-0.047,0.051-0.097,0.092-0.144,0.153c-0.021,0.042-0.055,0.079-0.064,0.16
				c-0.029,0.146-0.156,0.294-0.173,0.399c-0.022,0.063-0.009,0.107,0.018,0.156c0.046,0.074,0.071,0.137,0.108,0.207
				c0.077,0.135,0.125,0.292,0.225,0.377c0.078,0.1,0.241,0.143,0.399,0.191l0.455,0.156c0.189,0.096,0.213,0.239,0.327,0.404
				c0.083,0.162,0.048,0.314,0.077,0.471c0.031,0.31,0.063,0.613,0.092,0.908c0.016,0.3,0.095,0.567,0.056,0.861
				c-0.032,0.27-0.062,0.525-0.089,0.762c-0.031,0.234-0.059,0.451-0.084,0.643c-0.02,0.191-0.03,0.357,0.034,0.48
				C283.388,536.643,283.597,536.645,283.584,536.65z"/>
		</g>
		<g>
			<path fill="#E32D44" d="M287.124,529.393c0,0,0.28,0.056,0.692,0.161c0.206,0.052,0.452,0.136,0.701,0.216
				c0.254,0.088,0.523,0.153,0.796,0.271c0.254,0.126,0.508,0.253,0.747,0.371c0.238,0.102,0.473,0.255,0.587,0.459
				c0.07,0.081,0.087,0.225,0.077,0.297c-0.004,0.087-0.009,0.162-0.012,0.225c-0.006,0.125-0.01,0.195-0.01,0.195
				s-0.007-0.07-0.021-0.195c-0.006-0.063-0.014-0.137-0.023-0.224c-0.011-0.095-0.029-0.163-0.094-0.245
				c-0.058-0.084-0.13-0.154-0.225-0.224c-0.101-0.073-0.215-0.104-0.34-0.163c-0.244-0.105-0.505-0.219-0.766-0.332
				c-0.243-0.121-0.524-0.209-0.768-0.308c-0.253-0.097-0.473-0.185-0.678-0.249C287.387,529.504,287.124,529.393,287.124,529.393z"
				/>
		</g>
		<path fill="#E51D2E" d="M285.779,537.616c0,0,0.024-0.263-0.11-0.517c-0.134-0.254-0.186-0.379-0.31-0.389
			c-0.124-0.008-0.258-0.018-0.439-0.049s-0.288-0.043-0.399-0.022s-0.384,0.229-0.375,0.3c0.008,0.072,0.164,0.23,0.205,0.256
			c0.041,0.027,0.185,0,0.363,0.004c0.179,0.003,0.486,0.021,0.672,0.107S285.779,537.616,285.779,537.616z"/>
		<path fill="#E51D2E" d="M282.157,535.581c0,0-0.087-1.063-0.157-1.223c-0.069-0.159-0.164-0.571-0.216-0.687
			c-0.052-0.114-0.221-0.447-0.25-0.581c-0.028-0.134-0.078-0.367,0.039-0.538c0.117-0.172,0.379-0.676,0.505-0.64
			c0.28,0.079,0.794,0.401,0.88,0.576c0.062,0.126,0.384,1.813,0.336,2.046c-0.048,0.234-0.167,1.014-0.356,1.242
			s-0.558,0.328-0.634,0.33C282.228,536.109,282.167,535.69,282.157,535.581z"/>
		<path fill="#E51D2E" d="M288.633,528.527c0.015,0.031-0.242-0.145-0.76-0.169c-0.518-0.025-0.532,0.03-0.741-0.067
			c-0.209-0.096-0.281-0.094-0.455-0.404c-0.174-0.309-0.354-0.574-0.124-0.642c0.231-0.067,0.318-0.269,0.608-0.163
			s0.2,0.03,0.405,0.232c0.206,0.202,0.345,0.237,0.714,0.66C288.65,528.396,288.633,528.527,288.633,528.527z"/>
		<path fill="#E51D2E" d="M288.661,536.474c-0.156-0.042-0.204,0.132-0.264,0.058s0.045-0.174,0.06-0.307
			c0.015-0.135,0.169-0.227,0.188-0.318s0.205-0.164,0.197,0.057c-0.008,0.219-0.034,0.225,0.085,0.297
			c0.119,0.073,0.138,0.287-0.064,0.25C288.661,536.474,288.661,536.474,288.661,536.474z"/>
		<path fill="#E51D2E" d="M289.776,535.744c0,0-0.377-0.08-0.448-0.16c-0.07-0.081-0.107-0.296-0.121-0.391
			c-0.014-0.096-0.031-0.281,0.052-0.439c0.083-0.157,0.168-0.47,0.416-0.637c0.248-0.168,0.304-0.213,0.504-0.266
			c0.201-0.055,0.467-0.008,0.428,0.115s-0.141,0.691-0.14,0.736c0.001,0.045-0.115,0.488-0.12,0.523
			c-0.004,0.033-0.321-0.012-0.321-0.012S289.971,535.794,289.776,535.744z"/>
		<path fill="#E32D44" stroke="#E32D44" stroke-width="0.1831" stroke-miterlimit="10" d="M289.025,532.524
			c0,0,0.176-0.256,0.022-0.441c-0.154-0.187-1.052-1.208-1.187-1.498s-0.436-0.183-0.639-0.305s-0.409,0.116-0.527-0.075
			s-0.6-0.59-0.542-0.475c0.057,0.114,0.523-0.17,0.697,0.203c0.174,0.374,0.593-0.445,0.991,0.109
			c0.398,0.556,0.282,0.599,0.597,0.992c0.39,0.488,0.408,0.29,0.733,0.633c0.326,0.344,0.047,0.859,0.204,1.225
			c0.157,0.363-0.081,0.449,0.011,0.637c0.092,0.188-0.246,0.092-0.289-0.168C289.054,533.102,289.025,532.524,289.025,532.524z"/>
	</g>
	
		<linearGradient id="SVGID_4_" gradientUnits="userSpaceOnUse" x1="292.2729" y1="544.2266" x2="298.78" y2="540.6694" gradientTransform="matrix(0.9979 0.0645 -0.0645 0.9979 20.0024 -25.9231)">
		<stop  offset="0.089" style="stop-color:#FFFFFF"/>
		<stop  offset="1" style="stop-color:#E30613;stop-opacity:0.7"/>
	</linearGradient>
	<path fill="url(#SVGID_4_)" d="M279.974,535.385c-0.012-0.289-0.471-0.752-0.039-1.856c0.432-1.104-0.256-1.407,0.925-2.964
		c1.182-1.557,0.534-1.819,1.39-2.523c0.856-0.705,1.566-1.354,2.646-2.727c1.08-1.372,2.773-1.161,3.524-1.633
		c0.752-0.472,2.179-1.646,2.912-1.822c0.732-0.174,2.668-0.857,3.598-1.294c0.929-0.438,2.571-0.743,2.874-1.239
		c0.302-0.495,1.595-0.975,2.062-1.237c0.468-0.263,0.238-0.188,0.068,0.343c-0.169,0.529,0.297,0.289,0.611-0.051
		c0.315-0.34,2.285-0.844,2.4-0.881c0.115-0.038,2.77-1.376,2.77-1.376l0.843-0.486c0,0-1.298,1.269-1.491,1.628
		c-0.192,0.358,1.834-0.152,1.94-0.213s2.781-2.254,2.918-2.279c0.137-0.024,1.852-0.42,2.193-0.466s1.735-0.699,1.735-0.699
		s-0.914,0.55-1.505,1.322c-0.59,0.772,0.005,0.973,0.221,0.771c0.216-0.201,0.385-0.731,1.206-0.881
		c0.82-0.15-1.503,2.336-1.503,2.336s-0.956,0.15-1.667,0.707c-0.712,0.559-0.931,0.814-1.092,1.209
		c-0.161,0.396-0.684,1.166-0.469,0.98s2.275-1.742,0.215-0.186s-2.416,1.827-2.919,2.29c-0.503,0.462-1.788,1.528-1.788,1.528
		s-1.398,0.723-1.703,1.243c-0.304,0.52-0.801,1.942-1.493,2.185c-0.691,0.241-2.116,1.365-2.537,1.609
		c-0.421,0.242-2.018,1.243-1.614,1.27c0.404,0.025-0.947,0.704-1.272,0.863c-0.326,0.16-1.131,1.459-1.139,1.594
		c-0.009,0.135-1.018,1.105-1.203,1.184s-1.075,0.607-1.075,0.607s-2.361,2.744-2.501,2.825c-0.141,0.081-2.671,1.255-2.671,1.255
		l-1.876,0.154l-1.421,0.014c0,0-1.378,0.076-3.454-1.207C280.476,537.21,280.005,536.145,279.974,535.385z"/>
</g>
<g>
	<g>
		<path fill="#E9445A" stroke="#E30613" stroke-width="0.0915" stroke-miterlimit="10" d="M131.595,353.208
			c-0.017-0.045-0.207-0.283-0.212-0.436c-0.004-0.152-0.031-0.307-0.073-0.41c-0.043-0.102,0.007-0.161-0.045-0.275
			c-0.053-0.115-0.058-0.17,0.026-0.334c0.083-0.164,0.234-0.734,0.191-0.934c-0.042-0.2,0.043-0.803,0.04-1.1
			c-0.002-0.297,0.023-0.337,0.372-0.732c0.348-0.395,0.629-0.581,0.842-1.023c0.212-0.443,0.148-0.744,0.446-0.981
			c0.298-0.238,0.894-0.812,1.335-1.066s0.704-0.854,1.361-0.716c0.658,0.139,1.625,0.225,1.975,0.102
			c0.351-0.124,1.01,0.678,1.25,0.855c0.241,0.18,2.257,2.044,2.44,2.248c0.184,0.205,0.624,1.416,0.461,1.604
			c-0.162,0.188-0.451,0.536-0.322,0.843c0.129,0.308,0.149,0.896,0.068,1.527c-0.082,0.631-0.015,0.227-0.229,0.789
			s0.381,0.281-0.453,0.752c-0.834,0.471-0.983,0.822-1.19,1.027c-0.207,0.205-0.302,0.281-0.688,0.238
			c-0.386-0.043,0.258-0.557-0.582,0.152c-0.839,0.709-0.653,0.99-1.04,0.947c-0.386-0.043-0.41-0.023-0.643,0.124
			s0.1,0.271-0.376,0.066c-0.477-0.206-0.686-0.858-1.362-0.63s-0.873,0.424-1.091,0.246c0,0-0.443-0.31-0.614-0.523
			c-0.171-0.215-0.128-0.602-0.495-0.815c-0.367-0.215-1.034-0.658-1.162-0.868S131.595,353.208,131.595,353.208z"/>
		<path fill="#E51D2E" d="M134.657,354.898c0,0-0.524,0.126-0.552-0.397c-0.028-0.525,0.13-1.451,0.116-1.714
			c-0.014-0.262-0.044-1.253-0.149-1.579c-0.104-0.327,0.039-0.539-0.095-0.705c-0.133-0.168-0.138-0.32-0.579-0.456
			c-0.441-0.136-0.603-0.046-0.748-0.496s-0.319-0.351-0.102-0.641c0.217-0.29-0.04-0.222,0.277-0.534
			c0.317-0.312,1.166-1.106,1.207-1.471c0.041-0.365-0.177-0.442-0.037-0.535s0.61-0.458,0.725-0.511
			c0.115-0.052,0.06-0.073,0.324-0.278c0.398-0.309,0.349-0.346,0.703-0.317c0.355,0.028,0.544-0.027,0.799,0.219
			c0.255,0.245,0.35,0.071,0.55,0.419c0.2,0.349,0.304,0.479,0.664,1.148c0.359,0.67-0.208,0.498,0.519,0.797
			c0.726,0.299,0.841,0.246,1.512,0.549c0.672,0.303,1.242,0.455,1.397,0.625c0.155,0.169,0.032-0.095,0.277,0.627
			c0.245,0.723,0.213,1.673,0.07,1.787s-0.791,0.086-1.072,0.369s0.041,0.123-0.51,0.778c-0.551,0.655-1.529,1.825-1.857,2.147
			c-0.329,0.321-0.451,0.633-0.922,0.385c-0.472-0.248-1.191-0.903-1.618-0.582C135.129,354.854,134.657,354.898,134.657,354.898z"
			/>
		<g>
			<path fill="#E32D44" d="M134.287,354.991c0.303,0,0.613-0.074,0.877-0.208c0.133-0.071,0.239-0.175,0.38-0.259
				c0.168-0.084,0.326-0.032,0.485-0.012c0.175,0.039,0.292,0.133,0.431,0.199l0.405,0.219c0.267,0.145,0.526,0.414,0.746,0.221
				c0.234-0.164,0.403-0.422,0.61-0.648l0.612-0.688l1.203-1.394l-0.004,0.006l0.156-0.254c0.049-0.075,0.092-0.18,0.165-0.267
				c0.07-0.078,0.142-0.163,0.268-0.196l0.293-0.074l0.294-0.068c0.095-0.027,0.205-0.031,0.273-0.088
				c0.139-0.131,0.138-0.364,0.158-0.557c0.002,0.102-0.003,0.203-0.014,0.305c-0.017,0.096-0.031,0.21-0.115,0.285
				c-0.086,0.078-0.195,0.082-0.289,0.119l-0.29,0.09l-0.292,0.084c-0.074,0.02-0.146,0.095-0.205,0.167
				c-0.057,0.069-0.091,0.155-0.146,0.252c-0.049,0.095-0.103,0.179-0.154,0.267l-0.002,0.002l-0.002,0.004l-1.167,1.422
				c-0.194,0.234-0.395,0.467-0.603,0.692c-0.212,0.218-0.39,0.484-0.667,0.669c-0.135,0.115-0.373,0.104-0.503,0.014
				c-0.149-0.073-0.26-0.186-0.392-0.251l-0.399-0.228c-0.134-0.07-0.267-0.171-0.395-0.197c-0.134-0.027-0.306-0.067-0.415-0.01
				c-0.122,0.072-0.251,0.172-0.394,0.236C134.905,354.966,134.591,355.015,134.287,354.991z"/>
		</g>
		<g>
			<path fill="#E32D44" d="M134.369,354.999c0.015-0.005-0.201,0.006-0.331-0.262c-0.077-0.125-0.079-0.307-0.072-0.496
				c0.015-0.192,0.032-0.408,0.051-0.645c0.022-0.236,0.045-0.491,0.071-0.762c0.036-0.246-0.053-0.547-0.075-0.835
				c-0.037-0.294-0.076-0.599-0.115-0.908c-0.031-0.146-0.006-0.329-0.083-0.447c-0.07-0.073-0.155-0.291-0.267-0.3l-0.438-0.158
				c-0.139-0.047-0.295-0.08-0.425-0.229c-0.132-0.131-0.17-0.287-0.241-0.415l-0.096-0.198c-0.051-0.076-0.068-0.196-0.035-0.271
				c0.055-0.184,0.151-0.257,0.183-0.393c0.009-0.063,0.048-0.146,0.104-0.223c0.037-0.047,0.096-0.096,0.142-0.143
				c0.194-0.195,0.387-0.354,0.538-0.539c0.156-0.176,0.298-0.336,0.425-0.479c0.146-0.129,0.196-0.302,0.211-0.43
				c0.008-0.133-0.052-0.238-0.048-0.313c-0.009-0.073-0.014-0.112-0.014-0.112s0.007,0.039,0.022,0.112
				c0,0.073,0.067,0.171,0.07,0.312c-0.007,0.148-0.044,0.313-0.182,0.459c-0.116,0.158-0.251,0.335-0.406,0.512
				c-0.145,0.187-0.346,0.363-0.53,0.557c-0.047,0.051-0.097,0.092-0.144,0.153c-0.021,0.042-0.055,0.079-0.064,0.16
				c-0.029,0.146-0.156,0.294-0.173,0.399c-0.022,0.063-0.009,0.107,0.018,0.156c0.046,0.074,0.071,0.137,0.108,0.207
				c0.077,0.135,0.125,0.292,0.225,0.377c0.078,0.1,0.241,0.143,0.399,0.191l0.455,0.156c0.189,0.096,0.213,0.239,0.327,0.404
				c0.083,0.162,0.048,0.314,0.077,0.471c0.031,0.31,0.063,0.613,0.092,0.908c0.016,0.3,0.095,0.567,0.056,0.861
				c-0.032,0.27-0.062,0.525-0.089,0.762c-0.031,0.234-0.059,0.451-0.084,0.643c-0.02,0.191-0.03,0.357,0.034,0.48
				C134.172,354.991,134.381,354.993,134.369,354.999z"/>
		</g>
		<g>
			<path fill="#E32D44" d="M137.909,347.741c0,0,0.28,0.056,0.692,0.161c0.206,0.052,0.452,0.136,0.701,0.216
				c0.254,0.088,0.523,0.153,0.796,0.271c0.254,0.126,0.508,0.253,0.747,0.371c0.238,0.102,0.473,0.255,0.587,0.459
				c0.07,0.081,0.087,0.225,0.077,0.297c-0.004,0.087-0.009,0.162-0.012,0.225c-0.006,0.125-0.01,0.195-0.01,0.195
				s-0.007-0.07-0.021-0.195c-0.006-0.063-0.014-0.137-0.023-0.224c-0.011-0.095-0.029-0.163-0.094-0.245
				c-0.058-0.084-0.13-0.154-0.225-0.224c-0.101-0.073-0.215-0.104-0.34-0.163c-0.244-0.105-0.505-0.219-0.766-0.332
				c-0.243-0.121-0.524-0.209-0.768-0.308c-0.253-0.097-0.473-0.185-0.678-0.249C138.172,347.853,137.909,347.741,137.909,347.741z"
				/>
		</g>
		<path fill="#E51D2E" d="M136.564,355.965c0,0,0.024-0.263-0.11-0.517c-0.134-0.254-0.186-0.379-0.31-0.389
			c-0.124-0.008-0.258-0.018-0.439-0.049s-0.288-0.043-0.399-0.022s-0.384,0.229-0.375,0.3c0.008,0.072,0.164,0.23,0.205,0.256
			c0.041,0.027,0.185,0,0.363,0.004c0.179,0.003,0.486,0.021,0.672,0.107S136.564,355.965,136.564,355.965z"/>
		<path fill="#E51D2E" d="M132.942,353.93c0,0-0.087-1.063-0.157-1.223c-0.069-0.159-0.164-0.571-0.216-0.687
			c-0.052-0.114-0.221-0.447-0.25-0.581c-0.028-0.134-0.078-0.367,0.039-0.538c0.117-0.172,0.379-0.676,0.505-0.64
			c0.28,0.079,0.794,0.401,0.88,0.576c0.062,0.126,0.384,1.813,0.336,2.046c-0.048,0.234-0.167,1.014-0.356,1.242
			s-0.558,0.328-0.634,0.33C133.013,354.458,132.951,354.039,132.942,353.93z"/>
		<path fill="#E51D2E" d="M139.418,346.876c0.015,0.031-0.242-0.145-0.76-0.169c-0.518-0.025-0.532,0.03-0.741-0.067
			c-0.209-0.096-0.281-0.094-0.455-0.404c-0.174-0.309-0.354-0.574-0.124-0.642c0.231-0.067,0.318-0.269,0.608-0.163
			s0.2,0.03,0.405,0.232c0.206,0.202,0.345,0.237,0.714,0.66C139.435,346.745,139.418,346.876,139.418,346.876z"/>
		<path fill="#E51D2E" d="M139.445,354.822c-0.156-0.042-0.204,0.132-0.264,0.058s0.045-0.174,0.06-0.307
			c0.015-0.135,0.169-0.227,0.188-0.318s0.205-0.164,0.197,0.057c-0.008,0.219-0.034,0.225,0.085,0.297
			c0.119,0.073,0.138,0.287-0.064,0.25C139.445,354.822,139.445,354.822,139.445,354.822z"/>
		<path fill="#E51D2E" d="M140.561,354.093c0,0-0.377-0.08-0.448-0.16c-0.07-0.081-0.107-0.296-0.121-0.391
			c-0.014-0.096-0.031-0.281,0.052-0.439c0.083-0.157,0.168-0.47,0.416-0.637c0.248-0.168,0.304-0.213,0.504-0.266
			c0.201-0.055,0.467-0.008,0.428,0.115s-0.141,0.691-0.14,0.736c0.001,0.045-0.115,0.488-0.12,0.523
			c-0.004,0.033-0.321-0.012-0.321-0.012S140.755,354.143,140.561,354.093z"/>
		<path fill="#E32D44" stroke="#E32D44" stroke-width="0.1831" stroke-miterlimit="10" d="M139.81,350.873
			c0,0,0.176-0.256,0.022-0.441c-0.154-0.187-1.052-1.208-1.187-1.498s-0.436-0.183-0.639-0.305s-0.409,0.116-0.527-0.075
			s-0.6-0.59-0.542-0.475c0.057,0.114,0.523-0.17,0.697,0.203c0.174,0.374,0.593-0.445,0.991,0.109
			c0.398,0.556,0.282,0.599,0.597,0.992c0.39,0.488,0.408,0.29,0.733,0.633c0.326,0.344,0.047,0.859,0.204,1.225
			c0.157,0.363-0.081,0.449,0.011,0.637c0.092,0.188-0.246,0.092-0.289-0.168C139.839,351.45,139.81,350.873,139.81,350.873z"/>
	</g>
	
		<linearGradient id="SVGID_5_" gradientUnits="userSpaceOnUse" x1="131.6533" y1="372.5762" x2="138.1603" y2="369.0191" gradientTransform="matrix(0.9979 0.0645 -0.0645 0.9979 20.0024 -25.9231)">
		<stop  offset="0.089" style="stop-color:#FFFFFF"/>
		<stop  offset="1" style="stop-color:#E30613;stop-opacity:0.7"/>
	</linearGradient>
	<path fill="url(#SVGID_5_)" d="M130.759,353.733c-0.012-0.289-0.471-0.752-0.039-1.856c0.432-1.104-0.256-1.407,0.925-2.964
		c1.182-1.557,0.534-1.819,1.39-2.523c0.856-0.705,1.566-1.354,2.646-2.727c1.08-1.372,2.773-1.161,3.524-1.633
		c0.752-0.472,2.179-1.646,2.912-1.822c0.732-0.174,2.668-0.857,3.598-1.294c0.929-0.438,2.571-0.743,2.874-1.239
		c0.302-0.495,1.595-0.975,2.062-1.237c0.468-0.263,0.238-0.188,0.068,0.343c-0.169,0.529,0.297,0.289,0.611-0.051
		c0.315-0.34,2.285-0.844,2.4-0.881c0.115-0.038,2.77-1.376,2.77-1.376l0.843-0.486c0,0-1.298,1.269-1.491,1.628
		c-0.192,0.358,1.834-0.152,1.94-0.213s2.781-2.254,2.918-2.279c0.137-0.024,1.852-0.42,2.193-0.466s1.735-0.699,1.735-0.699
		s-0.914,0.55-1.505,1.322c-0.59,0.772,0.005,0.973,0.221,0.771c0.216-0.201,0.385-0.731,1.206-0.881
		c0.82-0.15-1.503,2.336-1.503,2.336s-0.956,0.15-1.667,0.707c-0.712,0.559-0.931,0.814-1.092,1.209
		c-0.161,0.396-0.684,1.166-0.469,0.98s2.275-1.742,0.215-0.186s-2.416,1.827-2.919,2.29c-0.503,0.462-1.788,1.528-1.788,1.528
		s-1.398,0.723-1.703,1.243c-0.304,0.52-0.801,1.942-1.493,2.185c-0.691,0.241-2.116,1.365-2.537,1.609
		c-0.421,0.242-2.018,1.243-1.614,1.27c0.404,0.025-0.947,0.704-1.272,0.863c-0.326,0.16-1.131,1.459-1.139,1.594
		c-0.009,0.135-1.018,1.105-1.203,1.184s-1.075,0.607-1.075,0.607s-2.361,2.744-2.501,2.825c-0.141,0.081-2.671,1.255-2.671,1.255
		l-1.876,0.154l-1.421,0.014c0,0-1.378,0.076-3.454-1.207C131.261,355.559,130.79,354.493,130.759,353.733z"/>
</g>
<g>
	<g>
		<path fill="#E9445A" stroke="#E30613" stroke-width="0.1274" stroke-miterlimit="10" d="M291.072,398.911
			c-0.023-0.063-0.288-0.395-0.295-0.606c-0.006-0.212-0.042-0.427-0.102-0.57c-0.06-0.142,0.01-0.225-0.063-0.384
			c-0.073-0.16-0.08-0.236,0.037-0.464c0.116-0.229,0.325-1.022,0.266-1.3c-0.059-0.278,0.06-1.117,0.055-1.53
			c-0.003-0.413,0.033-0.469,0.517-1.019c0.484-0.549,0.876-0.809,1.171-1.424c0.296-0.617,0.207-1.036,0.621-1.366
			c0.415-0.331,1.244-1.129,1.857-1.483c0.614-0.355,0.979-1.189,1.894-0.996c0.916,0.192,2.261,0.313,2.749,0.141
			s1.405,0.943,1.739,1.19c0.335,0.25,3.141,2.845,3.396,3.129c0.255,0.285,0.868,1.97,0.641,2.232
			c-0.226,0.262-0.627,0.746-0.448,1.173c0.179,0.428,0.208,1.247,0.095,2.125c-0.114,0.878-0.021,0.315-0.319,1.098
			c-0.299,0.783,0.53,0.392-0.631,1.047c-1.161,0.654-1.368,1.144-1.656,1.429c-0.288,0.286-0.42,0.392-0.958,0.332
			c-0.537-0.06,0.359-0.774-0.809,0.212c-1.167,0.986-0.909,1.378-1.446,1.318c-0.537-0.061-0.57-0.033-0.895,0.172
			c-0.325,0.206,0.139,0.378-0.524,0.093c-0.663-0.287-0.954-1.194-1.896-0.876c-0.942,0.317-1.214,0.589-1.519,0.342
			c0,0-0.616-0.431-0.854-0.729c-0.239-0.299-0.179-0.837-0.689-1.134c-0.51-0.3-1.438-0.916-1.617-1.209
			C291.21,399.562,291.072,398.911,291.072,398.911z"/>
		<path fill="#E51D2E" d="M295.333,401.263c0,0-0.729,0.176-0.769-0.553c-0.039-0.731,0.181-2.02,0.161-2.385
			c-0.02-0.364-0.062-1.743-0.207-2.197c-0.146-0.455,0.054-0.75-0.132-0.981c-0.186-0.233-0.192-0.445-0.805-0.634
			c-0.614-0.189-0.839-0.064-1.041-0.69c-0.202-0.627-0.444-0.488-0.142-0.892c0.302-0.403-0.056-0.309,0.385-0.743
			c0.441-0.434,1.623-1.54,1.679-2.047c0.057-0.508-0.247-0.615-0.051-0.744s0.85-0.638,1.008-0.711
			c0.16-0.072,0.083-0.102,0.451-0.388c0.554-0.429,0.485-0.48,0.979-0.441c0.494,0.04,0.757-0.038,1.112,0.305
			c0.354,0.341,0.487,0.099,0.766,0.583c0.278,0.485,0.423,0.667,0.923,1.598c0.5,0.933-0.289,0.693,0.722,1.109
			c1.01,0.415,1.17,0.342,2.104,0.764c0.935,0.421,1.729,0.633,1.944,0.869c0.215,0.235,0.045-0.132,0.385,0.872
			c0.341,1.006,0.297,2.328,0.098,2.487c-0.199,0.159-1.101,0.119-1.492,0.514c-0.391,0.394,0.057,0.171-0.71,1.083
			c-0.767,0.912-2.127,2.54-2.584,2.988c-0.458,0.446-0.628,0.88-1.284,0.535c-0.656-0.345-1.657-1.257-2.251-0.81
			C295.99,401.2,295.333,401.263,295.333,401.263z"/>
		<g>
			<path fill="#E32D44" d="M294.817,401.393c0.213,0.013,0.425-0.023,0.63-0.078c0.206-0.045,0.412-0.11,0.59-0.212
				c0.186-0.1,0.333-0.241,0.528-0.362c0.236-0.119,0.455-0.048,0.677-0.021c0.248,0.056,0.407,0.182,0.604,0.273l0.566,0.3
				c0.206,0.102,0.358,0.251,0.538,0.331c0.186,0.1,0.33,0.103,0.486-0.017c0.156-0.108,0.307-0.261,0.44-0.415
				c0.12-0.153,0.276-0.323,0.412-0.48l0.849-0.96l1.669-1.943l-0.007,0.009c0.075-0.117,0.155-0.235,0.22-0.351
				c0.068-0.104,0.13-0.249,0.233-0.371c0.1-0.108,0.201-0.227,0.377-0.271l0.409-0.101l0.41-0.095
				c0.135-0.041,0.283-0.04,0.381-0.121c0.191-0.185,0.189-0.509,0.217-0.776c0.003,0.141-0.004,0.281-0.019,0.424
				c-0.024,0.134-0.04,0.292-0.158,0.398c-0.119,0.108-0.276,0.114-0.403,0.165l-0.404,0.125l-0.405,0.119
				c-0.1,0.027-0.201,0.132-0.281,0.232c-0.077,0.096-0.123,0.215-0.2,0.352c-0.068,0.133-0.141,0.251-0.212,0.374l-0.002,0.003
				l-0.005,0.007c-0.532,0.668-1.08,1.319-1.629,1.973c-0.271,0.325-0.556,0.646-0.841,0.962c-0.146,0.165-0.282,0.305-0.427,0.486
				c-0.148,0.165-0.3,0.318-0.497,0.452c-0.188,0.163-0.53,0.148-0.712,0.021c-0.21-0.101-0.368-0.259-0.546-0.346l-0.554-0.321
				c-0.184-0.098-0.372-0.24-0.545-0.279c-0.185-0.038-0.424-0.097-0.575-0.019c-0.171,0.099-0.35,0.238-0.549,0.328
				c-0.202,0.095-0.411,0.143-0.625,0.174C295.247,401.4,295.028,401.421,294.817,401.393z"/>
		</g>
		<g>
			<path fill="#E32D44" d="M294.932,401.403c0.021-0.007-0.28,0.008-0.46-0.364c-0.107-0.173-0.109-0.427-0.1-0.691
				c0.021-0.267,0.043-0.567,0.068-0.896c0.028-0.329,0.059-0.685,0.09-1.061c0.047-0.338-0.081-0.759-0.108-1.16
				c-0.049-0.41-0.1-0.834-0.152-1.265c-0.042-0.202-0.005-0.46-0.113-0.622l-0.164-0.236l-0.094-0.129l-0.024-0.032l-0.006-0.008
				c0.051,0.051,0.009,0.012,0.018,0.022l-0.02-0.007l-0.078-0.028c-0.206-0.075-0.414-0.156-0.612-0.218
				c-0.194-0.063-0.41-0.107-0.595-0.315c-0.087-0.086-0.153-0.187-0.203-0.298l-0.136-0.28c-0.044-0.091-0.093-0.203-0.134-0.273
				c-0.074-0.109-0.098-0.282-0.052-0.389c0.08-0.266,0.206-0.359,0.253-0.545c0.012-0.087,0.068-0.209,0.152-0.316
				c0.05-0.065,0.134-0.133,0.198-0.197c0.272-0.271,0.543-0.487,0.755-0.743c0.217-0.244,0.417-0.468,0.593-0.666
				c0.203-0.178,0.273-0.419,0.293-0.598c0.011-0.185-0.069-0.331-0.075-0.434c-0.023-0.101-0.005-0.158-0.011-0.157
				c0.005,0-0.008,0.057,0.022,0.155c0.013,0.102,0.103,0.237,0.106,0.433c-0.01,0.207-0.062,0.435-0.252,0.639
				c-0.162,0.222-0.351,0.467-0.563,0.715c-0.2,0.261-0.478,0.509-0.731,0.78c-0.066,0.072-0.133,0.127-0.2,0.215
				c-0.023,0.056-0.07,0.101-0.083,0.217c-0.038,0.206-0.223,0.42-0.243,0.556c-0.031,0.086-0.013,0.142,0.021,0.206
				c0.066,0.107,0.098,0.192,0.149,0.291l0.148,0.293c0.04,0.086,0.091,0.165,0.161,0.231c0.103,0.138,0.332,0.2,0.551,0.27
				l0.63,0.221l0.077,0.028l0.02,0.008c0.015,0.013-0.021-0.023,0.037,0.029l0.006,0.009l0.026,0.034l0.098,0.138
				c0.062,0.085,0.133,0.201,0.196,0.315c0.118,0.227,0.069,0.438,0.111,0.655c0.046,0.43,0.091,0.852,0.135,1.261
				c0.027,0.418,0.131,0.789,0.075,1.202c-0.047,0.376-0.091,0.731-0.132,1.059c-0.044,0.328-0.084,0.629-0.12,0.895
				c-0.027,0.269-0.042,0.498,0.047,0.669C294.658,401.393,294.949,401.396,294.932,401.403z"/>
		</g>
		<g>
			<path fill="#E32D44" d="M299.857,391.304c0,0,0.388,0.08,0.964,0.222c0.286,0.07,0.636,0.174,0.98,0.289
				c0.176,0.06,0.357,0.12,0.542,0.183c0.177,0.062,0.385,0.121,0.561,0.209c0.355,0.171,0.711,0.343,1.045,0.504
				c0.156,0.079,0.345,0.155,0.475,0.265c0.135,0.11,0.264,0.25,0.339,0.384c0.095,0.116,0.118,0.315,0.105,0.416
				c-0.006,0.121-0.012,0.226-0.017,0.313c-0.009,0.173-0.015,0.271-0.015,0.271s-0.01-0.099-0.028-0.271
				c-0.009-0.086-0.02-0.191-0.032-0.312c-0.001-0.061-0.016-0.127-0.043-0.176c-0.014-0.054-0.038-0.109-0.09-0.163
				c-0.083-0.116-0.183-0.21-0.316-0.304c-0.142-0.1-0.299-0.136-0.473-0.224c-0.338-0.151-0.699-0.313-1.06-0.474
				c-0.176-0.095-0.35-0.146-0.538-0.218c-0.183-0.067-0.362-0.134-0.536-0.198c-0.354-0.129-0.654-0.266-0.938-0.357
				C300.224,391.455,299.857,391.304,299.857,391.304z"/>
		</g>
		<path fill="#E51D2E" d="M297.986,402.747c0,0,0.034-0.365-0.154-0.719c-0.187-0.354-0.258-0.527-0.431-0.541
			c-0.172-0.011-0.359-0.024-0.611-0.068c-0.252-0.043-0.401-0.06-0.555-0.031c-0.154,0.029-0.534,0.318-0.522,0.418
			c0.012,0.101,0.228,0.32,0.285,0.355c0.056,0.038,0.257,0,0.505,0.006c0.249,0.004,0.676,0.029,0.935,0.149
			C297.696,402.436,297.986,402.747,297.986,402.747z"/>
		<path fill="#E51D2E" d="M292.946,399.915c0,0-0.122-1.479-0.218-1.701c-0.096-0.222-0.228-0.795-0.3-0.955
			c-0.073-0.159-0.308-0.623-0.348-0.809c-0.04-0.187-0.109-0.511,0.054-0.749c0.162-0.239,0.527-0.94,0.702-0.89
			c0.39,0.109,1.105,0.559,1.225,0.802c0.086,0.175,0.535,2.523,0.468,2.847c-0.067,0.326-0.233,1.41-0.496,1.729
			c-0.262,0.317-0.776,0.456-0.882,0.459C293.044,400.65,292.958,400.067,292.946,399.915z"/>
		<path fill="#E51D2E" d="M301.957,390.1c0.021,0.044-0.336-0.2-1.058-0.234c-0.721-0.035-0.74,0.042-1.031-0.094
			c-0.291-0.134-0.391-0.131-0.633-0.563c-0.242-0.43-0.493-0.8-0.172-0.894c0.321-0.094,0.443-0.373,0.846-0.227
			s0.278,0.042,0.564,0.323s0.479,0.33,0.994,0.919C301.981,389.918,301.957,390.1,301.957,390.1z"/>
		<path fill="#E51D2E" d="M301.995,401.157c-0.217-0.059-0.284,0.184-0.367,0.08c-0.083-0.104,0.063-0.242,0.084-0.427
			c0.021-0.188,0.235-0.315,0.261-0.443c0.026-0.127,0.285-0.228,0.274,0.079c-0.011,0.305-0.047,0.313,0.119,0.413
			c0.166,0.103,0.192,0.399-0.09,0.348C301.995,401.157,301.995,401.157,301.995,401.157z"/>
		<path fill="#E51D2E" d="M303.547,400.142c0,0-0.524-0.111-0.623-0.223c-0.098-0.112-0.148-0.411-0.168-0.543
			c-0.02-0.134-0.042-0.392,0.073-0.612c0.116-0.219,0.234-0.653,0.579-0.886c0.344-0.233,0.422-0.296,0.702-0.369
			c0.28-0.076,0.65-0.011,0.596,0.16c-0.054,0.171-0.195,0.962-0.194,1.024c0.002,0.063-0.16,0.68-0.166,0.729
			c-0.006,0.046-0.447-0.017-0.447-0.017S303.818,400.211,303.547,400.142z"/>
		<path fill="#E32D44" stroke="#E32D44" stroke-width="0.2547" stroke-miterlimit="10" d="M302.502,395.662
			c0,0,0.246-0.356,0.031-0.614c-0.214-0.26-1.463-1.681-1.652-2.085c-0.188-0.403-0.606-0.254-0.889-0.424
			s-0.569,0.162-0.734-0.104s-0.834-0.82-0.755-0.66c0.079,0.159,0.729-0.236,0.97,0.282c0.242,0.521,0.825-0.619,1.379,0.152
			c0.554,0.773,0.392,0.833,0.83,1.381c0.543,0.68,0.567,0.403,1.021,0.88c0.453,0.479,0.066,1.196,0.284,1.704
			c0.219,0.506-0.112,0.625,0.015,0.887c0.128,0.261-0.342,0.127-0.401-0.234C302.542,396.465,302.502,395.662,302.502,395.662z"/>
	</g>
	
		<linearGradient id="SVGID_6_" gradientUnits="userSpaceOnUse" x1="292.1177" y1="408.46" x2="301.172" y2="403.5103" gradientTransform="matrix(0.9979 0.0645 -0.0645 0.9979 20.0024 -25.9231)">
		<stop  offset="0.089" style="stop-color:#FFFFFF"/>
		<stop  offset="1" style="stop-color:#E30613;stop-opacity:0.7"/>
	</linearGradient>
	<path fill="url(#SVGID_6_)" d="M289.908,399.642c-0.017-0.401-0.656-1.046-0.055-2.583c0.601-1.537-0.356-1.958,1.288-4.124
		c1.645-2.166,0.743-2.531,1.935-3.511c1.191-0.981,2.179-1.885,3.682-3.794c1.502-1.909,3.859-1.616,4.904-2.272
		c1.046-0.656,3.032-2.291,4.051-2.535c1.019-0.242,3.713-1.193,5.007-1.801c1.293-0.609,3.578-1.034,3.999-1.725
		c0.42-0.688,2.219-1.356,2.869-1.722c0.651-0.365,0.331-0.261,0.095,0.477c-0.236,0.737,0.413,0.402,0.851-0.07
		c0.438-0.473,3.179-1.174,3.339-1.226c0.16-0.053,3.854-1.915,3.854-1.915l1.173-0.677c0,0-1.807,1.766-2.074,2.266
		c-0.268,0.499,2.552-0.212,2.699-0.296c0.147-0.085,3.87-3.137,4.06-3.172c0.191-0.034,2.577-0.584,3.052-0.648
		c0.474-0.063,2.414-0.973,2.414-0.973s-1.272,0.765-2.094,1.84c-0.821,1.075,0.007,1.354,0.307,1.072
		c0.3-0.28,0.536-1.018,1.678-1.226c1.142-0.21-2.091,3.25-2.091,3.25s-1.33,0.209-2.32,0.984c-0.991,0.777-1.296,1.133-1.519,1.682
		c-0.224,0.551-0.952,1.623-0.653,1.364c0.299-0.258,3.166-2.424,0.299-0.258s-3.362,2.542-4.062,3.187
		c-0.7,0.643-2.488,2.127-2.488,2.127s-1.946,1.005-2.369,1.729c-0.423,0.723-1.115,2.703-2.077,3.04
		c-0.962,0.335-2.944,1.899-3.53,2.239c-0.586,0.337-2.808,1.729-2.246,1.767c0.562,0.035-1.317,0.979-1.771,1.201
		c-0.453,0.223-1.574,2.03-1.585,2.218c-0.012,0.188-1.417,1.538-1.674,1.646c-0.257,0.108-1.496,0.846-1.496,0.846
		s-3.285,3.818-3.48,3.931c-0.196,0.113-3.717,1.746-3.717,1.746l-2.611,0.215l-1.978,0.02c0,0-1.917,0.105-4.806-1.68
		C290.606,402.182,289.951,400.699,289.908,399.642z"/>
</g>
<g>
	<g>
		<path fill="#E9445A" stroke="#E30613" stroke-width="0.1357" stroke-miterlimit="10" d="M174.533,331.526
			c-0.024-0.066-0.307-0.42-0.314-0.646c-0.007-0.226-0.045-0.455-0.109-0.607c-0.063-0.151,0.011-0.24-0.066-0.409
			c-0.078-0.17-0.085-0.251,0.039-0.494c0.124-0.244,0.347-1.088,0.283-1.385c-0.063-0.297,0.063-1.188,0.059-1.629
			s0.035-0.5,0.551-1.086c0.516-0.586,0.933-0.861,1.248-1.518c0.315-0.657,0.22-1.102,0.662-1.455
			c0.441-0.353,1.325-1.203,1.979-1.581c0.654-0.377,1.043-1.267,2.017-1.062c0.975,0.206,2.408,0.334,2.928,0.151
			c0.52-0.184,1.497,1.004,1.853,1.269c0.356,0.266,3.346,3.029,3.617,3.333c0.272,0.304,0.924,2.099,0.684,2.378
			c-0.24,0.278-0.668,0.793-0.478,1.249s0.221,1.328,0.101,2.264s-0.021,0.336-0.34,1.169c-0.318,0.834,0.565,0.417-0.672,1.115
			c-1.236,0.698-1.458,1.218-1.764,1.523c-0.307,0.305-0.448,0.417-1.02,0.354c-0.572-0.063,0.382-0.826-0.862,0.226
			c-1.244,1.051-0.969,1.468-1.541,1.404c-0.572-0.064-0.608-0.036-0.954,0.184c-0.346,0.218,0.148,0.402-0.558,0.098
			c-0.706-0.305-1.016-1.272-2.019-0.934c-1.003,0.338-1.293,0.628-1.618,0.366c0,0-0.657-0.46-0.911-0.777
			c-0.254-0.318-0.19-0.891-0.734-1.209c-0.543-0.318-1.532-0.976-1.722-1.287C174.681,332.219,174.533,331.526,174.533,331.526z"/>
		<path fill="#E51D2E" d="M179.073,334.031c0,0-0.777,0.187-0.819-0.59c-0.042-0.777,0.192-2.151,0.171-2.54
			c-0.021-0.388-0.066-1.857-0.221-2.341c-0.155-0.484,0.057-0.799-0.141-1.046c-0.197-0.247-0.205-0.473-0.857-0.675
			c-0.653-0.202-0.893-0.067-1.108-0.735c-0.215-0.668-0.473-0.52-0.151-0.95c0.322-0.431-0.06-0.328,0.411-0.79
			c0.47-0.463,1.728-1.642,1.788-2.182c0.061-0.541-0.263-0.655-0.054-0.793s0.905-0.68,1.074-0.757
			c0.17-0.078,0.088-0.109,0.48-0.412c0.59-0.458,0.517-0.514,1.042-0.472c0.526,0.043,0.807-0.04,1.185,0.324
			s0.519,0.106,0.815,0.622s0.452,0.71,0.984,1.703c0.532,0.992-0.308,0.737,0.769,1.18s1.247,0.365,2.242,0.814
			c0.995,0.449,1.841,0.674,2.07,0.925c0.229,0.251,0.047-0.14,0.411,0.931c0.363,1.07,0.316,2.479,0.104,2.648
			c-0.212,0.17-1.173,0.127-1.59,0.547c-0.417,0.42,0.06,0.184-0.757,1.154c-0.816,0.971-2.266,2.706-2.753,3.184
			c-0.488,0.476-0.668,0.938-1.367,0.57c-0.699-0.367-1.765-1.34-2.397-0.863S179.073,334.031,179.073,334.031z"/>
		<g>
			<path fill="#E32D44" d="M178.523,334.169c0.227,0.013,0.453-0.025,0.671-0.083c0.219-0.049,0.439-0.118,0.629-0.226
				c0.198-0.106,0.355-0.257,0.562-0.386c0.25-0.126,0.485-0.051,0.722-0.021c0.262,0.056,0.436,0.194,0.644,0.291l0.603,0.318
				c0.217,0.107,0.382,0.268,0.573,0.354c0.197,0.106,0.354,0.106,0.518-0.019c0.167-0.115,0.327-0.277,0.469-0.442
				c0.128-0.163,0.294-0.344,0.439-0.511l0.904-1.023l1.777-2.071l-0.007,0.011c0.08-0.125,0.165-0.251,0.234-0.374
				c0.073-0.109,0.139-0.266,0.248-0.395c0.106-0.116,0.215-0.242,0.401-0.289l0.436-0.107l0.437-0.102
				c0.144-0.045,0.302-0.042,0.406-0.128c0.113-0.087,0.144-0.238,0.179-0.384c0.026-0.145,0.045-0.294,0.052-0.443
				c0.003,0.149-0.004,0.3-0.021,0.451c-0.025,0.143-0.042,0.311-0.167,0.425c-0.127,0.116-0.294,0.119-0.429,0.175l-0.431,0.134
				l-0.431,0.127c-0.108,0.029-0.214,0.141-0.301,0.248c-0.082,0.102-0.13,0.229-0.213,0.374c-0.072,0.141-0.15,0.267-0.226,0.397
				l-0.002,0.004l-0.005,0.007c-0.567,0.712-1.151,1.404-1.735,2.102c-0.289,0.347-0.592,0.688-0.896,1.025
				c-0.154,0.175-0.3,0.325-0.456,0.517c-0.158,0.176-0.319,0.341-0.529,0.482c-0.201,0.173-0.563,0.158-0.758,0.023
				c-0.224-0.108-0.391-0.274-0.583-0.369l-0.589-0.342c-0.197-0.105-0.394-0.256-0.581-0.296c-0.107-0.025-0.213-0.045-0.315-0.055
				c-0.111-0.013-0.219-0.016-0.297,0.034c-0.182,0.105-0.373,0.254-0.585,0.349c-0.216,0.102-0.438,0.152-0.666,0.186
				C178.98,334.178,178.748,334.199,178.523,334.169z"/>
		</g>
		<g>
			<path fill="#E32D44" d="M178.646,334.18c0.022-0.007-0.299,0.01-0.49-0.388c-0.114-0.184-0.117-0.454-0.106-0.735
				c0.022-0.284,0.046-0.605,0.073-0.955c0.03-0.35,0.062-0.729,0.096-1.129c0.05-0.36-0.086-0.808-0.115-1.235
				c-0.053-0.438-0.107-0.889-0.162-1.348c-0.045-0.216-0.006-0.49-0.12-0.663l-0.174-0.252l-0.101-0.138l-0.025-0.033l-0.006-0.009
				c0.055,0.053,0.009,0.013,0.019,0.023l-0.021-0.008l-0.083-0.029c-0.219-0.08-0.441-0.166-0.652-0.232
				c-0.207-0.067-0.437-0.115-0.634-0.335c-0.093-0.092-0.163-0.199-0.216-0.317l-0.145-0.298c-0.048-0.098-0.098-0.215-0.143-0.294
				c-0.078-0.114-0.104-0.299-0.055-0.412c0.084-0.282,0.219-0.383,0.269-0.582c0.013-0.092,0.074-0.221,0.162-0.336
				c0.054-0.07,0.144-0.142,0.212-0.21c0.29-0.289,0.578-0.52,0.804-0.792c0.232-0.26,0.444-0.498,0.633-0.709
				c0.216-0.19,0.29-0.447,0.312-0.638c0.012-0.196-0.073-0.353-0.08-0.461c-0.024-0.108-0.006-0.169-0.012-0.168
				c0.005,0-0.008,0.061,0.023,0.165c0.014,0.108,0.109,0.254,0.114,0.461c-0.011,0.22-0.065,0.464-0.269,0.681
				c-0.172,0.236-0.374,0.497-0.6,0.761c-0.212,0.278-0.509,0.543-0.779,0.833c-0.07,0.076-0.142,0.135-0.212,0.229
				c-0.026,0.059-0.075,0.107-0.089,0.23c-0.04,0.219-0.236,0.446-0.258,0.592c-0.034,0.092-0.015,0.15,0.023,0.221
				c0.068,0.112,0.104,0.204,0.158,0.309l0.158,0.313c0.042,0.092,0.097,0.176,0.171,0.246c0.111,0.147,0.354,0.214,0.588,0.288
				l0.672,0.234l0.082,0.03l0.021,0.008c0.016,0.014-0.021-0.024,0.039,0.031l0.007,0.01l0.027,0.036l0.105,0.147
				c0.066,0.09,0.142,0.215,0.208,0.335c0.125,0.243,0.073,0.467,0.118,0.699c0.049,0.457,0.097,0.907,0.144,1.343
				c0.029,0.445,0.14,0.84,0.08,1.281c-0.05,0.399-0.097,0.778-0.141,1.127c-0.047,0.35-0.09,0.67-0.127,0.953
				c-0.03,0.285-0.046,0.53,0.05,0.713C178.353,334.17,178.664,334.172,178.646,334.18z"/>
		</g>
		<g>
			<path fill="#E32D44" d="M183.892,323.422c0,0,0.414,0.086,1.028,0.236c0.305,0.074,0.677,0.185,1.044,0.308
				c0.188,0.063,0.381,0.128,0.578,0.194c0.188,0.064,0.411,0.129,0.598,0.223c0.379,0.183,0.758,0.366,1.114,0.538
				c0.175,0.089,0.354,0.157,0.511,0.28c0.158,0.13,0.268,0.264,0.359,0.406c0.101,0.123,0.13,0.337,0.106,0.446
				c-0.007,0.128-0.013,0.24-0.018,0.332c-0.01,0.185-0.016,0.29-0.016,0.29s-0.011-0.105-0.03-0.289
				c-0.01-0.092-0.021-0.204-0.034-0.332c-0.004-0.147-0.038-0.231-0.135-0.362c-0.088-0.115-0.213-0.237-0.343-0.326
				c-0.136-0.092-0.326-0.145-0.502-0.233c-0.36-0.162-0.745-0.334-1.129-0.506c-0.188-0.102-0.371-0.154-0.573-0.232
				c-0.194-0.071-0.386-0.142-0.571-0.21c-0.378-0.138-0.697-0.282-1-0.381C184.283,323.583,183.892,323.422,183.892,323.422z"/>
		</g>
		<path fill="#E51D2E" d="M181.898,335.611c0,0,0.036-0.39-0.164-0.766c-0.199-0.377-0.275-0.562-0.458-0.575
			c-0.184-0.012-0.383-0.026-0.651-0.072c-0.269-0.046-0.427-0.063-0.592-0.034c-0.164,0.03-0.569,0.339-0.557,0.444
			c0.012,0.106,0.244,0.342,0.304,0.381c0.06,0.038,0.273-0.002,0.538,0.004c0.265,0.005,0.721,0.032,0.996,0.159
			S181.898,335.611,181.898,335.611z"/>
		<path fill="#E51D2E" d="M176.529,332.595c0,0-0.129-1.575-0.232-1.812c-0.102-0.237-0.243-0.848-0.32-1.018
			s-0.328-0.664-0.37-0.862c-0.042-0.197-0.116-0.544,0.057-0.798s0.562-1,0.749-0.947c0.415,0.118,1.177,0.596,1.304,0.854
			c0.091,0.187,0.569,2.687,0.499,3.033c-0.071,0.346-0.249,1.501-0.528,1.839c-0.279,0.339-0.827,0.487-0.939,0.49
			C176.635,333.379,176.543,332.757,176.529,332.595z"/>
		<path fill="#E51D2E" d="M186.129,322.139c0.022,0.048-0.359-0.213-1.127-0.25s-0.79,0.044-1.099-0.099
			c-0.31-0.144-0.417-0.141-0.674-0.6c-0.257-0.458-0.524-0.853-0.183-0.951c0.342-0.1,0.472-0.399,0.901-0.242
			c0.429,0.156,0.296,0.045,0.601,0.345c0.304,0.299,0.51,0.352,1.059,0.978C186.154,321.945,186.129,322.139,186.129,322.139z"/>
		<path fill="#E51D2E" d="M186.169,333.918c-0.231-0.063-0.302,0.196-0.391,0.086c-0.088-0.11,0.067-0.257,0.089-0.455
			c0.022-0.198,0.251-0.336,0.279-0.472c0.027-0.135,0.304-0.242,0.292,0.083c-0.011,0.325-0.05,0.334,0.126,0.441
			c0.177,0.108,0.205,0.425-0.096,0.37C186.169,333.918,186.169,333.918,186.169,333.918z"/>
		<path fill="#E51D2E" d="M187.823,332.838c0,0-0.559-0.119-0.663-0.239c-0.104-0.119-0.159-0.438-0.18-0.579
			c-0.021-0.142-0.045-0.416,0.078-0.649c0.123-0.234,0.25-0.697,0.617-0.945c0.367-0.248,0.45-0.314,0.748-0.395
			c0.298-0.079,0.692-0.01,0.634,0.172s-0.208,1.025-0.207,1.092c0.001,0.067-0.171,0.725-0.178,0.775
			c-0.006,0.05-0.477-0.017-0.477-0.017S188.111,332.911,187.823,332.838z"/>
		<path fill="#E32D44" stroke="#E32D44" stroke-width="0.2714" stroke-miterlimit="10" d="M186.71,328.064
			c0,0,0.261-0.38,0.032-0.654c-0.228-0.275-1.559-1.791-1.759-2.221s-0.646-0.27-0.947-0.451s-0.606,0.173-0.782-0.111
			c-0.176-0.284-0.889-0.875-0.804-0.705c0.084,0.17,0.776-0.251,1.034,0.303c0.257,0.554,0.878-0.661,1.469,0.162
			c0.591,0.822,0.418,0.887,0.884,1.471c0.579,0.724,0.604,0.43,1.087,0.938s0.07,1.273,0.303,1.813
			c0.233,0.539-0.12,0.667,0.016,0.945s-0.365,0.136-0.428-0.249C186.753,328.92,186.71,328.064,186.71,328.064z"/>
	</g>
	
		<linearGradient id="SVGID_7_" gradientUnits="userSpaceOnUse" x1="171.0981" y1="348.8604" x2="180.7434" y2="343.5877" gradientTransform="matrix(0.9979 0.0645 -0.0645 0.9979 20.0024 -25.9231)">
		<stop  offset="0.089" style="stop-color:#FFFFFF"/>
		<stop  offset="1" style="stop-color:#E30613;stop-opacity:0.7"/>
	</linearGradient>
	<path fill="url(#SVGID_7_)" d="M173.294,332.306c-0.018-0.43-0.699-1.115-0.059-2.753c0.64-1.639-0.38-2.086,1.372-4.394
		s0.791-2.697,2.061-3.741s2.321-2.008,3.922-4.041c1.601-2.034,4.111-1.721,5.225-2.42c1.114-0.699,3.23-2.441,4.315-2.701
		c1.085-0.259,3.956-1.271,5.333-1.919c1.377-0.647,3.812-1.102,4.259-1.836c0.448-0.734,2.364-1.445,3.057-1.835
		c0.693-0.389,0.352-0.277,0.101,0.508s0.44,0.43,0.906-0.074c0.467-0.505,3.387-1.251,3.558-1.307
		c0.17-0.056,4.105-2.039,4.105-2.039l1.249-0.721c0,0-1.925,1.879-2.209,2.412c-0.285,0.532,2.72-0.226,2.876-0.315
		c0.156-0.09,4.123-3.34,4.325-3.377s2.745-0.624,3.25-0.691s2.571-1.036,2.571-1.036s-1.355,0.814-2.23,1.96
		c-0.875,1.146,0.007,1.441,0.327,1.142c0.32-0.299,0.571-1.084,1.788-1.306c1.216-0.222-2.228,3.462-2.228,3.462
		s-1.417,0.224-2.472,1.05s-1.38,1.206-1.618,1.792c-0.239,0.586-1.014,1.728-0.695,1.453c0.318-0.275,3.373-2.583,0.318-0.275
		s-3.581,2.708-4.327,3.394c-0.746,0.687-2.651,2.267-2.651,2.267s-2.073,1.071-2.523,1.842s-1.188,2.879-2.213,3.238
		c-1.025,0.358-3.136,2.024-3.761,2.385c-0.624,0.36-2.991,1.844-2.392,1.883c0.599,0.038-1.404,1.044-1.886,1.28
		c-0.483,0.236-1.676,2.163-1.688,2.362c-0.013,0.199-1.509,1.639-1.784,1.755c-0.274,0.116-1.594,0.898-1.594,0.898
		s-3.499,4.069-3.707,4.189s-3.96,1.86-3.96,1.86l-2.781,0.228l-2.107,0.021c0,0-2.042,0.111-5.12-1.791
		C174.038,335.01,173.339,333.431,173.294,332.306z"/>
</g>
<g>
	<g>
		<path fill="#E9445A" stroke="#E30613" stroke-width="0.0759" stroke-miterlimit="10" d="M249.813,355.657
			c-0.014-0.037-0.172-0.235-0.176-0.362c-0.004-0.126-0.025-0.254-0.061-0.34c-0.036-0.085,0.006-0.135-0.037-0.229
			c-0.044-0.096-0.047-0.141,0.022-0.277c0.069-0.136,0.194-0.608,0.158-0.774c-0.035-0.166,0.036-0.665,0.033-0.912
			c-0.002-0.246,0.02-0.279,0.308-0.607c0.289-0.328,0.522-0.482,0.698-0.85s0.123-0.616,0.371-0.814
			c0.247-0.197,0.742-0.673,1.107-0.885c0.366-0.211,0.583-0.709,1.129-0.594s1.348,0.187,1.639,0.085
			c0.291-0.104,0.837,0.562,1.037,0.71c0.199,0.148,1.872,1.695,2.024,1.865c0.152,0.17,0.517,1.175,0.382,1.331
			c-0.134,0.155-0.374,0.443-0.267,0.698c0.106,0.256,0.124,0.744,0.056,1.268s-0.012,0.188-0.19,0.654s0.316,0.233-0.376,0.624
			c-0.692,0.391-0.815,0.682-0.987,0.853c-0.171,0.171-0.25,0.233-0.571,0.198c-0.32-0.036,0.214-0.463-0.482,0.126
			c-0.696,0.588-0.542,0.821-0.862,0.786c-0.32-0.036-0.34-0.021-0.534,0.103c-0.194,0.122,0.083,0.225-0.313,0.055
			c-0.395-0.171-0.568-0.712-1.13-0.522c-0.562,0.188-0.724,0.352-0.905,0.205c0,0-0.368-0.258-0.51-0.436s-0.106-0.498-0.411-0.677
			c-0.304-0.178-0.857-0.546-0.964-0.72C249.896,356.045,249.813,355.657,249.813,355.657z"/>
		<path fill="#E51D2E" d="M252.354,357.059c0,0-0.435,0.104-0.458-0.33c-0.024-0.435,0.107-1.204,0.096-1.421
			c-0.012-0.218-0.037-1.04-0.124-1.311c-0.087-0.271,0.032-0.447-0.079-0.585c-0.11-0.139-0.114-0.265-0.479-0.378
			c-0.366-0.113-0.5-0.038-0.621-0.412c-0.12-0.373-0.265-0.29-0.084-0.531s-0.034-0.184,0.229-0.442s0.967-0.919,1.001-1.221
			c0.034-0.303-0.147-0.367-0.03-0.444s0.506-0.38,0.601-0.423c0.095-0.044,0.049-0.062,0.269-0.231
			c0.33-0.256,0.289-0.287,0.583-0.264c0.294,0.024,0.452-0.022,0.663,0.182c0.211,0.204,0.291,0.06,0.457,0.348
			c0.166,0.289,0.253,0.397,0.551,0.953s-0.172,0.413,0.43,0.661c0.603,0.247,0.698,0.204,1.255,0.455
			c0.557,0.252,1.03,0.378,1.159,0.518c0.128,0.141,0.027-0.078,0.23,0.521c0.203,0.599,0.177,1.388,0.059,1.482
			c-0.119,0.095-0.656,0.07-0.89,0.306c-0.234,0.235,0.033,0.103-0.424,0.646c-0.457,0.543-1.268,1.514-1.541,1.781
			c-0.273,0.267-0.375,0.525-0.766,0.319c-0.391-0.205-0.988-0.75-1.342-0.483C252.745,357.021,252.354,357.059,252.354,357.059z"/>
		<g>
			<path fill="#E32D44" d="M252.046,357.136c0.251,0.001,0.509-0.061,0.728-0.172c0.111-0.06,0.199-0.145,0.315-0.215
				c0.139-0.07,0.271-0.027,0.402-0.01c0.145,0.032,0.242,0.11,0.357,0.165l0.336,0.181c0.221,0.121,0.436,0.343,0.619,0.184
				c0.194-0.136,0.334-0.351,0.506-0.538l0.507-0.57l0.999-1.156l-0.004,0.005c0.1-0.147,0.153-0.269,0.266-0.433
				c0.059-0.064,0.119-0.135,0.222-0.162l0.244-0.062l0.245-0.057c0.079-0.023,0.17-0.025,0.226-0.073
				c0.114-0.109,0.115-0.303,0.13-0.462c-0.007,0.163,0.017,0.349-0.106,0.489c-0.071,0.065-0.162,0.068-0.239,0.1l-0.241,0.074
				c-0.171,0.055-0.325,0.064-0.413,0.208c-0.079,0.11-0.162,0.298-0.249,0.43l-0.002,0.004l-0.001,0.002l-0.967,1.179
				c-0.162,0.195-0.328,0.388-0.5,0.575c-0.177,0.181-0.323,0.401-0.553,0.555c-0.113,0.095-0.309,0.086-0.418,0.011
				c-0.124-0.061-0.216-0.153-0.325-0.208l-0.331-0.188c-0.111-0.059-0.221-0.142-0.328-0.164c-0.112-0.022-0.253-0.056-0.344-0.008
				c-0.101,0.061-0.208,0.143-0.327,0.196C252.559,357.115,252.298,357.155,252.046,357.136z"/>
		</g>
		<g>
			<path fill="#E32D44" d="M252.114,357.142c0.013-0.004-0.167,0.006-0.274-0.217c-0.121-0.221-0.038-0.559-0.017-0.945
				c0.018-0.195,0.038-0.407,0.059-0.632c0.03-0.204-0.043-0.453-0.063-0.692c-0.031-0.244-0.063-0.497-0.095-0.753
				c-0.029-0.119,0.002-0.279-0.077-0.366c-0.065-0.111-0.122-0.233-0.214-0.255l-0.364-0.132c-0.112-0.031-0.251-0.079-0.342-0.184
				c-0.094-0.129-0.166-0.238-0.21-0.351l-0.08-0.165c-0.042-0.063-0.056-0.162-0.028-0.225c0.045-0.153,0.125-0.213,0.151-0.325
				c0.007-0.053,0.04-0.122,0.086-0.185c0.031-0.04,0.08-0.08,0.118-0.119c0.161-0.162,0.321-0.292,0.446-0.446
				c0.129-0.146,0.248-0.279,0.353-0.397c0.121-0.106,0.162-0.25,0.175-0.356c0.007-0.109-0.044-0.197-0.04-0.26
				c-0.007-0.061-0.011-0.093-0.011-0.093s0.006,0.032,0.018,0.093c0,0.062,0.056,0.143,0.059,0.259
				c0.016,0.251-0.249,0.501-0.487,0.805c-0.12,0.155-0.287,0.301-0.439,0.462c-0.04,0.042-0.081,0.075-0.12,0.127
				c-0.017,0.034-0.045,0.065-0.054,0.133c-0.023,0.121-0.129,0.244-0.144,0.331c-0.02,0.052-0.007,0.09,0.014,0.129
				c0.039,0.063,0.059,0.114,0.089,0.172c0.052,0.123,0.13,0.222,0.183,0.306c0.082,0.093,0.2,0.127,0.337,0.168l0.376,0.13
				c0.26,0.191,0.33,0.472,0.335,0.727c0.026,0.257,0.051,0.509,0.076,0.753c0.013,0.248,0.079,0.471,0.047,0.715
				c-0.026,0.224-0.051,0.436-0.074,0.631c-0.028,0.387-0.146,0.725-0.042,0.932C251.951,357.136,252.125,357.138,252.114,357.142z"
				/>
		</g>
		<g>
			<path fill="#E32D44" d="M255.051,351.121c0,0,0.232,0.047,0.575,0.134c0.17,0.044,0.374,0.112,0.581,0.179
				c0.211,0.073,0.434,0.127,0.661,0.225c0.211,0.105,0.422,0.21,0.62,0.309c0.198,0.084,0.393,0.212,0.487,0.381
				c0.059,0.067,0.072,0.187,0.064,0.247c-0.004,0.071-0.007,0.134-0.01,0.186c-0.005,0.104-0.009,0.162-0.009,0.162
				s-0.006-0.059-0.017-0.162c-0.005-0.051-0.012-0.113-0.019-0.186c-0.009-0.078-0.024-0.135-0.078-0.203
				c-0.09-0.141-0.255-0.243-0.468-0.321c-0.203-0.088-0.419-0.182-0.635-0.275c-0.201-0.101-0.435-0.173-0.637-0.255
				c-0.21-0.079-0.393-0.153-0.563-0.207C255.269,351.213,255.051,351.121,255.051,351.121z"/>
		</g>
		<path fill="#E51D2E" d="M253.935,357.943c0,0,0.02-0.218-0.091-0.429c-0.112-0.211-0.154-0.314-0.257-0.321
			c-0.103-0.007-0.214-0.016-0.365-0.041c-0.15-0.025-0.239-0.035-0.331-0.019c-0.092,0.017-0.318,0.189-0.312,0.248
			c0.007,0.06,0.136,0.191,0.17,0.213c0.033,0.021,0.153-0.001,0.301,0.003c0.148,0.002,0.403,0.018,0.558,0.089
			C253.762,357.758,253.935,357.943,253.935,357.943z"/>
		<path fill="#E51D2E" d="M250.93,356.255c0,0-0.073-0.882-0.13-1.014c-0.057-0.133-0.136-0.475-0.179-0.569
			c-0.043-0.096-0.184-0.372-0.207-0.482c-0.024-0.111-0.065-0.305,0.032-0.447c0.097-0.142,0.314-0.56,0.419-0.53
			c0.232,0.066,0.659,0.334,0.73,0.479c0.051,0.104,0.318,1.504,0.279,1.697c-0.04,0.194-0.139,0.841-0.295,1.029
			c-0.156,0.19-0.462,0.273-0.525,0.274C250.989,356.694,250.938,356.346,250.93,356.255z"/>
		<path fill="#E51D2E" d="M256.303,350.403c0.012,0.026-0.201-0.119-0.631-0.141c-0.43-0.021-0.442,0.024-0.615-0.055
			c-0.173-0.08-0.233-0.079-0.377-0.336c-0.144-0.256-0.293-0.477-0.103-0.532c0.192-0.056,0.265-0.224,0.504-0.136
			c0.24,0.088,0.166,0.025,0.336,0.193c0.17,0.167,0.286,0.196,0.592,0.547S256.303,350.403,256.303,350.403z"/>
		<path fill="#E51D2E" d="M256.326,356.995c-0.129-0.034-0.169,0.11-0.219,0.049s0.038-0.144,0.05-0.255s0.14-0.188,0.156-0.264
			c0.016-0.076,0.17-0.136,0.164,0.046c-0.006,0.183-0.028,0.188,0.071,0.247c0.099,0.061,0.114,0.238-0.054,0.207
			C256.326,356.995,256.326,356.995,256.326,356.995z"/>
		<path fill="#E51D2E" d="M257.251,356.391c0,0-0.313-0.066-0.371-0.134c-0.059-0.066-0.089-0.244-0.101-0.324
			c-0.012-0.079-0.025-0.232,0.043-0.363s0.14-0.39,0.345-0.528c0.205-0.14,0.252-0.177,0.418-0.222
			c0.167-0.044,0.388-0.005,0.355,0.097s-0.117,0.574-0.116,0.611s-0.096,0.405-0.099,0.434s-0.267-0.01-0.267-0.01
			S257.412,356.432,257.251,356.391z"/>
		<path fill="#E32D44" stroke="#E32D44" stroke-width="0.1519" stroke-miterlimit="10" d="M256.628,353.72
			c0,0,0.146-0.213,0.018-0.366c-0.128-0.154-0.873-1.003-0.985-1.243c-0.112-0.24-0.361-0.15-0.53-0.253
			c-0.169-0.102-0.339,0.098-0.438-0.062s-0.497-0.49-0.45-0.395c0.047,0.095,0.434-0.141,0.578,0.169s0.492-0.37,0.822,0.091
			c0.331,0.46,0.234,0.496,0.495,0.823c0.324,0.405,0.338,0.24,0.609,0.525c0.27,0.284,0.039,0.713,0.169,1.015
			s-0.067,0.373,0.009,0.529c0.076,0.155-0.204,0.076-0.239-0.14S256.628,353.72,256.628,353.72z"/>
	</g>
	
		<linearGradient id="SVGID_8_" gradientUnits="userSpaceOnUse" x1="250.4917" y1="367.1523" x2="255.89" y2="364.2013" gradientTransform="matrix(0.9979 0.0645 -0.0645 0.9979 20.0024 -25.9231)">
		<stop  offset="0.089" style="stop-color:#FFFFFF"/>
		<stop  offset="1" style="stop-color:#E30613;stop-opacity:0.7"/>
	</linearGradient>
	<path fill="url(#SVGID_8_)" d="M249.119,356.093c-0.01-0.24-0.391-0.624-0.033-1.54c0.358-0.917-0.212-1.168,0.768-2.459
		c0.98-1.292,0.443-1.51,1.153-2.094c0.71-0.585,1.299-1.124,2.195-2.262c0.896-1.139,2.301-0.964,2.924-1.354
		c0.624-0.392,1.808-1.366,2.415-1.512c0.607-0.146,2.214-0.712,2.985-1.074c0.771-0.362,2.133-0.616,2.384-1.027
		s1.323-0.81,1.711-1.027c0.388-0.218,0.197-0.155,0.057,0.284c-0.141,0.439,0.246,0.24,0.507-0.041
		c0.262-0.283,1.896-0.7,1.991-0.731s2.298-1.142,2.298-1.142l0.699-0.403c0,0-1.077,1.052-1.236,1.35
		c-0.16,0.298,1.522-0.126,1.609-0.176c0.087-0.051,2.308-1.87,2.421-1.891s1.536-0.349,1.819-0.387
		c0.283-0.038,1.439-0.58,1.439-0.58s-0.758,0.456-1.249,1.097c-0.49,0.642,0.004,0.808,0.183,0.64c0.179-0.168,0.32-0.607,1-0.731
		c0.681-0.124-1.247,1.938-1.247,1.938s-0.793,0.126-1.384,0.588c-0.59,0.463-0.772,0.675-0.905,1.003
		c-0.134,0.328-0.567,0.967-0.389,0.813c0.178-0.154,1.887-1.445,0.178-0.154c-1.709,1.292-2.004,1.516-2.422,1.899
		c-0.417,0.384-1.483,1.269-1.483,1.269s-1.16,0.6-1.413,1.031c-0.252,0.431-0.665,1.611-1.238,1.813
		c-0.574,0.2-1.755,1.133-2.105,1.334c-0.349,0.202-1.674,1.032-1.339,1.054s-0.786,0.585-1.056,0.717s-0.938,1.211-0.945,1.322
		c-0.007,0.111-0.845,0.917-0.999,0.982c-0.153,0.064-0.892,0.503-0.892,0.503s-1.958,2.277-2.075,2.345
		c-0.116,0.066-2.216,1.041-2.216,1.041l-1.557,0.127l-1.179,0.013c0,0-1.143,0.062-2.865-1.003
		C249.536,357.606,249.145,356.723,249.119,356.093z"/>
</g>
</svg>
