<?xml version="1.0" encoding="utf-8"?>
<!-- Generator: Adobe Illustrator 16.0.0, SVG Export Plug-In . SVG Version: 6.00 Build 0)  -->
<!DOCTYPE svg PUBLIC "-//W3C//DTD SVG 1.1//EN" "http://www.w3.org/Graphics/SVG/1.1/DTD/svg11.dtd">
<svg version="1.1" id="Capa_3" xmlns="http://www.w3.org/2000/svg" xmlns:xlink="http://www.w3.org/1999/xlink" x="0px" y="0px"
	 width="841.89px" height="595.28px" viewBox="0 0 841.89 595.28" enable-background="new 0 0 841.89 595.28" xml:space="preserve">
<g>
	<g>
		<radialGradient id="SVGID_1_" cx="187.0981" cy="460.6025" r="279.9239" gradientUnits="userSpaceOnUse">
			<stop  offset="0.4293" style="stop-color:#FFFFFF"/>
			<stop  offset="1" style="stop-color:#DEDC00;stop-opacity:0.5"/>
		</radialGradient>
		<polyline fill="url(#SVGID_1_)" points="133.105,432.084 788.572,37.604 175.299,499.581 		"/>
		<g>
			<linearGradient id="SVGID_2_" gradientUnits="userSpaceOnUse" x1="63.3101" y1="524.4844" x2="196.3101" y2="435.4844">
				<stop  offset="0" style="stop-color:#FFFFFF"/>
				<stop  offset="1" style="stop-color:#DEDC00"/>
			</linearGradient>
			<path fill="url(#SVGID_2_)" d="M43.023,501.191c0,0-12.492,29.427-13.212,31.888c-0.721,2.462,1.363,14.225,9.832,17.719
				c8.468,3.495,14.951,6.225,22.198,6.965c7.249,0.741,28.72,0.118,33.89-0.856c5.17-0.973,14.763-5.72,22.414-10.76
				c7.651-5.039,20.427-11.525,28.87-13.292s13.567-3.213,20.114-4.798c6.547-1.584,6.547-1.584,6.547-1.584
				s-18.007-0.667-19.023-1.286c-1.016-0.621,7.723-3.672,11.6-4.402c3.878-0.73,10.941-1.911,13.065-2.222
				c2.123-0.31-1.579-3.364-5.414-4.074c-3.836-0.708-5.986-0.682-6.91-0.952c-0.923-0.271,13.837-9.759,20.531-12.313
				s60.627-31.407,67.038-34.414c6.41-3.007,8.813-5.391,12.232-7.153s7.941-7.019,7.941-7.019s-43.753,11.526-53.793,15.359
				c-10.039,3.832-27.595,11.614-34.604,13.363c-7.009,1.748-12.446,1.192-12.446,1.192s-5.859-1.232-1.631-9.533
				c4.229-8.3,54.365-46.835,64.029-54.58c9.665-7.744,72.626-62.222,72.626-62.222L172.63,435.663l5.477-17.75
				c0,0-19.851,21.28-22.053,20.773c-2.201-0.506,0.313-15.461,0.313-15.461s-19.359,22.669-22.17,23.297
				c-2.811,0.629-7.77,5.052-9.903,5.256c-2.134,0.204,62.155-74.138,67.012-79.627c4.857-5.49,19.072-21.924,19.072-21.924
				l-99.916,77.038l-2.781-6.552c0,0-4.818,13.38-7.069,16.108c-2.251,2.728-11.575,14.027-12.642,14.13
				c-1.067,0.102-1.407-3.454-0.462-8.568s-5.295,8.401-8.257,11.198c-2.962,2.796-10.05,14.958-11.015,16.127
				c-0.964,1.169-0.939-13.547-0.939-13.547l0.419-6.858c0,0-7.356,16.854-10.416,26.118c-3.06,9.264-4.988,11.603-4.988,11.603
				s-5.1-4.535-5.304-6.669c-0.205-2.134-2.943,6.741-2.602,10.297C44.747,494.208,43.023,501.191,43.023,501.191z"/>
			
				<radialGradient id="SVGID_3_" cx="99.3467" cy="497.0605" r="119.281" gradientTransform="matrix(1.3863 -0.0399 0.009 1.2413 -82.7716 -87.0978)" gradientUnits="userSpaceOnUse">
				<stop  offset="0.4293" style="stop-color:#FFFFFF"/>
				<stop  offset="1" style="stop-color:#DEDC00;stop-opacity:0.5"/>
			</radialGradient>
			<path fill="url(#SVGID_3_)" d="M45.697,477.46c0,0-17.052,37.025-18.029,40.109c-0.977,3.084,2.019,17.603,13.79,21.603
				c11.772,4,20.784,7.129,30.836,7.758c10.056,0.631,39.816-0.998,46.974-2.415c7.158-1.414,20.415-7.688,30.976-14.249
				c10.56-6.559,28.212-15.121,39.902-17.651c11.689-2.529,18.779-4.529,27.842-6.756c9.062-2.229,9.062-2.229,9.062-2.229
				s-24.969-0.11-26.385-0.837c-1.414-0.731,10.673-4.867,16.042-5.929c5.371-1.061,15.151-2.808,18.092-3.279
				c2.94-0.468-2.219-4.112-7.542-4.84c-5.323-0.727-8.304-0.607-9.586-0.905c-1.284-0.301,19.094-12.667,28.351-16.104
				c9.256-3.438,83.765-41.404,92.624-45.393c8.859-3.987,12.167-7.042,16.894-9.366c4.725-2.324,10.946-9.028,10.946-9.028
				s-60.552,16.053-74.436,21.209c-13.883,5.158-38.151,15.518-47.852,17.969c-9.702,2.45-17.244,1.977-17.244,1.977
				s-8.134-1.296-2.347-11.769c5.788-10.47,74.944-60.304,88.272-70.302C326.209,357.034,413,286.899,413,286.899L224.78,390.951
				l7.432-22.25c0,0-27.327,27.206-30.384,26.665c-3.056-0.541,0.295-19.203,0.295-19.203s-26.634,28.909-30.524,29.801
				c-3.891,0.893-10.726,6.582-13.683,6.918c-2.955,0.339,85.498-94.503,92.181-101.512c6.683-7.008,26.241-27.974,26.241-27.974
				l-137.818,99.61l-3.914-8.021c0,0-6.559,16.801-9.656,20.277c-3.094,3.475-15.919,17.873-17.396,18.044
				c-1.479,0.168-1.983-4.232-0.718-10.617c1.264-6.386-7.265,10.64-11.346,14.229c-4.081,3.588-13.797,18.967-15.124,20.457
				c-1.327,1.49-1.424-16.778-1.424-16.778l0.521-8.53c0,0-10.047,21.215-14.205,32.836c-4.159,11.62-6.811,14.601-6.811,14.601
				s-7.112-5.426-7.414-8.066c-0.303-2.641-4.019,8.485-3.514,12.887C48.022,468.725,45.697,477.46,45.697,477.46z"/>
		</g>
		<radialGradient id="SVGID_4_" cx="174.6802" cy="439.7676" r="21.2382" gradientUnits="userSpaceOnUse">
			<stop  offset="0.4293" style="stop-color:#FFFFFF"/>
			<stop  offset="1" style="stop-color:#DEDC00;stop-opacity:0.5"/>
		</radialGradient>
		<line fill="url(#SVGID_4_)" x1="170.603" y1="382.087" x2="220.101" y2="445.083"/>
	</g>
	<g>
		<radialGradient id="SVGID_5_" cx="399.5752" cy="355.9248" r="33.908" gradientUnits="userSpaceOnUse">
			<stop  offset="0.4293" style="stop-color:#FFFFFF"/>
			<stop  offset="1" style="stop-color:#DEDC00;stop-opacity:0.5"/>
		</radialGradient>
		<polyline fill="url(#SVGID_5_)" points="393.034,352.469 472.434,304.686 398.146,360.646 		"/>
		<g>
			<linearGradient id="SVGID_6_" gradientUnits="userSpaceOnUse" x1="384.5806" y1="363.6641" x2="400.6914" y2="352.8831">
				<stop  offset="0" style="stop-color:#FFFFFF"/>
				<stop  offset="1" style="stop-color:#DEDC00"/>
			</linearGradient>
			<path fill="url(#SVGID_6_)" d="M382.122,360.842c0,0-1.513,3.564-1.6,3.861c-0.087,0.299,0.165,1.725,1.191,2.146
				c1.026,0.424,1.811,0.754,2.689,0.844s3.479,0.016,4.105-0.104c0.626-0.117,1.788-0.691,2.715-1.303s2.474-1.396,3.497-1.609
				c1.023-0.215,1.644-0.391,2.437-0.582c0.793-0.191,0.793-0.191,0.793-0.191s-2.182-0.082-2.305-0.156
				c-0.123-0.076,0.936-0.445,1.405-0.533s1.325-0.232,1.583-0.27c0.257-0.037-0.191-0.408-0.656-0.494
				c-0.465-0.084-0.725-0.082-0.837-0.115c-0.112-0.031,1.676-1.182,2.487-1.492c0.811-0.309,7.343-3.803,8.12-4.168
				c0.776-0.363,1.068-0.652,1.482-0.865c0.414-0.215,0.962-0.852,0.962-0.852s-5.3,1.396-6.517,1.861
				c-1.216,0.463-3.343,1.406-4.192,1.619c-0.849,0.211-1.508,0.145-1.508,0.145s-0.71-0.15-0.197-1.156
				c0.512-1.004,6.585-5.672,7.756-6.611c1.171-0.938,8.797-7.537,8.797-7.537l-16.509,9.625l0.664-2.15
				c0,0-2.405,2.578-2.672,2.516c-0.267-0.061,0.038-1.873,0.038-1.873s-2.345,2.746-2.685,2.822
				c-0.341,0.076-0.941,0.611-1.2,0.637c-0.258,0.025,7.53-8.98,8.118-9.645c0.588-0.666,2.311-2.656,2.311-2.656l-12.104,9.332
				l-0.337-0.793c0,0-0.583,1.619-0.856,1.949c-0.273,0.332-1.402,1.699-1.532,1.713c-0.129,0.012-0.17-0.42-0.056-1.039
				c0.114-0.619-0.642,1.018-1,1.357c-0.359,0.338-1.217,1.813-1.334,1.953c-0.117,0.143-0.114-1.641-0.114-1.641l0.051-0.83
				c0,0-0.891,2.041-1.262,3.164c-0.37,1.121-0.604,1.404-0.604,1.404s-0.618-0.549-0.643-0.807
				c-0.025-0.26-0.356,0.816-0.315,1.246C382.331,359.996,382.122,360.842,382.122,360.842z"/>
			
				<radialGradient id="SVGID_7_" cx="334.3462" cy="374.0273" r="14.4489" gradientTransform="matrix(1.3863 -0.0399 0.009 1.2413 -82.7716 -87.0978)" gradientUnits="userSpaceOnUse">
				<stop  offset="0.4293" style="stop-color:#FFFFFF"/>
				<stop  offset="1" style="stop-color:#DEDC00;stop-opacity:0.5"/>
			</radialGradient>
			<path fill="url(#SVGID_7_)" d="M382.446,357.967c0,0-2.065,4.484-2.184,4.859c-0.119,0.373,0.244,2.131,1.67,2.615
				c1.426,0.484,2.518,0.863,3.736,0.939s4.823-0.119,5.69-0.291c0.867-0.172,2.473-0.932,3.752-1.727
				c1.279-0.795,3.418-1.832,4.834-2.139c1.416-0.307,2.274-0.549,3.372-0.818s1.098-0.27,1.098-0.27s-3.024-0.014-3.196-0.102
				s1.293-0.59,1.943-0.719s1.835-0.34,2.191-0.396c0.356-0.057-0.269-0.498-0.914-0.586s-1.006-0.074-1.161-0.109
				c-0.156-0.037,2.313-1.535,3.434-1.951c1.121-0.416,10.147-5.016,11.22-5.498c1.073-0.484,1.473-0.854,2.046-1.135
				c0.572-0.283,1.326-1.094,1.326-1.094s-7.335,1.943-9.017,2.568c-1.682,0.625-4.622,1.881-5.796,2.176
				c-1.175,0.297-2.089,0.24-2.089,0.24s-0.985-0.156-0.284-1.426c0.701-1.268,9.078-7.305,10.692-8.516s12.128-9.707,12.128-9.707
				l-22.8,12.605l0.9-2.697c0,0-3.31,3.297-3.68,3.23c-0.371-0.064,0.036-2.326,0.036-2.326s-3.227,3.502-3.698,3.609
				c-0.471,0.109-1.299,0.799-1.657,0.84s10.356-11.447,11.167-12.297c0.809-0.85,3.178-3.389,3.178-3.389l-16.694,12.066
				l-0.474-0.973c0,0-0.794,2.035-1.17,2.457c-0.375,0.422-1.928,2.164-2.107,2.186c-0.179,0.02-0.24-0.514-0.087-1.287
				c0.153-0.773-0.88,1.289-1.374,1.725c-0.495,0.434-1.671,2.297-1.833,2.479c-0.161,0.18-0.172-2.033-0.172-2.033l0.063-1.033
				c0,0-1.217,2.57-1.721,3.979c-0.504,1.406-0.825,1.768-0.825,1.768s-0.861-0.656-0.898-0.977s-0.487,1.027-0.426,1.561
				C382.728,356.908,382.446,357.967,382.446,357.967z"/>
		</g>
		<radialGradient id="SVGID_8_" cx="398.0703" cy="353.4014" r="2.5726" gradientUnits="userSpaceOnUse">
			<stop  offset="0.4293" style="stop-color:#FFFFFF"/>
			<stop  offset="1" style="stop-color:#DEDC00;stop-opacity:0.5"/>
		</radialGradient>
		<line fill="url(#SVGID_8_)" x1="397.577" y1="346.414" x2="403.572" y2="354.045"/>
	</g>
	<g>
		<radialGradient id="SVGID_9_" cx="231.7998" cy="348.8369" r="33.908" gradientUnits="userSpaceOnUse">
			<stop  offset="0.4293" style="stop-color:#FFFFFF"/>
			<stop  offset="1" style="stop-color:#DEDC00;stop-opacity:0.5"/>
		</radialGradient>
		<polyline fill="url(#SVGID_9_)" points="225.26,345.383 304.658,297.598 230.371,353.559 		"/>
		<g>
			<linearGradient id="SVGID_10_" gradientUnits="userSpaceOnUse" x1="216.8052" y1="356.5762" x2="232.9158" y2="345.7954">
				<stop  offset="0" style="stop-color:#FFFFFF"/>
				<stop  offset="1" style="stop-color:#DEDC00"/>
			</linearGradient>
			<path fill="url(#SVGID_10_)" d="M214.348,353.754c0,0-1.513,3.564-1.601,3.863c-0.087,0.297,0.165,1.723,1.191,2.146
				c1.026,0.422,1.811,0.754,2.689,0.844c0.878,0.09,3.479,0.014,4.105-0.104c0.626-0.119,1.788-0.693,2.715-1.305
				c0.927-0.609,2.474-1.395,3.497-1.609s1.644-0.389,2.437-0.582c0.793-0.191,0.793-0.191,0.793-0.191s-2.182-0.08-2.305-0.156
				c-0.123-0.074,0.936-0.443,1.405-0.533c0.47-0.088,1.326-0.23,1.583-0.268c0.257-0.039-0.191-0.408-0.656-0.494
				s-0.725-0.082-0.837-0.115s1.676-1.182,2.487-1.492c0.811-0.309,7.344-3.805,8.12-4.168c0.777-0.365,1.068-0.654,1.482-0.867
				s0.962-0.85,0.962-0.85s-5.3,1.396-6.517,1.859c-1.216,0.465-3.343,1.406-4.192,1.619s-1.508,0.145-1.508,0.145
				s-0.71-0.148-0.197-1.154c0.512-1.006,6.585-5.674,7.756-6.611c1.171-0.939,8.797-7.537,8.797-7.537l-16.509,9.623l0.664-2.15
				c0,0-2.404,2.578-2.671,2.516c-0.267-0.061,0.038-1.871,0.038-1.871s-2.345,2.746-2.685,2.82c-0.341,0.078-0.941,0.613-1.2,0.637
				c-0.259,0.025,7.529-8.979,8.118-9.645c0.588-0.664,2.31-2.656,2.31-2.656l-12.104,9.332l-0.337-0.793
				c0,0-0.583,1.621-0.856,1.951c-0.273,0.33-1.402,1.699-1.532,1.711c-0.129,0.014-0.17-0.418-0.056-1.037
				c0.114-0.619-0.641,1.018-1,1.357c-0.359,0.338-1.217,1.811-1.334,1.953c-0.117,0.141-0.114-1.641-0.114-1.641l0.051-0.832
				c0,0-0.891,2.041-1.262,3.164c-0.371,1.121-0.604,1.404-0.604,1.404s-0.618-0.549-0.642-0.807
				c-0.025-0.258-0.357,0.816-0.315,1.248C214.556,352.908,214.348,353.754,214.348,353.754z"/>
			
				<radialGradient id="SVGID_11_" cx="213.3857" cy="364.4316" r="14.4489" gradientTransform="matrix(1.3863 -0.0399 0.009 1.2413 -82.7716 -87.0978)" gradientUnits="userSpaceOnUse">
				<stop  offset="0.4293" style="stop-color:#FFFFFF"/>
				<stop  offset="1" style="stop-color:#DEDC00;stop-opacity:0.5"/>
			</radialGradient>
			<path fill="url(#SVGID_11_)" d="M214.672,350.879c0,0-2.066,4.486-2.184,4.859c-0.119,0.373,0.245,2.133,1.67,2.617
				c1.426,0.484,2.518,0.863,3.736,0.939s4.823-0.121,5.69-0.293s2.473-0.932,3.752-1.727c1.279-0.793,3.418-1.832,4.834-2.139
				c1.416-0.305,2.274-0.547,3.372-0.816c1.098-0.271,1.098-0.271,1.098-0.271s-3.025-0.014-3.196-0.1
				c-0.171-0.09,1.293-0.59,1.943-0.719s1.835-0.34,2.191-0.398c0.356-0.057-0.269-0.498-0.914-0.586s-1.006-0.072-1.161-0.109
				s2.313-1.535,3.434-1.951c1.121-0.416,10.147-5.014,11.22-5.498c1.073-0.482,1.473-0.854,2.046-1.135
				c0.572-0.281,1.326-1.094,1.326-1.094s-7.335,1.945-9.017,2.57c-1.682,0.625-4.622,1.879-5.796,2.176
				c-1.175,0.297-2.089,0.238-2.089,0.238s-0.985-0.156-0.284-1.424c0.701-1.27,9.078-7.305,10.692-8.516
				c1.615-1.213,12.128-9.707,12.128-9.707l-22.8,12.604l0.9-2.695c0,0-3.31,3.295-3.68,3.23c-0.371-0.066,0.036-2.326,0.036-2.326
				s-3.227,3.502-3.698,3.609s-1.299,0.797-1.657,0.838s10.357-11.447,11.167-12.297c0.809-0.848,3.178-3.389,3.178-3.389
				l-16.694,12.066l-0.474-0.971c0,0-0.794,2.035-1.17,2.457c-0.375,0.42-1.928,2.164-2.107,2.186
				c-0.179,0.02-0.24-0.514-0.087-1.287c0.153-0.773-0.88,1.289-1.374,1.725c-0.495,0.434-1.671,2.297-1.832,2.477
				c-0.161,0.182-0.173-2.031-0.173-2.031l0.063-1.033c0,0-1.217,2.57-1.721,3.977c-0.504,1.408-0.825,1.77-0.825,1.77
				s-0.861-0.658-0.898-0.979c-0.037-0.318-0.487,1.027-0.426,1.563C214.953,349.822,214.672,350.879,214.672,350.879z"/>
		</g>
		<radialGradient id="SVGID_12_" cx="230.2959" cy="346.3135" r="2.5724" gradientUnits="userSpaceOnUse">
			<stop  offset="0.4293" style="stop-color:#FFFFFF"/>
			<stop  offset="1" style="stop-color:#DEDC00;stop-opacity:0.5"/>
		</radialGradient>
		<line fill="url(#SVGID_12_)" x1="229.802" y1="339.326" x2="235.797" y2="346.957"/>
	</g>
	<g>
		<radialGradient id="SVGID_13_" cx="347.1719" cy="354.1475" r="33.9083" gradientUnits="userSpaceOnUse">
			<stop  offset="0.4293" style="stop-color:#FFFFFF"/>
			<stop  offset="1" style="stop-color:#DEDC00;stop-opacity:0.5"/>
		</radialGradient>
		<polyline fill="url(#SVGID_13_)" points="340.631,350.691 420.031,302.906 345.743,358.869 		"/>
		<g>
			<linearGradient id="SVGID_14_" gradientUnits="userSpaceOnUse" x1="332.1763" y1="361.8848" x2="348.287" y2="351.1039">
				<stop  offset="0" style="stop-color:#FFFFFF"/>
				<stop  offset="1" style="stop-color:#DEDC00"/>
			</linearGradient>
			<path fill="url(#SVGID_14_)" d="M329.719,359.063c0,0-1.513,3.564-1.6,3.863c-0.087,0.299,0.165,1.723,1.19,2.146
				c1.026,0.424,1.812,0.754,2.689,0.844c0.878,0.09,3.479,0.014,4.105-0.104c0.626-0.119,1.789-0.693,2.715-1.305
				c0.927-0.609,2.475-1.395,3.498-1.609c1.022-0.215,1.644-0.389,2.437-0.582c0.793-0.191,0.793-0.191,0.793-0.191
				s-2.182-0.08-2.304-0.156c-0.123-0.074,0.935-0.443,1.405-0.533c0.469-0.088,1.325-0.23,1.583-0.268
				c0.257-0.039-0.191-0.408-0.656-0.494c-0.464-0.086-0.725-0.082-0.837-0.115c-0.111-0.033,1.676-1.182,2.487-1.492
				c0.811-0.309,7.344-3.805,8.121-4.168c0.776-0.365,1.068-0.652,1.482-0.867c0.414-0.213,0.962-0.85,0.962-0.85
				s-5.301,1.396-6.517,1.859c-1.216,0.465-3.343,1.408-4.192,1.619c-0.849,0.213-1.508,0.145-1.508,0.145s-0.71-0.148-0.197-1.154
				c0.512-1.006,6.585-5.674,7.756-6.611s8.797-7.537,8.797-7.537l-16.509,9.623l0.663-2.15c0,0-2.404,2.578-2.671,2.518
				c-0.267-0.063,0.038-1.873,0.038-1.873s-2.345,2.746-2.686,2.82c-0.341,0.078-0.941,0.613-1.2,0.637
				c-0.258,0.025,7.529-8.979,8.118-9.645c0.588-0.664,2.31-2.656,2.31-2.656l-12.103,9.332l-0.337-0.793
				c0,0-0.584,1.621-0.856,1.951c-0.273,0.33-1.402,1.699-1.531,1.711c-0.129,0.014-0.17-0.418-0.056-1.037
				c0.115-0.619-0.641,1.018-1,1.357c-0.359,0.338-1.218,1.811-1.334,1.953c-0.116,0.141-0.113-1.641-0.113-1.641l0.051-0.832
				c0,0-0.892,2.043-1.262,3.164s-0.604,1.404-0.604,1.404s-0.618-0.549-0.643-0.807c-0.025-0.258-0.356,0.816-0.315,1.248
				C329.928,358.217,329.719,359.063,329.719,359.063z"/>
			
				<radialGradient id="SVGID_15_" cx="296.563" cy="371.3809" r="14.4489" gradientTransform="matrix(1.3863 -0.0399 0.009 1.2413 -82.7716 -87.0978)" gradientUnits="userSpaceOnUse">
				<stop  offset="0.4293" style="stop-color:#FFFFFF"/>
				<stop  offset="1" style="stop-color:#DEDC00;stop-opacity:0.5"/>
			</radialGradient>
			<path fill="url(#SVGID_15_)" d="M330.043,356.188c0,0-2.066,4.486-2.184,4.859s0.245,2.133,1.67,2.617
				c1.426,0.484,2.518,0.863,3.735,0.939s4.823-0.121,5.69-0.293c0.867-0.172,2.473-0.932,3.752-1.727
				c1.279-0.793,3.417-1.83,4.833-2.137s2.274-0.549,3.373-0.818c1.098-0.271,1.098-0.271,1.098-0.271s-3.025-0.012-3.196-0.1
				c-0.171-0.09,1.293-0.59,1.943-0.719c0.65-0.129,1.835-0.34,2.192-0.398c0.356-0.057-0.269-0.498-0.914-0.586
				c-0.645-0.088-1.005-0.072-1.161-0.109c-0.155-0.037,2.313-1.535,3.435-1.949c1.121-0.418,10.146-5.016,11.22-5.5
				c1.073-0.482,1.473-0.854,2.047-1.135c0.571-0.281,1.326-1.094,1.326-1.094s-7.335,1.945-9.017,2.57s-4.621,1.879-5.796,2.176
				c-1.176,0.297-2.089,0.238-2.089,0.238s-0.985-0.156-0.284-1.424s9.078-7.305,10.693-8.516
				c1.615-1.213,12.128-9.707,12.128-9.707l-22.8,12.604l0.9-2.695c0,0-3.31,3.295-3.681,3.23c-0.37-0.066,0.036-2.326,0.036-2.326
				s-3.227,3.502-3.698,3.609s-1.299,0.797-1.658,0.838c-0.357,0.041,10.357-11.447,11.167-12.297
				c0.809-0.848,3.178-3.389,3.178-3.389l-16.694,12.066l-0.474-0.971c0,0-0.794,2.035-1.17,2.457
				c-0.375,0.42-1.928,2.164-2.107,2.186c-0.179,0.02-0.24-0.514-0.087-1.287c0.153-0.773-0.88,1.289-1.374,1.725
				c-0.495,0.434-1.672,2.297-1.833,2.477c-0.161,0.182-0.172-2.031-0.172-2.031l0.063-1.033c0,0-1.218,2.57-1.721,3.977
				c-0.504,1.408-0.826,1.77-0.826,1.77s-0.861-0.658-0.898-0.977c-0.037-0.32-0.487,1.027-0.426,1.561
				C330.325,355.131,330.043,356.188,330.043,356.188z"/>
		</g>
		<radialGradient id="SVGID_16_" cx="345.6675" cy="351.6221" r="2.5726" gradientUnits="userSpaceOnUse">
			<stop  offset="0.4293" style="stop-color:#FFFFFF"/>
			<stop  offset="1" style="stop-color:#DEDC00;stop-opacity:0.5"/>
		</radialGradient>
		<line fill="url(#SVGID_16_)" x1="345.173" y1="344.635" x2="351.169" y2="352.266"/>
	</g>
	<g>
		<radialGradient id="SVGID_17_" cx="347.7734" cy="418.9736" r="33.9083" gradientUnits="userSpaceOnUse">
			<stop  offset="0.4293" style="stop-color:#FFFFFF"/>
			<stop  offset="1" style="stop-color:#DEDC00;stop-opacity:0.5"/>
		</radialGradient>
		<polyline fill="url(#SVGID_17_)" points="341.233,415.518 420.632,367.732 346.345,423.695 		"/>
		<g>
			<linearGradient id="SVGID_18_" gradientUnits="userSpaceOnUse" x1="332.7788" y1="426.7109" x2="348.8895" y2="415.9301">
				<stop  offset="0" style="stop-color:#FFFFFF"/>
				<stop  offset="1" style="stop-color:#DEDC00"/>
			</linearGradient>
			<path fill="url(#SVGID_18_)" d="M330.321,423.891c0,0-1.513,3.564-1.6,3.861c-0.087,0.299,0.165,1.723,1.19,2.146
				c1.026,0.424,1.811,0.754,2.689,0.844c0.878,0.09,3.479,0.014,4.105-0.104c0.626-0.117,1.789-0.693,2.715-1.303
				c0.927-0.611,2.475-1.396,3.498-1.611c1.022-0.213,1.644-0.389,2.437-0.58c0.793-0.193,0.793-0.193,0.793-0.193
				s-2.182-0.08-2.304-0.154c-0.123-0.076,0.935-0.445,1.405-0.533c0.469-0.09,1.325-0.232,1.582-0.27
				c0.257-0.037-0.191-0.408-0.655-0.494c-0.465-0.086-0.725-0.082-0.837-0.115c-0.111-0.033,1.676-1.182,2.487-1.492
				c0.811-0.309,7.344-3.803,8.121-4.168c0.776-0.365,1.068-0.652,1.482-0.865c0.415-0.215,0.963-0.852,0.963-0.852
				s-5.301,1.396-6.517,1.861c-1.216,0.463-3.343,1.406-4.192,1.619c-0.849,0.211-1.508,0.143-1.508,0.143s-0.71-0.148-0.198-1.154
				c0.512-1.004,6.585-5.672,7.756-6.611c1.171-0.938,8.797-7.537,8.797-7.537l-16.509,9.623l0.663-2.15
				c0,0-2.404,2.578-2.671,2.518c-0.267-0.061,0.038-1.873,0.038-1.873s-2.345,2.746-2.686,2.822
				c-0.341,0.076-0.941,0.611-1.2,0.637c-0.258,0.023,7.529-8.98,8.118-9.646c0.588-0.664,2.31-2.654,2.31-2.654l-12.103,9.332
				l-0.337-0.795c0,0-0.584,1.621-0.856,1.951c-0.273,0.332-1.402,1.699-1.531,1.711c-0.129,0.014-0.17-0.418-0.056-1.037
				c0.115-0.619-0.641,1.018-1,1.357c-0.359,0.338-1.218,1.811-1.334,1.953c-0.117,0.141-0.114-1.641-0.114-1.641l0.051-0.832
				c0,0-0.892,2.043-1.262,3.164c-0.37,1.123-0.604,1.406-0.604,1.406s-0.618-0.549-0.643-0.809
				c-0.025-0.258-0.356,0.816-0.315,1.248C330.53,423.045,330.321,423.891,330.321,423.891z"/>
			
				<radialGradient id="SVGID_19_" cx="296.6567" cy="423.6094" r="14.4492" gradientTransform="matrix(1.3863 -0.0399 0.009 1.2413 -82.7716 -87.0978)" gradientUnits="userSpaceOnUse">
				<stop  offset="0.4293" style="stop-color:#FFFFFF"/>
				<stop  offset="1" style="stop-color:#DEDC00;stop-opacity:0.5"/>
			</radialGradient>
			<path fill="url(#SVGID_19_)" d="M330.646,421.016c0,0-2.065,4.484-2.184,4.857c-0.118,0.375,0.245,2.133,1.67,2.617
				c1.426,0.484,2.518,0.863,3.735,0.939s4.823-0.121,5.69-0.291c0.867-0.172,2.473-0.932,3.752-1.727
				c1.279-0.795,3.417-1.832,4.833-2.139s2.274-0.549,3.373-0.818c1.098-0.27,1.098-0.27,1.098-0.27s-3.025-0.014-3.196-0.102
				c-0.171-0.09,1.292-0.59,1.943-0.719s1.835-0.34,2.192-0.396c0.356-0.057-0.269-0.498-0.914-0.588
				c-0.645-0.086-1.005-0.072-1.161-0.109c-0.155-0.035,2.313-1.533,3.435-1.949c1.121-0.418,10.146-5.016,11.22-5.5
				c1.073-0.482,1.473-0.854,2.046-1.135c0.572-0.281,1.326-1.092,1.326-1.092s-7.335,1.943-9.017,2.568s-4.621,1.879-5.796,2.176
				c-1.175,0.297-2.089,0.24-2.089,0.24s-0.985-0.158-0.284-1.426s9.078-7.305,10.693-8.516c1.615-1.211,12.128-9.707,12.128-9.707
				l-22.8,12.604l0.9-2.695c0,0-3.31,3.297-3.681,3.23c-0.37-0.064,0.036-2.326,0.036-2.326s-3.227,3.502-3.698,3.609
				c-0.471,0.109-1.3,0.799-1.657,0.838c-0.358,0.041,10.356-11.447,11.167-12.295c0.809-0.85,3.178-3.389,3.178-3.389
				l-16.694,12.066l-0.474-0.973c0,0-0.794,2.035-1.17,2.457c-0.375,0.42-1.928,2.164-2.107,2.186
				c-0.179,0.02-0.24-0.514-0.087-1.287c0.153-0.773-0.88,1.289-1.374,1.725c-0.495,0.434-1.672,2.297-1.833,2.479
				c-0.161,0.18-0.172-2.033-0.172-2.033l0.063-1.033c0,0-1.217,2.57-1.721,3.977c-0.504,1.408-0.825,1.77-0.825,1.77
				s-0.861-0.656-0.898-0.977s-0.487,1.027-0.426,1.561C330.927,419.957,330.646,421.016,330.646,421.016z"/>
		</g>
		<radialGradient id="SVGID_20_" cx="346.2695" cy="416.4502" r="2.5726" gradientUnits="userSpaceOnUse">
			<stop  offset="0.4293" style="stop-color:#FFFFFF"/>
			<stop  offset="1" style="stop-color:#DEDC00;stop-opacity:0.5"/>
		</radialGradient>
		<line fill="url(#SVGID_20_)" x1="345.775" y1="409.461" x2="351.771" y2="417.094"/>
	</g>
	<g>
		
			<radialGradient id="SVGID_21_" cx="306.1328" cy="288.1572" r="33.9083" gradientTransform="matrix(1.436 0 0 1.339 -123.8046 -103.5883)" gradientUnits="userSpaceOnUse">
			<stop  offset="0.4293" style="stop-color:#FFFFFF"/>
			<stop  offset="1" style="stop-color:#DEDC00;stop-opacity:0.5"/>
		</radialGradient>
		<polyline fill="url(#SVGID_21_)" points="306.421,277.638 420.44,213.652 313.761,288.587 		"/>
		<g>
			<linearGradient id="SVGID_22_" gradientUnits="userSpaceOnUse" x1="294.6299" y1="293.1494" x2="317.2745" y2="277.9962">
				<stop  offset="0" style="stop-color:#FFFFFF"/>
				<stop  offset="1" style="stop-color:#DEDC00"/>
			</linearGradient>
			<path fill="url(#SVGID_22_)" d="M290.75,288.848c0,0-2.172,4.773-2.298,5.171c-0.125,0.399,0.237,2.308,1.71,2.874
				c1.474,0.567,2.601,1.012,3.862,1.132c1.261,0.118,4.996,0.018,5.896-0.141c0.899-0.156,2.568-0.926,3.898-1.745
				c1.331-0.816,3.553-1.867,5.022-2.156c1.469-0.285,2.36-0.52,3.499-0.778c1.139-0.256,1.139-0.256,1.139-0.256
				s-3.133-0.107-3.31-0.208c-0.176-0.101,1.343-0.596,2.019-0.715c0.674-0.118,1.903-0.31,2.272-0.361
				c0.369-0.049-0.274-0.544-0.941-0.66c-0.667-0.114-1.041-0.109-1.202-0.154c-0.16-0.045,2.407-1.582,3.571-1.998
				c1.165-0.413,10.546-5.093,11.661-5.582c1.115-0.487,1.534-0.873,2.128-1.159c0.595-0.287,1.382-1.139,1.382-1.139
				s-7.611,1.869-9.358,2.491c-1.746,0.621-4.8,1.884-6.02,2.168c-1.219,0.283-2.165,0.193-2.165,0.193s-1.02-0.2-0.283-1.547
				c0.735-1.346,9.457-7.596,11.138-8.853c1.682-1.256,12.633-10.094,12.633-10.094l-23.708,12.888l0.953-2.88
				c0,0-3.453,3.452-3.836,3.37c-0.383-0.082,0.054-2.508,0.054-2.508s-3.368,3.677-3.856,3.778c-0.49,0.103-1.352,0.82-1.724,0.853
				c-0.371,0.033,10.813-12.024,11.658-12.915c0.845-0.891,3.317-3.556,3.317-3.556l-17.38,12.496l-0.484-1.063
				c0,0-0.838,2.171-1.229,2.612c-0.392,0.442-2.013,2.275-2.199,2.292c-0.186,0.017-0.245-0.561-0.08-1.39
				c0.165-0.83-0.921,1.362-1.437,1.816c-0.515,0.453-1.748,2.426-1.916,2.615c-0.167,0.19-0.164-2.196-0.164-2.196l0.073-1.112
				c0,0-1.28,2.733-1.812,4.236c-0.532,1.502-0.868,1.881-0.868,1.881s-0.887-0.735-0.922-1.081
				c-0.036-0.346-0.512,1.094-0.453,1.671C291.051,287.715,290.75,288.848,290.75,288.848z"/>
			
				<radialGradient id="SVGID_23_" cx="267.3125" cy="317.2773" r="14.449" gradientTransform="matrix(1.9908 -0.0534 0.013 1.6621 -242.6681 -220.2177)" gradientUnits="userSpaceOnUse">
				<stop  offset="0.4293" style="stop-color:#FFFFFF"/>
				<stop  offset="1" style="stop-color:#DEDC00;stop-opacity:0.5"/>
			</radialGradient>
			<path fill="url(#SVGID_23_)" d="M291.216,284.999c0,0-2.966,6.006-3.136,6.506s0.351,2.856,2.398,3.503
				c2.048,0.65,3.616,1.156,5.364,1.259c1.749,0.103,6.926-0.16,8.171-0.391c1.246-0.229,3.552-1.247,5.389-2.312
				s4.908-2.452,6.941-2.863c2.033-0.41,3.266-0.734,4.842-1.097c1.577-0.36,1.577-0.36,1.577-0.36s-4.343-0.019-4.589-0.136
				c-0.246-0.119,1.857-0.79,2.791-0.962c0.934-0.173,2.636-0.455,3.147-0.532c0.511-0.076-0.386-0.667-1.312-0.785
				c-0.926-0.117-1.444-0.099-1.667-0.146c-0.223-0.049,3.321-2.056,4.932-2.612c1.609-0.558,14.571-6.715,16.112-7.362
				c1.542-0.647,2.116-1.143,2.939-1.52c0.821-0.377,1.904-1.465,1.904-1.465s-10.534,2.604-12.948,3.44
				c-2.415,0.837-6.637,2.518-8.324,2.914c-1.688,0.397-3,0.321-3,0.321s-1.415-0.21-0.408-1.908
				c1.006-1.698,13.036-9.783,15.354-11.404c2.319-1.622,17.417-12.998,17.417-12.998l-32.741,16.877l1.293-3.609
				c0,0-4.753,4.413-5.286,4.326c-0.532-0.088,0.051-3.115,0.051-3.115s-4.633,4.689-5.31,4.833
				c-0.677,0.146-1.866,1.068-2.38,1.123c-0.514,0.055,14.873-15.329,16.036-16.466c1.162-1.137,4.564-4.538,4.564-4.538
				l-23.974,16.158l-0.681-1.301c0,0-1.142,2.725-1.68,3.29c-0.538,0.563-2.769,2.898-3.026,2.927
				c-0.257,0.026-0.345-0.688-0.125-1.724c0.22-1.035-1.264,1.727-1.973,2.309c-0.71,0.582-2.4,3.077-2.631,3.318
				s-0.248-2.721-0.248-2.721l0.091-1.384c0,0-1.748,3.441-2.471,5.325c-0.724,1.885-1.185,2.369-1.185,2.369
				s-1.237-0.881-1.289-1.309c-0.053-0.429-0.7,1.376-0.612,2.09S291.216,284.999,291.216,284.999z"/>
		</g>
		
			<radialGradient id="SVGID_24_" cx="304.6289" cy="285.6323" r="2.5727" gradientTransform="matrix(1.436 0 0 1.339 -123.8046 -103.5883)" gradientUnits="userSpaceOnUse">
			<stop  offset="0.4293" style="stop-color:#FFFFFF"/>
			<stop  offset="1" style="stop-color:#DEDC00;stop-opacity:0.5"/>
		</radialGradient>
		<line fill="url(#SVGID_24_)" x1="312.943" y1="269.529" x2="321.554" y2="279.747"/>
	</g>
	<g>
		
			<radialGradient id="SVGID_25_" cx="416.4751" cy="221.9165" r="43.0758" gradientTransform="matrix(1.436 0 0 1.339 -123.8046 -103.5883)" gradientUnits="userSpaceOnUse">
			<stop  offset="0.4293" style="stop-color:#FFFFFF"/>
			<stop  offset="1" style="stop-color:#DEDC00;stop-opacity:0.5"/>
		</radialGradient>
		<polyline fill="url(#SVGID_25_)" points="462.337,187.688 607.183,106.403 471.66,201.598 		"/>
		<g>
			<linearGradient id="SVGID_26_" gradientUnits="userSpaceOnUse" x1="447.3564" y1="207.3926" x2="476.1235" y2="188.1425">
				<stop  offset="0" style="stop-color:#FFFFFF"/>
				<stop  offset="1" style="stop-color:#DEDC00"/>
			</linearGradient>
			<path fill="url(#SVGID_26_)" d="M442.429,201.93c0,0-2.761,6.063-2.919,6.568c-0.159,0.507,0.3,2.931,2.172,3.651
				c1.873,0.721,3.305,1.285,4.905,1.437c1.604,0.15,6.347,0.023,7.49-0.178c1.143-0.199,3.263-1.177,4.952-2.217
				c1.691-1.038,4.514-2.373,6.381-2.739c1.865-0.363,2.998-0.661,4.444-0.988c1.448-0.326,1.448-0.326,1.448-0.326
				s-3.98-0.137-4.205-0.264c-0.224-0.128,1.707-0.757,2.564-0.908c0.855-0.15,2.417-0.394,2.886-0.459
				c0.47-0.062-0.348-0.692-1.196-0.839c-0.848-0.145-1.321-0.139-1.527-0.196c-0.203-0.057,3.058-2.01,4.537-2.538
				c1.479-0.525,13.397-6.47,14.813-7.091c1.418-0.619,1.95-1.11,2.704-1.473c0.756-0.364,1.757-1.447,1.757-1.447
				s-9.67,2.375-11.889,3.165c-2.218,0.79-6.099,2.393-7.647,2.754c-1.548,0.36-2.751,0.245-2.751,0.245s-1.294-0.253-0.359-1.964
				c0.934-1.71,12.014-9.65,14.149-11.247c2.138-1.596,16.049-12.822,16.049-12.822l-30.117,16.372l1.21-3.658
				c0,0-4.387,4.385-4.873,4.281c-0.486-0.104,0.069-3.185,0.069-3.185s-4.278,4.671-4.899,4.799
				c-0.622,0.131-1.717,1.042-2.188,1.083c-0.471,0.043,13.736-15.275,14.81-16.407s4.215-4.518,4.215-4.518l-22.08,15.874
				l-0.615-1.349c0,0-1.065,2.757-1.563,3.318c-0.497,0.563-2.558,2.891-2.794,2.912c-0.235,0.021-0.31-0.711-0.102-1.765
				c0.208-1.055-1.17,1.731-1.825,2.308c-0.653,0.575-2.221,3.082-2.434,3.322s-0.208-2.791-0.208-2.791l0.094-1.414
				c0,0-1.626,3.473-2.303,5.382c-0.676,1.908-1.102,2.39-1.102,2.39s-1.128-0.934-1.173-1.374s-0.649,1.389-0.575,2.122
				C442.811,200.49,442.429,201.93,442.429,201.93z"/>
			
				<radialGradient id="SVGID_27_" cx="344.2109" cy="268.1079" r="18.3553" gradientTransform="matrix(1.9908 -0.0534 0.013 1.6621 -242.6681 -220.2177)" gradientUnits="userSpaceOnUse">
				<stop  offset="0.4293" style="stop-color:#FFFFFF"/>
				<stop  offset="1" style="stop-color:#DEDC00;stop-opacity:0.5"/>
			</radialGradient>
			<path fill="url(#SVGID_27_)" d="M443.021,197.039c0,0-3.769,7.63-3.983,8.265c-0.217,0.635,0.445,3.629,3.047,4.45
				c2.601,0.826,4.592,1.47,6.813,1.6c2.223,0.13,8.8-0.204,10.381-0.496c1.582-0.292,4.513-1.585,6.846-2.937
				c2.333-1.353,6.235-3.116,8.817-3.637c2.583-0.521,4.149-0.934,6.152-1.393c2.003-0.459,2.003-0.459,2.003-0.459
				s-5.519-0.023-5.831-0.171c-0.313-0.152,2.358-1.004,3.544-1.222c1.188-0.22,3.351-0.579,4-0.676
				c0.648-0.097-0.491-0.848-1.667-0.998c-1.178-0.149-1.835-0.125-2.118-0.186c-0.284-0.062,4.219-2.611,6.265-3.318
				c2.045-0.709,18.511-8.532,20.468-9.354c1.958-0.822,2.688-1.452,3.734-1.93c1.042-0.479,2.418-1.86,2.418-1.86
				s-13.383,3.307-16.449,4.37c-3.067,1.063-8.432,3.198-10.574,3.702c-2.145,0.504-3.81,0.407-3.81,0.407s-1.798-0.267-0.52-2.424
				c1.279-2.157,16.561-12.427,19.506-14.486c2.946-2.061,22.125-16.512,22.125-16.512l-41.593,21.441l1.644-4.586
				c0,0-6.04,5.606-6.717,5.496c-0.675-0.112,0.066-3.958,0.066-3.958s-5.886,5.958-6.745,6.14
				c-0.859,0.185-2.371,1.356-3.023,1.426c-0.654,0.069,18.894-19.473,20.371-20.917c1.476-1.445,5.798-5.765,5.798-5.765
				l-30.456,20.526l-0.863-1.653c0,0-1.451,3.461-2.134,4.179c-0.685,0.715-3.52,3.682-3.845,3.718
				c-0.328,0.034-0.438-0.874-0.159-2.189s-1.605,2.193-2.507,2.933c-0.903,0.739-3.05,3.908-3.343,4.215
				c-0.294,0.306-0.316-3.457-0.316-3.457l0.117-1.758c0,0-2.221,4.372-3.14,6.766c-0.918,2.394-1.505,3.009-1.505,3.009
				s-1.571-1.118-1.64-1.662c-0.066-0.544-0.888,1.748-0.776,2.655C443.534,195.239,443.021,197.039,443.021,197.039z"/>
		</g>
		
			<radialGradient id="SVGID_28_" cx="414.563" cy="218.7095" r="3.2683" gradientTransform="matrix(1.436 0 0 1.339 -123.8046 -103.5883)" gradientUnits="userSpaceOnUse">
			<stop  offset="0.4293" style="stop-color:#FFFFFF"/>
			<stop  offset="1" style="stop-color:#DEDC00;stop-opacity:0.5"/>
		</radialGradient>
		<line fill="url(#SVGID_28_)" x1="470.622" y1="177.386" x2="481.56" y2="190.367"/>
	</g>
</g>
</svg>
