<svg width="27" height="18" viewBox="0 0 27 18" fill="none" xmlns="http://www.w3.org/2000/svg">
<path d="M0.0900001 0.807999H4.93C6.998 0.807999 8.69933 1.21133 10.034 2.018C11.3687 2.81 12.3367 3.844 12.938 5.12C13.554 6.38133 13.862 7.738 13.862 9.19C13.862 10.7447 13.4953 12.116 12.762 13.304C12.0287 14.492 11.0387 15.4087 9.792 16.054C8.56 16.6847 7.20333 17 5.722 17H0.0900001V0.807999ZM5.172 13.92C6.82933 13.92 8.142 13.4947 9.11 12.644C10.078 11.7933 10.562 10.5687 10.562 8.97C10.562 7.67933 10.2907 6.65267 9.748 5.89C9.22 5.12733 8.59667 4.59933 7.878 4.306C7.174 4.01267 6.50667 3.866 5.876 3.866H3.28V13.92H5.172ZM25.7087 4.724C24.3007 3.94667 23.076 3.558 22.0347 3.558C21.3307 3.558 20.7807 3.69733 20.3847 3.976C20.0033 4.25467 19.8127 4.67267 19.8127 5.23C19.8127 5.74333 20.0913 6.198 20.6487 6.594C21.2207 6.97533 21.976 7.342 22.9147 7.694C23.6773 7.97267 24.33 8.29533 24.8727 8.662C25.4153 9.014 25.8627 9.50533 26.2147 10.136C26.5813 10.7667 26.7647 11.566 26.7647 12.534C26.7647 13.37 26.5447 14.1473 26.1047 14.866C25.6793 15.57 25.0487 16.1347 24.2127 16.56C23.3767 16.9707 22.3793 17.176 21.2207 17.176C20.2527 17.176 19.292 17.0367 18.3387 16.758C17.3853 16.4647 16.498 16.0247 15.6767 15.438L17.0847 12.952C17.642 13.3627 18.28 13.7 18.9987 13.964C19.7173 14.228 20.3627 14.36 20.9347 14.36C21.6093 14.36 22.196 14.2207 22.6947 13.942C23.1933 13.6487 23.4427 13.1793 23.4427 12.534C23.4427 11.698 22.658 10.972 21.0887 10.356C20.1647 9.98933 19.3947 9.63733 18.7787 9.3C18.1627 8.96267 17.6273 8.47867 17.1727 7.848C16.7327 7.21733 16.5127 6.42533 16.5127 5.472C16.5127 4.07867 16.9673 2.95667 17.8767 2.106C18.8007 1.25533 20.0253 0.793333 21.5507 0.72C22.7533 0.72 23.758 0.859333 24.5647 1.138C25.3713 1.402 26.156 1.78333 26.9187 2.282L25.7087 4.724Z" fill="#F7FAFF"/>
</svg>
