<svg width="1472" height="173" viewBox="0 0 1472 173" fill="none" xmlns="http://www.w3.org/2000/svg">
<path d="M140.18 11.44V172.3H139.34L31.19 74.65L31.82 166H0.950001V5.34999H2.21L110.15 104.47L109.52 11.44H140.18ZM168.013 118.96C168.013 109.58 170.183 101.18 174.523 93.76C179.003 86.34 185.233 80.53 193.213 76.33C201.333 71.99 210.503 69.82 220.723 69.82C230.943 69.82 239.903 71.99 247.603 76.33C255.443 80.53 261.463 86.34 265.663 93.76C269.863 101.18 271.963 109.58 271.963 118.96C271.963 128.34 269.863 136.81 265.663 144.37C261.463 151.93 255.443 157.88 247.603 162.22C239.903 166.42 230.803 168.52 220.303 168.52C210.083 168.52 200.983 166.56 193.003 162.64C185.163 158.58 179.003 152.84 174.523 145.42C170.183 138 168.013 129.18 168.013 118.96ZM197.623 119.17C197.623 126.45 199.723 132.54 203.923 137.44C208.123 142.2 213.443 144.58 219.883 144.58C226.603 144.58 231.993 142.2 236.053 137.44C240.253 132.68 242.353 126.59 242.353 119.17C242.353 111.75 240.253 105.66 236.053 100.9C231.993 96.14 226.603 93.76 219.883 93.76C213.443 93.76 208.123 96.21 203.923 101.11C199.723 105.87 197.623 111.89 197.623 119.17ZM409.195 143.53C415.075 143.53 421.165 141.5 427.465 137.44L440.485 159.28C435.445 162.08 430.125 164.32 424.525 166C418.925 167.68 413.605 168.52 408.565 168.52C397.645 168.52 388.195 166.49 380.215 162.43C372.375 158.23 366.425 152.42 362.365 145C358.305 137.44 356.275 128.83 356.275 119.17C356.275 110.21 358.585 101.95 363.205 94.39C367.965 86.83 374.405 80.88 382.525 76.54C390.645 72.06 399.535 69.82 409.195 69.82C422.355 69.82 433.135 73.67 441.535 81.37C450.075 89.07 455.605 100.06 458.125 114.34L390.925 135.76C395.405 140.94 401.495 143.53 409.195 143.53ZM406.885 92.71C400.305 92.71 395.055 94.95 391.135 99.43C387.215 103.91 385.255 109.93 385.255 117.49V119.38L425.575 105.73C422.635 97.05 416.405 92.71 406.885 92.71ZM543.329 69.82C552.009 69.82 559.219 72.41 564.959 77.59C570.839 82.77 573.849 89.35 573.989 97.33V166H544.589V108.25C544.169 99.29 539.689 94.81 531.149 94.81C524.429 94.81 519.039 97.96 514.979 104.26C510.919 110.56 508.889 118.68 508.889 128.62V166H479.489V74.23H506.159L508.259 88.93C511.619 82.91 516.239 78.22 522.119 74.86C528.139 71.5 535.209 69.82 543.329 69.82ZM682.087 157.81C678.027 161.03 672.917 163.62 666.757 165.58C660.737 167.54 654.787 168.52 648.907 168.52C632.947 168.52 620.277 164.25 610.897 155.71C601.657 147.03 597.037 135.13 597.037 120.01C597.037 110.21 599.277 101.67 603.757 94.39C608.377 86.97 614.397 81.37 621.817 77.59C629.237 73.67 637.217 71.71 645.757 71.71C661.017 71.71 673.407 75.77 682.927 83.89L668.647 102.79C662.627 98.03 655.907 95.65 648.487 95.65C642.327 95.65 637.077 97.96 632.737 102.58C628.537 107.2 626.437 113.01 626.437 120.01C626.437 127.01 628.747 132.89 633.367 137.65C637.987 142.27 644.007 144.58 651.427 144.58C657.867 144.58 663.187 142.83 667.387 139.33L682.087 157.81ZM697.525 118.96C697.525 109.58 699.695 101.18 704.035 93.76C708.515 86.34 714.745 80.53 722.725 76.33C730.845 71.99 740.015 69.82 750.235 69.82C760.455 69.82 769.415 71.99 777.115 76.33C784.955 80.53 790.975 86.34 795.175 93.76C799.375 101.18 801.475 109.58 801.475 118.96C801.475 128.34 799.375 136.81 795.175 144.37C790.975 151.93 784.955 157.88 777.115 162.22C769.415 166.42 760.315 168.52 749.815 168.52C739.595 168.52 730.495 166.56 722.515 162.64C714.675 158.58 708.515 152.84 704.035 145.42C699.695 138 697.525 129.18 697.525 118.96ZM727.135 119.17C727.135 126.45 729.235 132.54 733.435 137.44C737.635 142.2 742.955 144.58 749.395 144.58C756.115 144.58 761.505 142.2 765.565 137.44C769.765 132.68 771.865 126.59 771.865 119.17C771.865 111.75 769.765 105.66 765.565 100.9C761.505 96.14 756.115 93.76 749.395 93.76C742.955 93.76 737.635 96.21 733.435 101.11C729.235 105.87 727.135 111.89 727.135 119.17ZM888.476 69.82C897.156 69.82 904.366 72.41 910.106 77.59C915.986 82.77 918.996 89.35 919.136 97.33V166H889.736V108.25C889.316 99.29 884.836 94.81 876.296 94.81C869.576 94.81 864.186 97.96 860.126 104.26C856.066 110.56 854.036 118.68 854.036 128.62V166H824.636V74.23H851.306L853.406 88.93C856.766 82.91 861.386 78.22 867.266 74.86C873.286 71.5 880.356 69.82 888.476 69.82ZM987.333 33.91V73.81H1009.59V96.7H987.333V166H957.933V96.7H943.653V73.81H957.933V33.91H987.333ZM1060.74 95.23C1063.26 90.33 1066.69 85.92 1071.03 82C1075.51 78.08 1080.06 75.07 1084.68 72.97C1089.3 70.73 1092.94 69.61 1095.6 69.61L1094.13 99.01C1093.29 98.87 1092.1 98.8 1090.56 98.8C1084.68 98.8 1079.5 100.34 1075.02 103.42C1070.54 106.5 1067.11 110.49 1064.73 115.39C1062.35 120.15 1061.16 125.05 1061.16 130.09V166H1031.97V74.23H1058.43L1060.74 95.23ZM1213.73 74.23V166H1184.33V154.66C1175.51 163.9 1165.29 168.52 1153.67 168.52C1140.09 168.52 1129.03 164.46 1120.49 156.34C1112.09 148.22 1107.89 136.18 1107.89 120.22C1107.89 110.14 1109.92 101.32 1113.98 93.76C1118.18 86.06 1123.71 80.11 1130.57 75.91C1137.43 71.71 1144.78 69.61 1152.62 69.61C1160.74 69.61 1167.18 70.87 1171.94 73.39C1176.7 75.77 1180.9 79.2 1184.54 83.68L1186.43 74.23H1213.73ZM1162.07 144.58C1172.29 144.58 1179.71 139.96 1184.33 130.72V108.25C1182.65 103.77 1179.71 100.2 1175.51 97.54C1171.45 94.88 1166.62 93.55 1161.02 93.55C1154.58 93.55 1149.05 95.93 1144.43 100.69C1139.95 105.45 1137.71 111.47 1137.71 118.75C1137.71 123.51 1138.83 127.92 1141.07 131.98C1143.31 135.9 1146.25 138.98 1149.89 141.22C1153.67 143.46 1157.73 144.58 1162.07 144.58ZM1344.82 0.309993V166H1315.42V156.34C1304.78 164.46 1293.44 168.52 1281.4 168.52C1272.86 168.52 1265.23 166.49 1258.51 162.43C1251.79 158.37 1246.47 152.56 1242.55 145C1238.77 137.44 1236.88 128.55 1236.88 118.33C1236.88 108.25 1238.91 99.57 1242.97 92.29C1247.17 84.87 1252.91 79.27 1260.19 75.49C1267.47 71.57 1275.8 69.61 1285.18 69.61C1291.2 69.61 1296.87 70.59 1302.19 72.55C1307.51 74.37 1311.99 77.1 1315.63 80.74V0.309993H1344.82ZM1291.06 143.74C1296.94 143.74 1301.84 142.62 1305.76 140.38C1309.68 138 1312.9 134.5 1315.42 129.88V107.41C1313.74 102.93 1310.73 99.36 1306.39 96.7C1302.05 94.04 1296.94 92.71 1291.06 92.71C1284.48 92.71 1278.74 95.09 1273.84 99.85C1269.08 104.61 1266.7 110.63 1266.7 117.91C1266.7 122.67 1267.82 127.08 1270.06 131.14C1272.3 135.06 1275.24 138.14 1278.88 140.38C1282.66 142.62 1286.72 143.74 1291.06 143.74ZM1367.93 118.96C1367.93 109.58 1370.1 101.18 1374.44 93.76C1378.92 86.34 1385.15 80.53 1393.13 76.33C1401.25 71.99 1410.42 69.82 1420.64 69.82C1430.86 69.82 1439.82 71.99 1447.52 76.33C1455.36 80.53 1461.38 86.34 1465.58 93.76C1469.78 101.18 1471.88 109.58 1471.88 118.96C1471.88 128.34 1469.78 136.81 1465.58 144.37C1461.38 151.93 1455.36 157.88 1447.52 162.22C1439.82 166.42 1430.72 168.52 1420.22 168.52C1410 168.52 1400.9 166.56 1392.92 162.64C1385.08 158.58 1378.92 152.84 1374.44 145.42C1370.1 138 1367.93 129.18 1367.93 118.96ZM1397.54 119.17C1397.54 126.45 1399.64 132.54 1403.84 137.44C1408.04 142.2 1413.36 144.58 1419.8 144.58C1426.52 144.58 1431.91 142.2 1435.97 137.44C1440.17 132.68 1442.27 126.59 1442.27 119.17C1442.27 111.75 1440.17 105.66 1435.97 100.9C1431.91 96.14 1426.52 93.76 1419.8 93.76C1413.36 93.76 1408.04 96.21 1403.84 101.11C1399.64 105.87 1397.54 111.89 1397.54 119.17Z" fill="#F7FAFF"/>
</svg>
